<mxfile modified="2023-05-12T09:05:00.262Z" host="app.diagrams.net" agent="Mozilla/5.0 (Windows NT 10.0; Win64; x64) AppleWebKit/537.36 (KHTML, like Gecko) Chrome/113.0.0.0 Safari/537.36" etag="IAyxspW8esvdYBSu8UBp" version="21.2.9" type="github" pages="2">
  <diagram id="WI9T0HZ2pTsCkuznbFz-" name="Page-1">
    <mxGraphModel dx="1194" dy="766" grid="1" gridSize="10" guides="1" tooltips="1" connect="1" arrows="1" fold="1" page="1" pageScale="1" pageWidth="1169" pageHeight="827" math="0" shadow="0">
      <root>
        <mxCell id="0" />
        <mxCell id="1" parent="0" />
        <mxCell id="RLjyjs_sm2IHfBNOWAbh-109" value="" style="rounded=0;whiteSpace=wrap;html=1;labelBackgroundColor=#ffffff;fillColor=#f5f5f5;strokeColor=none;fontColor=#333333;" parent="1" vertex="1">
          <mxGeometry x="225" y="578" width="110" height="100" as="geometry" />
        </mxCell>
        <mxCell id="RLjyjs_sm2IHfBNOWAbh-113" value="" style="rounded=0;whiteSpace=wrap;html=1;labelBackgroundColor=#ffffff;fillColor=#f5f5f5;strokeColor=none;fontColor=#333333;" parent="1" vertex="1">
          <mxGeometry x="270.5" y="21" width="989.5" height="460" as="geometry" />
        </mxCell>
        <mxCell id="RLjyjs_sm2IHfBNOWAbh-143" style="edgeStyle=elbowEdgeStyle;rounded=0;orthogonalLoop=1;jettySize=auto;html=1;strokeColor=#808080;" parent="1" source="RLjyjs_sm2IHfBNOWAbh-113" target="RLjyjs_sm2IHfBNOWAbh-64" edge="1">
          <mxGeometry relative="1" as="geometry" />
        </mxCell>
        <mxCell id="RLjyjs_sm2IHfBNOWAbh-133" style="edgeStyle=elbowEdgeStyle;rounded=0;orthogonalLoop=1;jettySize=auto;elbow=vertical;html=1;strokeColor=#808080;exitX=1.02;exitY=0.505;exitDx=0;exitDy=0;exitPerimeter=0;" parent="1" source="RLjyjs_sm2IHfBNOWAbh-40" target="RLjyjs_sm2IHfBNOWAbh-44" edge="1">
          <mxGeometry relative="1" as="geometry" />
        </mxCell>
        <mxCell id="RLjyjs_sm2IHfBNOWAbh-134" style="edgeStyle=orthogonalEdgeStyle;rounded=0;orthogonalLoop=1;jettySize=auto;elbow=vertical;html=1;strokeColor=#808080;" parent="1" target="RLjyjs_sm2IHfBNOWAbh-44" edge="1">
          <mxGeometry relative="1" as="geometry">
            <mxPoint x="280" y="578" as="sourcePoint" />
            <Array as="points">
              <mxPoint x="280" y="568" />
              <mxPoint x="425" y="568" />
              <mxPoint x="425" y="478" />
            </Array>
          </mxGeometry>
        </mxCell>
        <mxCell id="RLjyjs_sm2IHfBNOWAbh-135" style="edgeStyle=elbowEdgeStyle;rounded=0;orthogonalLoop=1;jettySize=auto;elbow=vertical;html=1;strokeColor=#808080;exitX=0.007;exitY=0.495;exitDx=0;exitDy=0;exitPerimeter=0;" parent="1" source="RLjyjs_sm2IHfBNOWAbh-42" target="RLjyjs_sm2IHfBNOWAbh-109" edge="1">
          <mxGeometry relative="1" as="geometry" />
        </mxCell>
        <mxCell id="RLjyjs_sm2IHfBNOWAbh-136" style="edgeStyle=elbowEdgeStyle;rounded=0;orthogonalLoop=1;jettySize=auto;elbow=vertical;html=1;strokeColor=#808080;exitX=1.007;exitY=0.516;exitDx=0;exitDy=0;exitPerimeter=0;" parent="1" source="RLjyjs_sm2IHfBNOWAbh-42" target="RLjyjs_sm2IHfBNOWAbh-113" edge="1">
          <mxGeometry relative="1" as="geometry" />
        </mxCell>
        <mxCell id="RLjyjs_sm2IHfBNOWAbh-141" style="edgeStyle=elbowEdgeStyle;rounded=0;orthogonalLoop=1;jettySize=auto;elbow=vertical;html=1;strokeColor=#808080;" parent="1" source="RLjyjs_sm2IHfBNOWAbh-43" target="RLjyjs_sm2IHfBNOWAbh-109" edge="1">
          <mxGeometry relative="1" as="geometry">
            <Array as="points">
              <mxPoint x="345" y="797" />
            </Array>
          </mxGeometry>
        </mxCell>
        <mxCell id="RLjyjs_sm2IHfBNOWAbh-142" style="edgeStyle=elbowEdgeStyle;rounded=0;orthogonalLoop=1;jettySize=auto;elbow=vertical;html=1;strokeColor=#808080;" parent="1" source="RLjyjs_sm2IHfBNOWAbh-43" target="RLjyjs_sm2IHfBNOWAbh-113" edge="1">
          <mxGeometry relative="1" as="geometry" />
        </mxCell>
        <mxCell id="RLjyjs_sm2IHfBNOWAbh-137" style="edgeStyle=elbowEdgeStyle;rounded=0;orthogonalLoop=1;jettySize=auto;elbow=vertical;html=1;strokeColor=#808080;" parent="1" source="RLjyjs_sm2IHfBNOWAbh-44" target="RLjyjs_sm2IHfBNOWAbh-47" edge="1">
          <mxGeometry relative="1" as="geometry" />
        </mxCell>
        <mxCell id="RLjyjs_sm2IHfBNOWAbh-138" style="edgeStyle=elbowEdgeStyle;rounded=0;orthogonalLoop=1;jettySize=auto;elbow=vertical;html=1;strokeColor=#808080;" parent="1" source="RLjyjs_sm2IHfBNOWAbh-44" target="RLjyjs_sm2IHfBNOWAbh-86" edge="1">
          <mxGeometry relative="1" as="geometry" />
        </mxCell>
        <mxCell id="RLjyjs_sm2IHfBNOWAbh-150" style="edgeStyle=elbowEdgeStyle;rounded=0;orthogonalLoop=1;jettySize=auto;html=1;strokeColor=#808080;entryX=0.504;entryY=0.005;entryDx=0;entryDy=0;entryPerimeter=0;" parent="1" source="RLjyjs_sm2IHfBNOWAbh-50" target="RLjyjs_sm2IHfBNOWAbh-52" edge="1">
          <mxGeometry relative="1" as="geometry" />
        </mxCell>
        <mxCell id="RLjyjs_sm2IHfBNOWAbh-151" style="edgeStyle=elbowEdgeStyle;rounded=0;orthogonalLoop=1;jettySize=auto;elbow=vertical;html=1;strokeColor=#808080;entryX=0.494;entryY=-0.002;entryDx=0;entryDy=0;entryPerimeter=0;" parent="1" source="RLjyjs_sm2IHfBNOWAbh-50" target="RLjyjs_sm2IHfBNOWAbh-51" edge="1">
          <mxGeometry relative="1" as="geometry">
            <Array as="points">
              <mxPoint x="1045" y="544" />
            </Array>
          </mxGeometry>
        </mxCell>
        <mxCell id="RLjyjs_sm2IHfBNOWAbh-152" style="edgeStyle=elbowEdgeStyle;rounded=0;orthogonalLoop=1;jettySize=auto;elbow=vertical;html=1;strokeColor=#808080;entryX=0.489;entryY=0.007;entryDx=0;entryDy=0;entryPerimeter=0;" parent="1" source="RLjyjs_sm2IHfBNOWAbh-50" target="RLjyjs_sm2IHfBNOWAbh-82" edge="1">
          <mxGeometry relative="1" as="geometry">
            <Array as="points">
              <mxPoint x="1255" y="544" />
            </Array>
          </mxGeometry>
        </mxCell>
        <mxCell id="RLjyjs_sm2IHfBNOWAbh-144" style="edgeStyle=elbowEdgeStyle;rounded=0;orthogonalLoop=1;jettySize=auto;elbow=vertical;html=1;entryX=-0.023;entryY=0.257;entryDx=0;entryDy=0;entryPerimeter=0;strokeColor=#808080;" parent="1" source="RLjyjs_sm2IHfBNOWAbh-65" target="RLjyjs_sm2IHfBNOWAbh-101" edge="1">
          <mxGeometry relative="1" as="geometry" />
        </mxCell>
        <mxCell id="RLjyjs_sm2IHfBNOWAbh-145" style="edgeStyle=elbowEdgeStyle;rounded=0;orthogonalLoop=1;jettySize=auto;elbow=vertical;html=1;entryX=0.25;entryY=0;entryDx=0;entryDy=0;strokeColor=#808080;" parent="1" source="RLjyjs_sm2IHfBNOWAbh-65" target="RLjyjs_sm2IHfBNOWAbh-66" edge="1">
          <mxGeometry relative="1" as="geometry" />
        </mxCell>
        <mxCell id="RLjyjs_sm2IHfBNOWAbh-111" style="edgeStyle=elbowEdgeStyle;rounded=0;orthogonalLoop=1;jettySize=auto;elbow=vertical;html=1;strokeColor=#808080;startArrow=classic;startFill=1;" parent="1" target="RLjyjs_sm2IHfBNOWAbh-68" edge="1">
          <mxGeometry relative="1" as="geometry">
            <mxPoint x="1347" y="1028" as="sourcePoint" />
            <Array as="points">
              <mxPoint x="1165" y="1113" />
            </Array>
          </mxGeometry>
        </mxCell>
        <mxCell id="RLjyjs_sm2IHfBNOWAbh-139" style="edgeStyle=elbowEdgeStyle;rounded=0;orthogonalLoop=1;jettySize=auto;elbow=vertical;html=1;strokeColor=#808080;endArrow=none;endFill=0;" parent="1" source="RLjyjs_sm2IHfBNOWAbh-47" target="RLjyjs_sm2IHfBNOWAbh-126" edge="1">
          <mxGeometry relative="1" as="geometry" />
        </mxCell>
        <mxCell id="RLjyjs_sm2IHfBNOWAbh-140" style="edgeStyle=elbowEdgeStyle;rounded=0;orthogonalLoop=1;jettySize=auto;elbow=vertical;html=1;strokeColor=#808080;endArrow=none;endFill=0;" parent="1" source="RLjyjs_sm2IHfBNOWAbh-86" target="RLjyjs_sm2IHfBNOWAbh-126" edge="1">
          <mxGeometry relative="1" as="geometry">
            <mxPoint x="704.9999999999998" y="668" as="targetPoint" />
          </mxGeometry>
        </mxCell>
        <mxCell id="RLjyjs_sm2IHfBNOWAbh-146" style="edgeStyle=elbowEdgeStyle;rounded=0;orthogonalLoop=1;jettySize=auto;elbow=vertical;html=1;strokeColor=#808080;endArrow=none;endFill=0;" parent="1" target="RLjyjs_sm2IHfBNOWAbh-119" edge="1">
          <mxGeometry relative="1" as="geometry">
            <mxPoint x="960" y="818" as="sourcePoint" />
            <Array as="points">
              <mxPoint x="1055" y="838" />
            </Array>
          </mxGeometry>
        </mxCell>
        <mxCell id="RLjyjs_sm2IHfBNOWAbh-147" style="edgeStyle=elbowEdgeStyle;rounded=0;orthogonalLoop=1;jettySize=auto;elbow=vertical;html=1;strokeColor=#808080;endArrow=none;endFill=0;" parent="1" target="RLjyjs_sm2IHfBNOWAbh-119" edge="1">
          <mxGeometry relative="1" as="geometry">
            <mxPoint x="1347" y="828" as="sourcePoint" />
            <Array as="points">
              <mxPoint x="1255" y="838" />
            </Array>
          </mxGeometry>
        </mxCell>
        <mxCell id="RLjyjs_sm2IHfBNOWAbh-148" style="edgeStyle=orthogonalEdgeStyle;rounded=0;orthogonalLoop=1;jettySize=auto;elbow=vertical;html=1;strokeColor=#808080;endArrow=none;endFill=0;" parent="1" target="RLjyjs_sm2IHfBNOWAbh-118" edge="1">
          <mxGeometry relative="1" as="geometry">
            <mxPoint x="959" y="638" as="sourcePoint" />
            <Array as="points">
              <mxPoint x="959" y="708" />
              <mxPoint x="1156" y="708" />
            </Array>
          </mxGeometry>
        </mxCell>
        <mxCell id="RLjyjs_sm2IHfBNOWAbh-149" style="edgeStyle=elbowEdgeStyle;rounded=0;orthogonalLoop=1;jettySize=auto;elbow=vertical;html=1;strokeColor=#808080;endArrow=none;endFill=0;" parent="1" target="RLjyjs_sm2IHfBNOWAbh-118" edge="1">
          <mxGeometry relative="1" as="geometry">
            <mxPoint x="1345" y="638" as="sourcePoint" />
            <Array as="points">
              <mxPoint x="1255" y="708" />
            </Array>
          </mxGeometry>
        </mxCell>
        <mxCell id="RLjyjs_sm2IHfBNOWAbh-153" style="edgeStyle=elbowEdgeStyle;rounded=0;orthogonalLoop=1;jettySize=auto;elbow=vertical;html=1;strokeColor=#808080;endArrow=none;endFill=0;" parent="1" target="RLjyjs_sm2IHfBNOWAbh-116" edge="1">
          <mxGeometry relative="1" as="geometry">
            <mxPoint x="583" y="828" as="sourcePoint" />
          </mxGeometry>
        </mxCell>
        <mxCell id="RLjyjs_sm2IHfBNOWAbh-154" style="edgeStyle=elbowEdgeStyle;rounded=0;orthogonalLoop=1;jettySize=auto;elbow=vertical;html=1;strokeColor=#808080;endArrow=none;endFill=0;" parent="1" target="RLjyjs_sm2IHfBNOWAbh-116" edge="1">
          <mxGeometry relative="1" as="geometry">
            <mxPoint x="694.9999999999998" y="868" as="targetPoint" />
            <mxPoint x="790" y="828" as="sourcePoint" />
          </mxGeometry>
        </mxCell>
        <mxCell id="RLjyjs_sm2IHfBNOWAbh-40" value="Access from the&lt;br&gt;internet for extranet&lt;br&gt;scenarios" style="aspect=fixed;html=1;perimeter=none;align=center;shadow=0;dashed=0;image;fontSize=12;image=img/lib/mscae/PersonWithFriend.svg;labelBackgroundColor=#ffffff;fillColor=#4D9900;" parent="1" vertex="1">
          <mxGeometry x="255" y="453" width="50" height="49.5" as="geometry" />
        </mxCell>
        <mxCell id="RLjyjs_sm2IHfBNOWAbh-41" value="On-Premises&lt;br&gt;Users" style="aspect=fixed;html=1;perimeter=none;align=center;shadow=0;dashed=0;image;fontSize=12;image=img/lib/mscae/PersonWithFriend.svg;labelBackgroundColor=#ffffff;fillColor=#4D9900;" parent="1" vertex="1">
          <mxGeometry x="255" y="586.7499999999999" width="50" height="49.5" as="geometry" />
        </mxCell>
        <mxCell id="RLjyjs_sm2IHfBNOWAbh-42" value="Express&lt;br&gt;Route" style="aspect=fixed;html=1;perimeter=none;align=center;shadow=0;dashed=0;image;fontSize=12;image=img/lib/mscae/Express_Route.svg;labelBackgroundColor=#ffffff;fillColor=#4D9900;" parent="1" vertex="1">
          <mxGeometry x="405" y="596.25" width="50" height="30.5" as="geometry" />
        </mxCell>
        <mxCell id="RLjyjs_sm2IHfBNOWAbh-43" value="VPN Gateway" style="shape=image;verticalLabelPosition=bottom;labelBackgroundColor=#ffffff;verticalAlign=top;aspect=fixed;imageAspect=0;image=data:image/svg+xml,PHN2ZyB4bWxuczpjYz0iaHR0cDovL2NyZWF0aXZlY29tbW9ucy5vcmcvbnMjIiB4bWxuczpkYz0iaHR0cDovL3B1cmwub3JnL2RjL2VsZW1lbnRzLzEuMS8iIHhtbG5zOmlua3NjYXBlPSJodHRwOi8vd3d3Lmlua3NjYXBlLm9yZy9uYW1lc3BhY2VzL2lua3NjYXBlIiB4bWxuczpyZGY9Imh0dHA6Ly93d3cudzMub3JnLzE5OTkvMDIvMjItcmRmLXN5bnRheC1ucyMiIHhtbG5zOnNvZGlwb2RpPSJodHRwOi8vc29kaXBvZGkuc291cmNlZm9yZ2UubmV0L0RURC9zb2RpcG9kaS0wLmR0ZCIgeG1sbnM6c3ZnPSJodHRwOi8vd3d3LnczLm9yZy8yMDAwL3N2ZyIgeG1sbnM9Imh0dHA6Ly93d3cudzMub3JnLzIwMDAvc3ZnIiB4bWxuczp4bGluaz0iaHR0cDovL3d3dy53My5vcmcvMTk5OS94bGluayIgdmVyc2lvbj0iMS4xIiBpZD0ic3ZnMTIyNzAiIGlua3NjYXBlOnZlcnNpb249IjAuOTIuMyAoMjQwNTU0NiwgMjAxOC0wMy0xMSkiIHNvZGlwb2RpOmRvY25hbWU9InZwbl9nYXRld2F5LnN2ZyIgeD0iMHB4IiB5PSIwcHgiIHZpZXdCb3g9IjAgMCA4OS42OSAxMDAuMTEiIHN0eWxlPSJlbmFibGUtYmFja2dyb3VuZDpuZXcgMCAwIDg5LjY5IDEwMC4xMTsiIHhtbDpzcGFjZT0icHJlc2VydmUiPiYjeGE7PHNvZGlwb2RpOm5hbWVkdmlldyBib3JkZXJjb2xvcj0iIzY2NjY2NiIgYm9yZGVyb3BhY2l0eT0iMSIgZml0LW1hcmdpbi1ib3R0b209IjAiIGZpdC1tYXJnaW4tbGVmdD0iMCIgZml0LW1hcmdpbi1yaWdodD0iMCIgZml0LW1hcmdpbi10b3A9IjAiIGdyaWR0b2xlcmFuY2U9IjEwIiBndWlkZXRvbGVyYW5jZT0iMTAiIGlkPSJuYW1lZHZpZXcxMjI3MiIgaW5rc2NhcGU6Y3VycmVudC1sYXllcj0ic3ZnMTIyNzAiIGlua3NjYXBlOmN4PSI1OS43OTYiIGlua3NjYXBlOmN5PSI2Ni43NDMzMzEiIGlua3NjYXBlOnBhZ2VvcGFjaXR5PSIwIiBpbmtzY2FwZTpwYWdlc2hhZG93PSIyIiBpbmtzY2FwZTp3aW5kb3ctaGVpZ2h0PSIxMDE3IiBpbmtzY2FwZTp3aW5kb3ctbWF4aW1pemVkPSIxIiBpbmtzY2FwZTp3aW5kb3ctd2lkdGg9IjE5MjAiIGlua3NjYXBlOndpbmRvdy14PSItOCIgaW5rc2NhcGU6d2luZG93LXk9Ii04IiBpbmtzY2FwZTp6b29tPSI1LjIxOTMxOTciIG9iamVjdHRvbGVyYW5jZT0iMTAiIHBhZ2Vjb2xvcj0iI2ZmZmZmZiIgc2hvd2dyaWQ9ImZhbHNlIj4mI3hhOwk8L3NvZGlwb2RpOm5hbWVkdmlldz4mI3hhOzxnIGlkPSJnMTIyNjgiIHRyYW5zZm9ybT0idHJhbnNsYXRlKC0xMi4yNCwtMTIuMjM1NzAzKSI+JiN4YTsJPHRpdGxlIGlkPSJ0aXRsZTEyMjQzIj5QYWdlLTE8L3RpdGxlPiYjeGE7CTxnIGlkPSJncm91cDk0MzQtMSIgdHJhbnNmb3JtPSJ0cmFuc2xhdGUoMTIuMjQsLTEyLjI0KSI+JiN4YTsJCTx0aXRsZSBpZD0idGl0bGUxMjI0NSI+VlBOIEdhdGV3YXk8L3RpdGxlPiYjeGE7CQk8ZyBpZD0ic2hhcGU5NDM1LTIiIHRyYW5zZm9ybT0idHJhbnNsYXRlKDEwLjYxMTIsLTYxLjI2NDQpIj4mI3hhOwkJCTx0aXRsZSBpZD0idGl0bGUxMjI0NyI+U2hlZXQuOTQzNTwvdGl0bGU+JiN4YTsJCQk8cGF0aCBpZD0icGF0aDEyMjQ5IiBpbmtzY2FwZTpjb25uZWN0b3ItY3VydmF0dXJlPSIwIiBzdHlsZT0iZmlsbDojQTBBMUEyOyIgZD0iTTY4LjQ3LDEyMi43OHYtNC40YzAtOC44MS0zLjItMTcuMDItOC44MS0yMi44MyAgICAgYy01LjItNi0xNi44MS05LjgxLTI1LjQyLTkuODFzLTIwLjIzLDMuODEtMjUuNDMsOS44MUMzLjQsMTAxLjM2LDAsMTA5LjU3LDAsMTE4LjM4djQuNGwxNS44MiwxLjgxdi00LjAxICAgICBjMC01LjIsMS44LTExLjgxLDQuOC0xNS4yMWMzLTMuNDEsOS40MS01LjAxLDEzLjYyLTUuMjFjNC4yLDAsMTAuNjEsMS44LDEzLjYxLDUuMjFjMywzLjQsNC44MSw3LjgsNC44MSwxMi44MXY2LjQxICAgICBMNjguNDcsMTIyLjc4eiIvPiYjeGE7CQk8L2c+JiN4YTsJCTxnIGlkPSJzaGFwZTk0MzYtNCI+JiN4YTsJCQk8dGl0bGUgaWQ9InRpdGxlMTIyNTIiPlNoZWV0Ljk0MzY8L3RpdGxlPiYjeGE7CQkJPHBhdGggaWQ9InBhdGgxMjI1NCIgaW5rc2NhcGU6Y29ubmVjdG9yLWN1cnZhdHVyZT0iMCIgc3R5bGU9ImZpbGw6IzU5QjREOTsiIGQ9Ik0xMC42MSw2MS41MkMyLjgsNjEuNTIsMCw2Ni4xMiwwLDcyLjEzdjQxLjg0ICAgICBjMCw1LjIxLDMuMiwxMC42Miw5LjIxLDEwLjYyaDcxLjI3YzYuODEsMCw5LjIxLTUuNDEsOS4yMS0xMC42MlY3Mi4xM2MwLTUuNDEtMi4yLTEwLjYxLTEwLjYxLTEwLjYxTDEwLjYxLDYxLjUyeiIvPiYjeGE7CQk8L2c+JiN4YTsJCTxnIGlkPSJzaGFwZTk0MzctNiI+JiN4YTsJCQk8dGl0bGUgaWQ9InRpdGxlMTIyNTciPlNoZWV0Ljk0Mzc8L3RpdGxlPiYjeGE7CQkJPHBhdGggaWQ9InBhdGgxMjI1OSIgaW5rc2NhcGU6Y29ubmVjdG9yLWN1cnZhdHVyZT0iMCIgc3R5bGU9ImZpbGw6I0ZGRkZGRjtmaWxsLW9wYWNpdHk6MC4xNTsiIGQ9Ik02My4wNyw2MS41MkgxMC42MSAgICAgQzIuOCw2MS41MiwwLDY2LjEyLDAsNzIuMTN2NDEuODRjMCw1LjIxLDMuMiwxMC42Miw5LjIxLDEwLjYyaDEzLjQxTDYzLjA3LDYxLjUyeiIvPiYjeGE7CQk8L2c+JiN4YTsJCTxnIGlkPSJzaGFwZTk0MzgtOCIgdHJhbnNmb3JtPSJ0cmFuc2xhdGUoMTEuNDEyLC01LjYwNTg5KSI+JiN4YTsJCQk8dGl0bGUgaWQ9InRpdGxlMTIyNjIiPlNoZWV0Ljk0Mzg8L3RpdGxlPiYjeGE7CQkJPHBhdGggaWQ9InBhdGgxMjI2NCIgaW5rc2NhcGU6Y29ubmVjdG9yLWN1cnZhdHVyZT0iMCIgc3R5bGU9ImZpbGw6I0ZGRkZGRjsiIGQ9Ik0yMS40Miw4NC4zNGwxMS42MS0xMS42MWwxMS42MiwxMS42MWgtOC4yMSAgICAgdjguNDFoLTcuMDF2LTguNDFDMjkuNDMsODQuMzQsMjEuNDIsODQuMzQsMjEuNDIsODQuMzR6IE0wLDEwMS45NnYtNi44MWgxMi4wMXYtOGwxMS4yMSwxMS4yMWwtMTEuMjEsMTEuMjF2LTcuODFIMFYxMDEuOTZ6ICAgICAgTTMzLjAzLDEyNC41OWwtMTEuODEtMTEuODJoOC4yMXYtOC4yMWg3LjAxdjguMjFoOC40MUwzMy4wMywxMjQuNTl6IE02Ni4wNywxMDEuOTZINTQuMDZ2OC4wMUw0Mi42NCw5OC41NmwxMS40Mi0xMS40MXY4aDEyLjAxICAgICBWMTAxLjk2eiIvPiYjeGE7CQk8L2c+JiN4YTsJPC9nPiYjeGE7PC9nPiYjeGE7PC9zdmc+;fillColor=#4D9900;" parent="1" vertex="1">
          <mxGeometry x="395" y="770" width="54" height="60" as="geometry" />
        </mxCell>
        <mxCell id="RLjyjs_sm2IHfBNOWAbh-44" value="Load Balancer" style="shape=image;verticalLabelPosition=bottom;labelBackgroundColor=#F5F5F5;verticalAlign=top;aspect=fixed;imageAspect=0;image=data:image/svg+xml,PHN2ZyB4bWxuczpkYz0iaHR0cDovL3B1cmwub3JnL2RjL2VsZW1lbnRzLzEuMS8iIHhtbG5zOmNjPSJodHRwOi8vY3JlYXRpdmVjb21tb25zLm9yZy9ucyMiIHhtbG5zOnJkZj0iaHR0cDovL3d3dy53My5vcmcvMTk5OS8wMi8yMi1yZGYtc3ludGF4LW5zIyIgeG1sbnM6c3ZnPSJodHRwOi8vd3d3LnczLm9yZy8yMDAwL3N2ZyIgeG1sbnM9Imh0dHA6Ly93d3cudzMub3JnLzIwMDAvc3ZnIiB4bWxuczpzb2RpcG9kaT0iaHR0cDovL3NvZGlwb2RpLnNvdXJjZWZvcmdlLm5ldC9EVEQvc29kaXBvZGktMC5kdGQiIHhtbG5zOmlua3NjYXBlPSJodHRwOi8vd3d3Lmlua3NjYXBlLm9yZy9uYW1lc3BhY2VzL2lua3NjYXBlIiB2ZXJzaW9uPSIxLjEiIGlkPSJzdmc4Mjg3OSIgaW5rc2NhcGU6dmVyc2lvbj0iMC45Mi4zICgyNDA1NTQ2LCAyMDE4LTAzLTExKSIgc29kaXBvZGk6ZG9jbmFtZT0ibG9hZF9iYWxhbmNlci5zdmciIHg9IjBweCIgeT0iMHB4IiB2aWV3Qm94PSIwIDAgMTAwLjMxIDEwMC4zMSIgeG1sOnNwYWNlPSJwcmVzZXJ2ZSIgd2lkdGg9IjEwMC4zMSIgaGVpZ2h0PSIxMDAuMzEiPjxtZXRhZGF0YSBpZD0ibWV0YWRhdGEyNDEyIj48cmRmOlJERj48Y2M6V29yayByZGY6YWJvdXQ9IiI+PGRjOmZvcm1hdD5pbWFnZS9zdmcreG1sPC9kYzpmb3JtYXQ+PGRjOnR5cGUgcmRmOnJlc291cmNlPSJodHRwOi8vcHVybC5vcmcvZGMvZGNtaXR5cGUvU3RpbGxJbWFnZSIvPjxkYzp0aXRsZS8+PC9jYzpXb3JrPjwvcmRmOlJERj48L21ldGFkYXRhPjxkZWZzIGlkPSJkZWZzMjQxMCIvPiYjeGE7PGZpbHRlciBpZD0iZmlsdGVyXzIiPiYjeGE7CTxmZUdhdXNzaWFuQmx1ciBpZD0iZmVHYXVzc2lhbkJsdXI4MjgzNiIgc3RkRGV2aWF0aW9uPSIyIi8+JiN4YTs8L2ZpbHRlcj4mI3hhOzxzb2RpcG9kaTpuYW1lZHZpZXcgYm9yZGVyY29sb3I9IiM2NjY2NjYiIGJvcmRlcm9wYWNpdHk9IjEiIGZpdC1tYXJnaW4tYm90dG9tPSIwIiBmaXQtbWFyZ2luLWxlZnQ9IjAiIGZpdC1tYXJnaW4tcmlnaHQ9IjAiIGZpdC1tYXJnaW4tdG9wPSIwIiBncmlkdG9sZXJhbmNlPSIxMCIgZ3VpZGV0b2xlcmFuY2U9IjEwIiBpZD0ibmFtZWR2aWV3ODI4ODEiIGlua3NjYXBlOmN1cnJlbnQtbGF5ZXI9InN2ZzgyODc5IiBpbmtzY2FwZTpjeD0iLTM2LjI2NDEyMyIgaW5rc2NhcGU6Y3k9IjQzLjM4OTQ1NSIgaW5rc2NhcGU6cGFnZW9wYWNpdHk9IjAiIGlua3NjYXBlOnBhZ2VzaGFkb3c9IjIiIGlua3NjYXBlOndpbmRvdy1oZWlnaHQ9IjEwMTciIGlua3NjYXBlOndpbmRvdy1tYXhpbWl6ZWQ9IjEiIGlua3NjYXBlOndpbmRvdy13aWR0aD0iMTkyMCIgaW5rc2NhcGU6d2luZG93LXg9Ii04IiBpbmtzY2FwZTp3aW5kb3cteT0iLTgiIGlua3NjYXBlOnpvb209IjUuMjEwODU3NiIgb2JqZWN0dG9sZXJhbmNlPSIxMCIgcGFnZWNvbG9yPSIjZmZmZmZmIiBzaG93Z3JpZD0iZmFsc2UiPiYjeGE7CTwvc29kaXBvZGk6bmFtZWR2aWV3PiYjeGE7JiN4YTs8cGF0aCBpZD0icGF0aDgyODQ5IiBpbmtzY2FwZTpjb25uZWN0b3ItY3VydmF0dXJlPSIwIiBzdHlsZT0iZmlsbDojN2ZiYTAwIiBkPSJtIDUwLjE1LDEwMC4zMSBjIC0yLjQ3LDAgLTQuNzksLTAuOTcgLTYuNTQsLTIuNzEgTCAyLjcxLDU2LjY5IEMgMC45OSw1NC45NyAwLDUyLjU5IDAsNTAuMTUgMCw0Ny43MiAwLjk5LDQ1LjMzIDIuNzEsNDMuNjEgTCA0My42MSwyLjcxIEMgNDUuMzYsMC45NiA0Ny42OCwwIDUwLjE1LDAgYyAyLjQ3LDAgNC44LDAuOTYgNi41NSwyLjcxIGwgNDAuODksNDAuOSBjIDEuNzUsMS43NCAyLjcyLDQuMDcgMi43Miw2LjU0IDAsMi40OCAtMC45Nyw0LjggLTIuNzIsNi41NSBMIDU2LjcsOTcuNiBjIC0xLjc1LDEuNzQgLTQuMDgsMi43MSAtNi41NSwyLjcxIHoiLz4mI3hhOyYjeGE7PHBhdGggaWQ9InBhdGg4Mjg1NyIgaW5rc2NhcGU6Y29ubmVjdG9yLWN1cnZhdHVyZT0iMCIgc3R5bGU9ImZpbGw6I2ZmZmZmZiIgZD0iTSA5MS41LDQ5LjQ4IDc4LjI0LDM2LjIxIHYgOS4zNyBMIDY0LjE2LDQ1LjU3IEMgNjIuOCw0MC43MiA1OSwzNi44OCA1NC4xNiwzNS41IFYgMjIuMDcgaCA5LjI2IEwgNTAuMTUsOC44MSAzNi44OSwyMi4wNyBoIDkuMjUgdiAxMy40MiBjIC00LjgzLDEuMzkgLTguNjMsNS4yMSAtOS45OSwxMC4wNSBMIDIyLjA3LDQ1LjUzIFYgMzYuMjYgTCA4LjgsNDkuNTMgMjIuMDcsNjIuNzkgdiAtOS4zNiBsIDE0LjA4LDAuMDEgYyAxLjM3LDQuODMgNS4xNyw4LjY0IDkuOTksMTAuMDIgdiA5LjMxIGMgLTIuMDEsMS40NiAtNS4wNyw0LjUzIC01LjA3LDguMSAwLDQuOTggNC4wOCw5LjAzIDkuMDUsOS4wMyA0Ljk4LDAgOS4wNSwtNC4wNSA5LjA1LC05LjAzIDAsLTMuNTMgLTMsLTYuNTcgLTUuMDEsLTguMDUgdiAtOS4zNiBjIDQuODIsLTEuMzggOC42MSwtNS4xOCA5Ljk4LC05Ljk5IGwgMTQuMSwwLjAxIHYgOS4yNiB6Ii8+JiN4YTsmI3hhOzxwYXRoIGlkPSJwYXRoODI4NjUiIGlua3NjYXBlOmNvbm5lY3Rvci1jdXJ2YXR1cmU9IjAiIHN0eWxlPSJmaWxsOiM1OWI0ZDkiIGQ9Im0gNTAuMTUsMzguOTMgYyAtNS44MiwwIC0xMC41NSw0LjczIC0xMC41NSwxMC41NSAwLDUuODIgNC43MywxMC41NSAxMC41NSwxMC41NSA1LjgxLDAgMTAuNTUsLTQuNzMgMTAuNTUsLTEwLjU1IDAsLTUuODIgLTQuNzQsLTEwLjU1IC0xMC41NSwtMTAuNTUgeiIvPiYjeGE7JiN4YTs8cGF0aCBpZD0icGF0aDgyODczIiBpbmtzY2FwZTpjb25uZWN0b3ItY3VydmF0dXJlPSIwIiBzdHlsZT0iZmlsbDojZmZmZmZmO2ZpbGwtb3BhY2l0eTowLjE1IiBkPSJNIDU2LjcsMi43MiBDIDU0Ljk1LDAuOTcgNTIuNjMsMCA1MC4xNSwwIDQ3LjY5LDAgNDUuMzYsMC45NyA0My42MSwyLjcyIEwgMi43MSw0My42MiBDIDAuOTksNDUuMzQgMCw0Ny43MiAwLDUwLjE2IDAsNTIuNTkgMC45OSw1NC45OCAyLjcxLDU2LjcgTCAyNS44Nyw3OS44NiA2OS40MywxNS40NSBaIi8+JiN4YTs8L3N2Zz4=;fillColor=#4D9900;" parent="1" vertex="1">
          <mxGeometry x="552.5" y="447.75" width="61" height="61" as="geometry" />
        </mxCell>
        <mxCell id="RLjyjs_sm2IHfBNOWAbh-50" value="Load Balancer" style="shape=image;verticalLabelPosition=bottom;labelBackgroundColor=#F5F5F5;verticalAlign=top;aspect=fixed;imageAspect=0;image=data:image/svg+xml,PHN2ZyB4bWxuczpkYz0iaHR0cDovL3B1cmwub3JnL2RjL2VsZW1lbnRzLzEuMS8iIHhtbG5zOmNjPSJodHRwOi8vY3JlYXRpdmVjb21tb25zLm9yZy9ucyMiIHhtbG5zOnJkZj0iaHR0cDovL3d3dy53My5vcmcvMTk5OS8wMi8yMi1yZGYtc3ludGF4LW5zIyIgeG1sbnM6c3ZnPSJodHRwOi8vd3d3LnczLm9yZy8yMDAwL3N2ZyIgeG1sbnM9Imh0dHA6Ly93d3cudzMub3JnLzIwMDAvc3ZnIiB4bWxuczpzb2RpcG9kaT0iaHR0cDovL3NvZGlwb2RpLnNvdXJjZWZvcmdlLm5ldC9EVEQvc29kaXBvZGktMC5kdGQiIHhtbG5zOmlua3NjYXBlPSJodHRwOi8vd3d3Lmlua3NjYXBlLm9yZy9uYW1lc3BhY2VzL2lua3NjYXBlIiB2ZXJzaW9uPSIxLjEiIGlkPSJzdmc4Mjg3OSIgaW5rc2NhcGU6dmVyc2lvbj0iMC45Mi4zICgyNDA1NTQ2LCAyMDE4LTAzLTExKSIgc29kaXBvZGk6ZG9jbmFtZT0ibG9hZF9iYWxhbmNlci5zdmciIHg9IjBweCIgeT0iMHB4IiB2aWV3Qm94PSIwIDAgMTAwLjMxIDEwMC4zMSIgeG1sOnNwYWNlPSJwcmVzZXJ2ZSIgd2lkdGg9IjEwMC4zMSIgaGVpZ2h0PSIxMDAuMzEiPjxtZXRhZGF0YSBpZD0ibWV0YWRhdGEyNDEyIj48cmRmOlJERj48Y2M6V29yayByZGY6YWJvdXQ9IiI+PGRjOmZvcm1hdD5pbWFnZS9zdmcreG1sPC9kYzpmb3JtYXQ+PGRjOnR5cGUgcmRmOnJlc291cmNlPSJodHRwOi8vcHVybC5vcmcvZGMvZGNtaXR5cGUvU3RpbGxJbWFnZSIvPjxkYzp0aXRsZS8+PC9jYzpXb3JrPjwvcmRmOlJERj48L21ldGFkYXRhPjxkZWZzIGlkPSJkZWZzMjQxMCIvPiYjeGE7PGZpbHRlciBpZD0iZmlsdGVyXzIiPiYjeGE7CTxmZUdhdXNzaWFuQmx1ciBpZD0iZmVHYXVzc2lhbkJsdXI4MjgzNiIgc3RkRGV2aWF0aW9uPSIyIi8+JiN4YTs8L2ZpbHRlcj4mI3hhOzxzb2RpcG9kaTpuYW1lZHZpZXcgYm9yZGVyY29sb3I9IiM2NjY2NjYiIGJvcmRlcm9wYWNpdHk9IjEiIGZpdC1tYXJnaW4tYm90dG9tPSIwIiBmaXQtbWFyZ2luLWxlZnQ9IjAiIGZpdC1tYXJnaW4tcmlnaHQ9IjAiIGZpdC1tYXJnaW4tdG9wPSIwIiBncmlkdG9sZXJhbmNlPSIxMCIgZ3VpZGV0b2xlcmFuY2U9IjEwIiBpZD0ibmFtZWR2aWV3ODI4ODEiIGlua3NjYXBlOmN1cnJlbnQtbGF5ZXI9InN2ZzgyODc5IiBpbmtzY2FwZTpjeD0iLTM2LjI2NDEyMyIgaW5rc2NhcGU6Y3k9IjQzLjM4OTQ1NSIgaW5rc2NhcGU6cGFnZW9wYWNpdHk9IjAiIGlua3NjYXBlOnBhZ2VzaGFkb3c9IjIiIGlua3NjYXBlOndpbmRvdy1oZWlnaHQ9IjEwMTciIGlua3NjYXBlOndpbmRvdy1tYXhpbWl6ZWQ9IjEiIGlua3NjYXBlOndpbmRvdy13aWR0aD0iMTkyMCIgaW5rc2NhcGU6d2luZG93LXg9Ii04IiBpbmtzY2FwZTp3aW5kb3cteT0iLTgiIGlua3NjYXBlOnpvb209IjUuMjEwODU3NiIgb2JqZWN0dG9sZXJhbmNlPSIxMCIgcGFnZWNvbG9yPSIjZmZmZmZmIiBzaG93Z3JpZD0iZmFsc2UiPiYjeGE7CTwvc29kaXBvZGk6bmFtZWR2aWV3PiYjeGE7JiN4YTs8cGF0aCBpZD0icGF0aDgyODQ5IiBpbmtzY2FwZTpjb25uZWN0b3ItY3VydmF0dXJlPSIwIiBzdHlsZT0iZmlsbDojN2ZiYTAwIiBkPSJtIDUwLjE1LDEwMC4zMSBjIC0yLjQ3LDAgLTQuNzksLTAuOTcgLTYuNTQsLTIuNzEgTCAyLjcxLDU2LjY5IEMgMC45OSw1NC45NyAwLDUyLjU5IDAsNTAuMTUgMCw0Ny43MiAwLjk5LDQ1LjMzIDIuNzEsNDMuNjEgTCA0My42MSwyLjcxIEMgNDUuMzYsMC45NiA0Ny42OCwwIDUwLjE1LDAgYyAyLjQ3LDAgNC44LDAuOTYgNi41NSwyLjcxIGwgNDAuODksNDAuOSBjIDEuNzUsMS43NCAyLjcyLDQuMDcgMi43Miw2LjU0IDAsMi40OCAtMC45Nyw0LjggLTIuNzIsNi41NSBMIDU2LjcsOTcuNiBjIC0xLjc1LDEuNzQgLTQuMDgsMi43MSAtNi41NSwyLjcxIHoiLz4mI3hhOyYjeGE7PHBhdGggaWQ9InBhdGg4Mjg1NyIgaW5rc2NhcGU6Y29ubmVjdG9yLWN1cnZhdHVyZT0iMCIgc3R5bGU9ImZpbGw6I2ZmZmZmZiIgZD0iTSA5MS41LDQ5LjQ4IDc4LjI0LDM2LjIxIHYgOS4zNyBMIDY0LjE2LDQ1LjU3IEMgNjIuOCw0MC43MiA1OSwzNi44OCA1NC4xNiwzNS41IFYgMjIuMDcgaCA5LjI2IEwgNTAuMTUsOC44MSAzNi44OSwyMi4wNyBoIDkuMjUgdiAxMy40MiBjIC00LjgzLDEuMzkgLTguNjMsNS4yMSAtOS45OSwxMC4wNSBMIDIyLjA3LDQ1LjUzIFYgMzYuMjYgTCA4LjgsNDkuNTMgMjIuMDcsNjIuNzkgdiAtOS4zNiBsIDE0LjA4LDAuMDEgYyAxLjM3LDQuODMgNS4xNyw4LjY0IDkuOTksMTAuMDIgdiA5LjMxIGMgLTIuMDEsMS40NiAtNS4wNyw0LjUzIC01LjA3LDguMSAwLDQuOTggNC4wOCw5LjAzIDkuMDUsOS4wMyA0Ljk4LDAgOS4wNSwtNC4wNSA5LjA1LC05LjAzIDAsLTMuNTMgLTMsLTYuNTcgLTUuMDEsLTguMDUgdiAtOS4zNiBjIDQuODIsLTEuMzggOC42MSwtNS4xOCA5Ljk4LC05Ljk5IGwgMTQuMSwwLjAxIHYgOS4yNiB6Ii8+JiN4YTsmI3hhOzxwYXRoIGlkPSJwYXRoODI4NjUiIGlua3NjYXBlOmNvbm5lY3Rvci1jdXJ2YXR1cmU9IjAiIHN0eWxlPSJmaWxsOiM1OWI0ZDkiIGQ9Im0gNTAuMTUsMzguOTMgYyAtNS44MiwwIC0xMC41NSw0LjczIC0xMC41NSwxMC41NSAwLDUuODIgNC43MywxMC41NSAxMC41NSwxMC41NSA1LjgxLDAgMTAuNTUsLTQuNzMgMTAuNTUsLTEwLjU1IDAsLTUuODIgLTQuNzQsLTEwLjU1IC0xMC41NSwtMTAuNTUgeiIvPiYjeGE7JiN4YTs8cGF0aCBpZD0icGF0aDgyODczIiBpbmtzY2FwZTpjb25uZWN0b3ItY3VydmF0dXJlPSIwIiBzdHlsZT0iZmlsbDojZmZmZmZmO2ZpbGwtb3BhY2l0eTowLjE1IiBkPSJNIDU2LjcsMi43MiBDIDU0Ljk1LDAuOTcgNTIuNjMsMCA1MC4xNSwwIDQ3LjY5LDAgNDUuMzYsMC45NyA0My42MSwyLjcyIEwgMi43MSw0My42MiBDIDAuOTksNDUuMzQgMCw0Ny43MiAwLDUwLjE2IDAsNTIuNTkgMC45OSw1NC45OCAyLjcxLDU2LjcgTCAyNS44Nyw3OS44NiA2OS40MywxNS40NSBaIi8+JiN4YTs8L3N2Zz4=;fillColor=#4D9900;" parent="1" vertex="1">
          <mxGeometry x="1136.5000000000005" y="447.25" width="61" height="61" as="geometry" />
        </mxCell>
        <mxCell id="RLjyjs_sm2IHfBNOWAbh-58" value="Virtual Network" style="aspect=fixed;html=1;perimeter=none;align=center;shadow=0;dashed=0;image;fontSize=12;image=img/lib/mscae/Virtual_Network.svg;labelBackgroundColor=none;fillColor=#4D9900;" parent="1" vertex="1">
          <mxGeometry x="1328.9999999999995" y="463.5" width="50" height="28.499999999999996" as="geometry" />
        </mxCell>
        <mxCell id="RLjyjs_sm2IHfBNOWAbh-64" value="Office 365" style="shadow=0;dashed=0;html=1;strokeColor=none;labelPosition=center;verticalLabelPosition=bottom;verticalAlign=top;align=center;shape=mxgraph.mscae.cloud.cloud_office_365;fillColor=#DF3C01;labelBackgroundColor=#ffffff;" parent="1" vertex="1">
          <mxGeometry x="563.5" y="968" width="64" height="40" as="geometry" />
        </mxCell>
        <mxCell id="RLjyjs_sm2IHfBNOWAbh-65" value="Synchronize&lt;br&gt;Identities" style="shadow=0;dashed=0;html=1;strokeColor=none;labelPosition=center;verticalLabelPosition=bottom;verticalAlign=top;align=center;shape=mxgraph.mscae.general.continuous_cycle;fillColor=#7D7D7D;pointerEvents=1;labelBackgroundColor=#ffffff;" parent="1" vertex="1">
          <mxGeometry x="718" y="963" width="48" height="50" as="geometry" />
        </mxCell>
        <mxCell id="RLjyjs_sm2IHfBNOWAbh-66" value="Active&lt;br&gt;Directory" style="aspect=fixed;html=1;perimeter=none;align=center;shadow=0;dashed=0;image;fontSize=12;image=img/lib/mscae/Active_Directory.svg;labelBackgroundColor=#ffffff;fillColor=#4D9900;" parent="1" vertex="1">
          <mxGeometry x="717" y="1088" width="50" height="50" as="geometry" />
        </mxCell>
        <mxCell id="RLjyjs_sm2IHfBNOWAbh-68" value="Azure Access&lt;br&gt;Control Service" style="pointerEvents=1;shadow=0;dashed=0;html=1;strokeColor=none;labelPosition=center;verticalLabelPosition=bottom;verticalAlign=top;align=center;shape=mxgraph.azure.access_control;fillColor=#0078D7;labelBackgroundColor=#ffffff;" parent="1" vertex="1">
          <mxGeometry x="942.4999999999998" y="1088" width="50" height="50" as="geometry" />
        </mxCell>
        <mxCell id="RLjyjs_sm2IHfBNOWAbh-70" value="" style="group" parent="1" vertex="1" connectable="0">
          <mxGeometry x="928.9999999999999" y="580" width="77" height="63" as="geometry" />
        </mxCell>
        <mxCell id="RLjyjs_sm2IHfBNOWAbh-51" value="" style="aspect=fixed;html=1;perimeter=none;align=center;shadow=0;dashed=0;image;fontSize=12;image=img/lib/mscae/Virtual_Machine.svg;labelBackgroundColor=#ffffff;fillColor=#4D9900;part=1;" parent="RLjyjs_sm2IHfBNOWAbh-70" vertex="1">
          <mxGeometry width="60" height="55" as="geometry" />
        </mxCell>
        <mxCell id="RLjyjs_sm2IHfBNOWAbh-59" value="" style="aspect=fixed;html=1;perimeter=none;align=center;shadow=0;dashed=0;image;fontSize=12;image=img/lib/mscae/SQL_Database_generic.svg;labelBackgroundColor=#ffffff;fillColor=#4D9900;part=1;" parent="RLjyjs_sm2IHfBNOWAbh-70" vertex="1">
          <mxGeometry x="51" y="28" width="26" height="35" as="geometry" />
        </mxCell>
        <mxCell id="RLjyjs_sm2IHfBNOWAbh-71" value="" style="group" parent="1" vertex="1" connectable="0">
          <mxGeometry x="1137.0000000000005" y="582.5" width="74" height="58" as="geometry" />
        </mxCell>
        <mxCell id="RLjyjs_sm2IHfBNOWAbh-52" value="" style="aspect=fixed;html=1;perimeter=none;align=center;shadow=0;dashed=0;image;fontSize=12;image=img/lib/mscae/Virtual_Machine.svg;labelBackgroundColor=#ffffff;fillColor=#4D9900;part=1;" parent="RLjyjs_sm2IHfBNOWAbh-71" vertex="1">
          <mxGeometry width="60" height="55" as="geometry" />
        </mxCell>
        <mxCell id="RLjyjs_sm2IHfBNOWAbh-63" value="" style="shadow=0;dashed=0;strokeColor=none;html=1;labelPosition=center;verticalLabelPosition=bottom;verticalAlign=top;align=center;shape=mxgraph.mscae.other.windows;fillColor=#00188D;labelBackgroundColor=#ffffff;aspect=fixed;part=1;" parent="RLjyjs_sm2IHfBNOWAbh-71" vertex="1">
          <mxGeometry x="46" y="29" width="28" height="29" as="geometry" />
        </mxCell>
        <mxCell id="RLjyjs_sm2IHfBNOWAbh-81" value="" style="group" parent="1" vertex="1" connectable="0">
          <mxGeometry x="1315.4999999999995" y="580" width="77" height="63" as="geometry" />
        </mxCell>
        <mxCell id="RLjyjs_sm2IHfBNOWAbh-82" value="" style="aspect=fixed;html=1;perimeter=none;align=center;shadow=0;dashed=0;image;fontSize=12;image=img/lib/mscae/Virtual_Machine.svg;labelBackgroundColor=#ffffff;fillColor=#4D9900;part=1;" parent="RLjyjs_sm2IHfBNOWAbh-81" vertex="1">
          <mxGeometry width="60" height="55" as="geometry" />
        </mxCell>
        <mxCell id="RLjyjs_sm2IHfBNOWAbh-83" value="" style="aspect=fixed;html=1;perimeter=none;align=center;shadow=0;dashed=0;image;fontSize=12;image=img/lib/mscae/SQL_Database_generic.svg;labelBackgroundColor=#ffffff;fillColor=#4D9900;part=1;" parent="RLjyjs_sm2IHfBNOWAbh-81" vertex="1">
          <mxGeometry x="51" y="28" width="26" height="35" as="geometry" />
        </mxCell>
        <mxCell id="RLjyjs_sm2IHfBNOWAbh-85" value="" style="group" parent="1" vertex="1" connectable="0">
          <mxGeometry x="759.5" y="582.5" width="85" height="58" as="geometry" />
        </mxCell>
        <mxCell id="RLjyjs_sm2IHfBNOWAbh-86" value="" style="aspect=fixed;html=1;perimeter=none;align=center;shadow=0;dashed=0;image;fontSize=12;image=img/lib/mscae/Virtual_Machine.svg;labelBackgroundColor=#ffffff;fillColor=#4D9900;part=1;" parent="RLjyjs_sm2IHfBNOWAbh-85" vertex="1">
          <mxGeometry width="60" height="55" as="geometry" />
        </mxCell>
        <mxCell id="RLjyjs_sm2IHfBNOWAbh-87" value="" style="shadow=0;dashed=0;strokeColor=none;html=1;labelPosition=center;verticalLabelPosition=bottom;verticalAlign=top;align=center;shape=mxgraph.mscae.other.sharepoint;fillColor=#2471BA;labelBackgroundColor=#ffffff;aspect=fixed;part=1;" parent="RLjyjs_sm2IHfBNOWAbh-85" vertex="1">
          <mxGeometry x="54" y="28" width="31" height="30" as="geometry" />
        </mxCell>
        <mxCell id="RLjyjs_sm2IHfBNOWAbh-88" value="" style="group" parent="1" vertex="1" connectable="0">
          <mxGeometry x="553" y="771" width="85" height="58" as="geometry" />
        </mxCell>
        <mxCell id="RLjyjs_sm2IHfBNOWAbh-89" value="" style="aspect=fixed;html=1;perimeter=none;align=center;shadow=0;dashed=0;image;fontSize=12;image=img/lib/mscae/Virtual_Machine.svg;labelBackgroundColor=#ffffff;fillColor=#4D9900;part=1;" parent="RLjyjs_sm2IHfBNOWAbh-88" vertex="1">
          <mxGeometry width="60" height="55" as="geometry" />
        </mxCell>
        <mxCell id="RLjyjs_sm2IHfBNOWAbh-90" value="" style="shadow=0;dashed=0;strokeColor=none;html=1;labelPosition=center;verticalLabelPosition=bottom;verticalAlign=top;align=center;shape=mxgraph.mscae.other.sharepoint;fillColor=#2471BA;labelBackgroundColor=#ffffff;aspect=fixed;part=1;" parent="RLjyjs_sm2IHfBNOWAbh-88" vertex="1">
          <mxGeometry x="54" y="28" width="31" height="30" as="geometry" />
        </mxCell>
        <mxCell id="RLjyjs_sm2IHfBNOWAbh-91" value="" style="group" parent="1" vertex="1" connectable="0">
          <mxGeometry x="759.5000000000002" y="771" width="85" height="58" as="geometry" />
        </mxCell>
        <mxCell id="RLjyjs_sm2IHfBNOWAbh-92" value="" style="aspect=fixed;html=1;perimeter=none;align=center;shadow=0;dashed=0;image;fontSize=12;image=img/lib/mscae/Virtual_Machine.svg;labelBackgroundColor=#ffffff;fillColor=#4D9900;part=1;" parent="RLjyjs_sm2IHfBNOWAbh-91" vertex="1">
          <mxGeometry width="60" height="55" as="geometry" />
        </mxCell>
        <mxCell id="RLjyjs_sm2IHfBNOWAbh-93" value="" style="shadow=0;dashed=0;strokeColor=none;html=1;labelPosition=center;verticalLabelPosition=bottom;verticalAlign=top;align=center;shape=mxgraph.mscae.other.sharepoint;fillColor=#2471BA;labelBackgroundColor=#ffffff;aspect=fixed;part=1;" parent="RLjyjs_sm2IHfBNOWAbh-91" vertex="1">
          <mxGeometry x="54" y="28" width="31" height="30" as="geometry" />
        </mxCell>
        <mxCell id="RLjyjs_sm2IHfBNOWAbh-94" value="" style="group" parent="1" vertex="1" connectable="0">
          <mxGeometry x="930.4999999999994" y="771" width="74" height="58" as="geometry" />
        </mxCell>
        <mxCell id="RLjyjs_sm2IHfBNOWAbh-95" value="" style="aspect=fixed;html=1;perimeter=none;align=center;shadow=0;dashed=0;image;fontSize=12;image=img/lib/mscae/Virtual_Machine.svg;labelBackgroundColor=#ffffff;fillColor=#4D9900;part=1;" parent="RLjyjs_sm2IHfBNOWAbh-94" vertex="1">
          <mxGeometry width="60" height="55" as="geometry" />
        </mxCell>
        <mxCell id="RLjyjs_sm2IHfBNOWAbh-96" value="" style="shadow=0;dashed=0;strokeColor=none;html=1;labelPosition=center;verticalLabelPosition=bottom;verticalAlign=top;align=center;shape=mxgraph.mscae.other.windows;fillColor=#00188D;labelBackgroundColor=#ffffff;aspect=fixed;part=1;" parent="RLjyjs_sm2IHfBNOWAbh-94" vertex="1">
          <mxGeometry x="46" y="29" width="28" height="29" as="geometry" />
        </mxCell>
        <mxCell id="RLjyjs_sm2IHfBNOWAbh-97" value="" style="group" parent="1" vertex="1" connectable="0">
          <mxGeometry x="1316.9999999999998" y="771" width="74" height="58" as="geometry" />
        </mxCell>
        <mxCell id="RLjyjs_sm2IHfBNOWAbh-98" value="" style="aspect=fixed;html=1;perimeter=none;align=center;shadow=0;dashed=0;image;fontSize=12;image=img/lib/mscae/Virtual_Machine.svg;labelBackgroundColor=#ffffff;fillColor=#4D9900;part=1;" parent="RLjyjs_sm2IHfBNOWAbh-97" vertex="1">
          <mxGeometry width="60" height="55" as="geometry" />
        </mxCell>
        <mxCell id="RLjyjs_sm2IHfBNOWAbh-99" value="" style="shadow=0;dashed=0;strokeColor=none;html=1;labelPosition=center;verticalLabelPosition=bottom;verticalAlign=top;align=center;shape=mxgraph.mscae.other.windows;fillColor=#00188D;labelBackgroundColor=#ffffff;aspect=fixed;part=1;" parent="RLjyjs_sm2IHfBNOWAbh-97" vertex="1">
          <mxGeometry x="46" y="29" width="28" height="29" as="geometry" />
        </mxCell>
        <mxCell id="RLjyjs_sm2IHfBNOWAbh-100" value="" style="group" parent="1" vertex="1" connectable="0">
          <mxGeometry x="930.4999999999994" y="959" width="74" height="65.49999999999994" as="geometry" />
        </mxCell>
        <mxCell id="RLjyjs_sm2IHfBNOWAbh-101" value="Azure Active&lt;br&gt;Directory Connect" style="aspect=fixed;html=1;perimeter=none;align=center;shadow=0;dashed=0;image;fontSize=12;image=img/lib/mscae/Virtual_Machine.svg;labelBackgroundColor=#ffffff;fillColor=#4D9900;part=1;" parent="RLjyjs_sm2IHfBNOWAbh-100" vertex="1">
          <mxGeometry y="10.499999999999947" width="60" height="55" as="geometry" />
        </mxCell>
        <mxCell id="RLjyjs_sm2IHfBNOWAbh-102" value="" style="shadow=0;dashed=0;strokeColor=none;html=1;labelPosition=center;verticalLabelPosition=bottom;verticalAlign=top;align=center;shape=mxgraph.mscae.other.windows;fillColor=#00188D;labelBackgroundColor=#ffffff;aspect=fixed;part=1;" parent="RLjyjs_sm2IHfBNOWAbh-100" vertex="1">
          <mxGeometry x="46" y="23.49999999999984" width="28" height="29" as="geometry" />
        </mxCell>
        <mxCell id="RLjyjs_sm2IHfBNOWAbh-103" value="Active Directory" style="group;labelPosition=center;verticalLabelPosition=bottom;align=center;verticalAlign=top;" parent="1" vertex="1" connectable="0">
          <mxGeometry x="1088.5000000000005" y="959" width="74" height="70.49999999999994" as="geometry" />
        </mxCell>
        <mxCell id="RLjyjs_sm2IHfBNOWAbh-104" value="" style="aspect=fixed;html=1;perimeter=none;align=center;shadow=0;dashed=0;image;fontSize=12;image=img/lib/mscae/Virtual_Machine.svg;labelBackgroundColor=#ffffff;fillColor=#4D9900;part=1;" parent="RLjyjs_sm2IHfBNOWAbh-103" vertex="1">
          <mxGeometry y="15.499999999999947" width="60" height="55" as="geometry" />
        </mxCell>
        <mxCell id="RLjyjs_sm2IHfBNOWAbh-105" value="" style="shadow=0;dashed=0;strokeColor=none;html=1;labelPosition=center;verticalLabelPosition=bottom;verticalAlign=top;align=center;shape=mxgraph.mscae.other.windows;fillColor=#00188D;labelBackgroundColor=#ffffff;aspect=fixed;part=1;" parent="RLjyjs_sm2IHfBNOWAbh-103" vertex="1">
          <mxGeometry x="46" y="28.49999999999984" width="28" height="29" as="geometry" />
        </mxCell>
        <mxCell id="RLjyjs_sm2IHfBNOWAbh-106" value="Active Directory&#xa;with ADFS" style="group;labelPosition=center;verticalLabelPosition=bottom;align=center;verticalAlign=top;spacingTop=3;labelBackgroundColor=#ffffff;" parent="1" vertex="1" connectable="0">
          <mxGeometry x="1316.9999999999998" y="959" width="74" height="67.99999999999994" as="geometry" />
        </mxCell>
        <mxCell id="RLjyjs_sm2IHfBNOWAbh-107" value="" style="aspect=fixed;html=1;perimeter=none;align=center;shadow=0;dashed=0;image;fontSize=12;image=img/lib/mscae/Virtual_Machine.svg;labelBackgroundColor=#ffffff;fillColor=#4D9900;part=1;" parent="RLjyjs_sm2IHfBNOWAbh-106" vertex="1">
          <mxGeometry y="12.999999999999947" width="60" height="55" as="geometry" />
        </mxCell>
        <mxCell id="RLjyjs_sm2IHfBNOWAbh-108" value="" style="shadow=0;dashed=0;strokeColor=none;html=1;labelPosition=center;verticalLabelPosition=bottom;verticalAlign=top;align=center;shape=mxgraph.mscae.other.windows;fillColor=#00188D;labelBackgroundColor=#ffffff;aspect=fixed;part=1;" parent="RLjyjs_sm2IHfBNOWAbh-106" vertex="1">
          <mxGeometry x="46" y="25.99999999999984" width="28" height="29" as="geometry" />
        </mxCell>
        <mxCell id="RLjyjs_sm2IHfBNOWAbh-69" value="" style="group" parent="1" vertex="1" connectable="0">
          <mxGeometry x="553" y="582.5" width="85" height="58" as="geometry" />
        </mxCell>
        <mxCell id="RLjyjs_sm2IHfBNOWAbh-47" value="" style="aspect=fixed;html=1;perimeter=none;align=center;shadow=0;dashed=0;image;fontSize=12;image=img/lib/mscae/Virtual_Machine.svg;labelBackgroundColor=#ffffff;fillColor=#4D9900;part=1;" parent="RLjyjs_sm2IHfBNOWAbh-69" vertex="1">
          <mxGeometry width="60" height="55" as="geometry" />
        </mxCell>
        <mxCell id="RLjyjs_sm2IHfBNOWAbh-60" value="" style="shadow=0;dashed=0;strokeColor=none;html=1;labelPosition=center;verticalLabelPosition=bottom;verticalAlign=top;align=center;shape=mxgraph.mscae.other.sharepoint;fillColor=#2471BA;labelBackgroundColor=#ffffff;aspect=fixed;part=1;" parent="RLjyjs_sm2IHfBNOWAbh-69" vertex="1">
          <mxGeometry x="54" y="28" width="31" height="30" as="geometry" />
        </mxCell>
        <mxCell id="RLjyjs_sm2IHfBNOWAbh-110" style="edgeStyle=elbowEdgeStyle;rounded=0;orthogonalLoop=1;jettySize=auto;elbow=vertical;html=1;exitX=0.25;exitY=0;exitDx=0;exitDy=0;strokeColor=#808080;" parent="RLjyjs_sm2IHfBNOWAbh-69" source="RLjyjs_sm2IHfBNOWAbh-47" target="RLjyjs_sm2IHfBNOWAbh-47" edge="1">
          <mxGeometry relative="1" as="geometry" />
        </mxCell>
        <mxCell id="RLjyjs_sm2IHfBNOWAbh-114" value="Web Front End&lt;br&gt;with Distributed&lt;br&gt;Cache" style="text;html=1;resizable=0;points=[];autosize=1;align=center;verticalAlign=top;spacingTop=-4;" parent="1" vertex="1">
          <mxGeometry x="640" y="588" width="100" height="40" as="geometry" />
        </mxCell>
        <mxCell id="RLjyjs_sm2IHfBNOWAbh-115" value="Application&lt;br&gt;with Search" style="text;html=1;resizable=0;points=[];autosize=1;align=center;verticalAlign=top;spacingTop=-4;" parent="1" vertex="1">
          <mxGeometry x="650" y="779" width="80" height="30" as="geometry" />
        </mxCell>
        <mxCell id="RLjyjs_sm2IHfBNOWAbh-116" value="Availability Set" style="text;html=1;resizable=0;points=[];autosize=1;align=center;verticalAlign=top;spacingTop=-4;" parent="1" vertex="1">
          <mxGeometry x="645" y="859" width="90" height="20" as="geometry" />
        </mxCell>
        <mxCell id="RLjyjs_sm2IHfBNOWAbh-117" value="SQL-Always On with&lt;br&gt;Windows Server as Windows" style="text;html=1;resizable=0;points=[];autosize=1;align=center;verticalAlign=top;spacingTop=-4;" parent="1" vertex="1">
          <mxGeometry x="1089" y="643" width="170" height="30" as="geometry" />
        </mxCell>
        <mxCell id="RLjyjs_sm2IHfBNOWAbh-118" value="Availability Set" style="text;html=1;resizable=0;points=[];autosize=1;align=center;verticalAlign=top;spacingTop=-4;" parent="1" vertex="1">
          <mxGeometry x="1111" y="718" width="90" height="20" as="geometry" />
        </mxCell>
        <mxCell id="RLjyjs_sm2IHfBNOWAbh-119" value="Availability Set" style="text;html=1;resizable=0;points=[];autosize=1;align=center;verticalAlign=top;spacingTop=-4;" parent="1" vertex="1">
          <mxGeometry x="1111" y="859" width="90" height="20" as="geometry" />
        </mxCell>
        <mxCell id="RLjyjs_sm2IHfBNOWAbh-120" value="Active Directory" style="text;html=1;resizable=0;points=[];autosize=1;align=center;verticalAlign=top;spacingTop=-4;" parent="1" vertex="1">
          <mxGeometry x="1111" y="805" width="100" height="20" as="geometry" />
        </mxCell>
        <mxCell id="RLjyjs_sm2IHfBNOWAbh-121" value="Server-to-Server Trust" style="text;html=1;resizable=0;points=[];autosize=1;align=left;verticalAlign=top;spacingTop=-4;" parent="1" vertex="1">
          <mxGeometry x="1129" y="1088" width="130" height="20" as="geometry" />
        </mxCell>
        <mxCell id="RLjyjs_sm2IHfBNOWAbh-122" value="9" style="ellipse;whiteSpace=wrap;html=1;aspect=fixed;fillColor=#4D9900;strokeColor=none;labelBackgroundColor=none;" parent="1" vertex="1">
          <mxGeometry x="315" y="441.5" width="23" height="23" as="geometry" />
        </mxCell>
        <mxCell id="RLjyjs_sm2IHfBNOWAbh-123" value="1" style="ellipse;whiteSpace=wrap;html=1;aspect=fixed;fillColor=#4D9900;strokeColor=none;labelBackgroundColor=none;" parent="1" vertex="1">
          <mxGeometry x="626" y="436" width="23" height="23" as="geometry" />
        </mxCell>
        <mxCell id="RLjyjs_sm2IHfBNOWAbh-124" value="8" style="ellipse;whiteSpace=wrap;html=1;aspect=fixed;fillColor=#4D9900;strokeColor=none;labelBackgroundColor=none;" parent="1" vertex="1">
          <mxGeometry x="449" y="755.5" width="23" height="23" as="geometry" />
        </mxCell>
        <mxCell id="RLjyjs_sm2IHfBNOWAbh-125" value="5" style="ellipse;whiteSpace=wrap;html=1;aspect=fixed;fillColor=#4D9900;strokeColor=none;labelBackgroundColor=none;" parent="1" vertex="1">
          <mxGeometry x="679" y="698" width="23" height="23" as="geometry" />
        </mxCell>
        <mxCell id="RLjyjs_sm2IHfBNOWAbh-126" value="Availability Set" style="text;html=1;resizable=0;points=[];autosize=1;align=center;verticalAlign=top;spacingTop=-4;" parent="1" vertex="1">
          <mxGeometry x="645" y="678" width="90" height="20" as="geometry" />
        </mxCell>
        <mxCell id="RLjyjs_sm2IHfBNOWAbh-127" value="10" style="ellipse;whiteSpace=wrap;html=1;aspect=fixed;fillColor=#4D9900;strokeColor=none;labelBackgroundColor=none;" parent="1" vertex="1">
          <mxGeometry x="627.5" y="951.5" width="23" height="23" as="geometry" />
        </mxCell>
        <mxCell id="RLjyjs_sm2IHfBNOWAbh-128" value="6" style="ellipse;whiteSpace=wrap;html=1;aspect=fixed;fillColor=#4D9900;strokeColor=none;labelBackgroundColor=none;" parent="1" vertex="1">
          <mxGeometry x="1003" y="951.5" width="23" height="23" as="geometry" />
        </mxCell>
        <mxCell id="RLjyjs_sm2IHfBNOWAbh-129" value="7" style="ellipse;whiteSpace=wrap;html=1;aspect=fixed;fillColor=#4D9900;strokeColor=none;labelBackgroundColor=none;" parent="1" vertex="1">
          <mxGeometry x="1392.5" y="951.5" width="23" height="23" as="geometry" />
        </mxCell>
        <mxCell id="RLjyjs_sm2IHfBNOWAbh-130" value="3" style="ellipse;whiteSpace=wrap;html=1;aspect=fixed;fillColor=#4D9900;strokeColor=none;labelBackgroundColor=none;" parent="1" vertex="1">
          <mxGeometry x="1004.5" y="745" width="23" height="23" as="geometry" />
        </mxCell>
        <mxCell id="RLjyjs_sm2IHfBNOWAbh-131" value="4" style="ellipse;whiteSpace=wrap;html=1;aspect=fixed;fillColor=#4D9900;strokeColor=none;labelBackgroundColor=none;" parent="1" vertex="1">
          <mxGeometry x="1003" y="559.5" width="23" height="23" as="geometry" />
        </mxCell>
        <mxCell id="RLjyjs_sm2IHfBNOWAbh-132" value="2" style="ellipse;whiteSpace=wrap;html=1;aspect=fixed;fillColor=#4D9900;strokeColor=none;labelBackgroundColor=none;" parent="1" vertex="1">
          <mxGeometry x="1375.5" y="447.5" width="23" height="23" as="geometry" />
        </mxCell>
        <mxCell id="8DieQMmsyX2rE4fabxvS-1" value="" style="rounded=0;whiteSpace=wrap;html=1;fillColor=#EAEDED;fontSize=22;fontColor=#FFFFFF;strokeColor=none;labelBackgroundColor=none;" parent="1" vertex="1">
          <mxGeometry x="1573.5" y="222" width="539" height="1209" as="geometry" />
        </mxCell>
        <mxCell id="8DieQMmsyX2rE4fabxvS-2" value="&lt;span&gt;Lorem ipsum dolor sit amet, consectetur adipiscing elit, sed do eiusmod tempor incididunt ut labore et dolore magna aliqua. Ut enim ad minim veniam, quis nostrud exercitation ullamco laboris nisi ut aliquip ex ea commodo consequat. Duis aute irure dolor in reprehenderit in voluptate velit esse cillum dolore eu fugiat nulla pariatur. Excepteur sint occaecat cupidatat non proident, sunt in culpa qui officia deserunt mollit anim id est laborum.&lt;/span&gt;&lt;br&gt;" style="text;html=1;align=left;verticalAlign=top;spacingTop=-4;fontSize=14;labelBackgroundColor=none;whiteSpace=wrap;" parent="1" vertex="1">
          <mxGeometry x="1643" y="233" width="449" height="118" as="geometry" />
        </mxCell>
        <mxCell id="8DieQMmsyX2rE4fabxvS-3" value="&lt;span&gt;Lorem ipsum dolor sit amet, consectetur adipiscing elit, sed do eiusmod tempor incididunt ut labore et dolore magna aliqua. Ut enim ad minim veniam, quis nostrud exercitation ullamco laboris nisi ut aliquip ex ea commodo consequat. Duis aute irure dolor in reprehenderit in voluptate velit esse cillum dolore eu fugiat nulla pariatur. Excepteur sint occaecat cupidatat non proident, sunt in culpa qui officia deserunt mollit anim id est laborum.&lt;/span&gt;&lt;br&gt;" style="text;html=1;align=left;verticalAlign=top;spacingTop=-4;fontSize=14;labelBackgroundColor=none;whiteSpace=wrap;" parent="1" vertex="1">
          <mxGeometry x="1642" y="356" width="450" height="115" as="geometry" />
        </mxCell>
        <mxCell id="8DieQMmsyX2rE4fabxvS-4" value="&lt;span&gt;Lorem ipsum dolor sit amet, consectetur adipiscing elit, sed do eiusmod tempor incididunt ut labore et dolore magna aliqua. Ut enim ad minim veniam, quis nostrud exercitation ullamco laboris nisi ut aliquip ex ea commodo consequat. Duis aute irure dolor in reprehenderit in voluptate velit esse cillum dolore eu fugiat nulla pariatur. Excepteur sint occaecat cupidatat non proident, sunt in culpa qui officia deserunt mollit anim id est laborum.&lt;/span&gt;&lt;br&gt;" style="text;html=1;align=left;verticalAlign=top;spacingTop=-4;fontSize=14;labelBackgroundColor=none;whiteSpace=wrap;" parent="1" vertex="1">
          <mxGeometry x="1642" y="474" width="450" height="117" as="geometry" />
        </mxCell>
        <mxCell id="8DieQMmsyX2rE4fabxvS-5" value="&lt;span&gt;Lorem ipsum dolor sit amet, consectetur adipiscing elit, sed do eiusmod tempor incididunt ut labore et dolore magna aliqua. Ut enim ad minim veniam, quis nostrud exercitation ullamco laboris nisi ut aliquip ex ea commodo consequat. Duis aute irure dolor in reprehenderit in voluptate velit esse cillum dolore eu fugiat nulla pariatur. Excepteur sint occaecat cupidatat non proident, sunt in culpa qui officia deserunt mollit anim id est laborum.&lt;/span&gt;&lt;br&gt;" style="text;html=1;align=left;verticalAlign=top;spacingTop=-4;fontSize=14;labelBackgroundColor=none;whiteSpace=wrap;" parent="1" vertex="1">
          <mxGeometry x="1642" y="590" width="450" height="121" as="geometry" />
        </mxCell>
        <mxCell id="8DieQMmsyX2rE4fabxvS-6" value="&lt;span&gt;Lorem ipsum dolor sit amet, consectetur adipiscing elit, sed do eiusmod tempor incididunt ut labore et dolore magna aliqua. Ut enim ad minim veniam, quis nostrud exercitation ullamco laboris nisi ut aliquip ex ea commodo consequat. Duis aute irure dolor in reprehenderit in voluptate velit esse cillum dolore eu fugiat nulla pariatur. Excepteur sint occaecat cupidatat non proident, sunt in culpa qui officia deserunt mollit anim id est laborum.&lt;/span&gt;&lt;br&gt;" style="text;html=1;align=left;verticalAlign=top;spacingTop=-4;fontSize=14;labelBackgroundColor=none;whiteSpace=wrap;" parent="1" vertex="1">
          <mxGeometry x="1643" y="707" width="449" height="114" as="geometry" />
        </mxCell>
        <mxCell id="8DieQMmsyX2rE4fabxvS-7" value="&lt;span&gt;Lorem ipsum dolor sit amet, consectetur adipiscing elit, sed do eiusmod tempor incididunt ut labore et dolore magna aliqua. Ut enim ad minim veniam, quis nostrud exercitation ullamco laboris nisi ut aliquip ex ea commodo consequat. Duis aute irure dolor in reprehenderit in voluptate velit esse cillum dolore eu fugiat nulla pariatur. Excepteur sint occaecat cupidatat non proident, sunt in culpa qui officia deserunt mollit anim id est laborum.&lt;/span&gt;&lt;br&gt;" style="text;html=1;align=left;verticalAlign=top;spacingTop=-4;fontSize=14;labelBackgroundColor=none;whiteSpace=wrap;" parent="1" vertex="1">
          <mxGeometry x="1643" y="823" width="450" height="118" as="geometry" />
        </mxCell>
        <mxCell id="8DieQMmsyX2rE4fabxvS-8" value="&lt;span&gt;Lorem ipsum dolor sit amet, consectetur adipiscing elit, sed do eiusmod tempor incididunt ut labore et dolore magna aliqua. Ut enim ad minim veniam, quis nostrud exercitation ullamco laboris nisi ut aliquip ex ea commodo consequat. Duis aute irure dolor in reprehenderit in voluptate velit esse cillum dolore eu fugiat nulla pariatur. Excepteur sint occaecat cupidatat non proident, sunt in culpa qui officia deserunt mollit anim id est laborum.&lt;/span&gt;&lt;br&gt;" style="text;html=1;align=left;verticalAlign=top;spacingTop=-4;fontSize=14;labelBackgroundColor=none;whiteSpace=wrap;" parent="1" vertex="1">
          <mxGeometry x="1643" y="938" width="449" height="113" as="geometry" />
        </mxCell>
        <mxCell id="8DieQMmsyX2rE4fabxvS-9" value="1" style="ellipse;whiteSpace=wrap;html=1;aspect=fixed;fillColor=#4D9900;strokeColor=none;labelBackgroundColor=none;" parent="1" vertex="1">
          <mxGeometry x="1593.5" y="239.5" width="23" height="23" as="geometry" />
        </mxCell>
        <mxCell id="8DieQMmsyX2rE4fabxvS-10" value="2" style="ellipse;whiteSpace=wrap;html=1;aspect=fixed;fillColor=#4D9900;strokeColor=none;labelBackgroundColor=none;" parent="1" vertex="1">
          <mxGeometry x="1593.5" y="360.5" width="23" height="23" as="geometry" />
        </mxCell>
        <mxCell id="8DieQMmsyX2rE4fabxvS-11" value="3" style="ellipse;whiteSpace=wrap;html=1;aspect=fixed;fillColor=#4D9900;strokeColor=none;labelBackgroundColor=none;" parent="1" vertex="1">
          <mxGeometry x="1593.5" y="481.5" width="23" height="23" as="geometry" />
        </mxCell>
        <mxCell id="8DieQMmsyX2rE4fabxvS-12" value="4" style="ellipse;whiteSpace=wrap;html=1;aspect=fixed;fillColor=#4D9900;strokeColor=none;labelBackgroundColor=none;" parent="1" vertex="1">
          <mxGeometry x="1593.4999999999995" y="598.5" width="23" height="23" as="geometry" />
        </mxCell>
        <mxCell id="8DieQMmsyX2rE4fabxvS-13" value="5" style="ellipse;whiteSpace=wrap;html=1;aspect=fixed;fillColor=#4D9900;strokeColor=none;labelBackgroundColor=none;" parent="1" vertex="1">
          <mxGeometry x="1593.4999999999995" y="711" width="23" height="23" as="geometry" />
        </mxCell>
        <mxCell id="8DieQMmsyX2rE4fabxvS-14" value="6" style="ellipse;whiteSpace=wrap;html=1;aspect=fixed;fillColor=#4D9900;strokeColor=none;labelBackgroundColor=none;" parent="1" vertex="1">
          <mxGeometry x="1593.4999999999995" y="832.5" width="23" height="23" as="geometry" />
        </mxCell>
        <mxCell id="8DieQMmsyX2rE4fabxvS-15" value="7" style="ellipse;whiteSpace=wrap;html=1;aspect=fixed;fillColor=#4D9900;strokeColor=none;labelBackgroundColor=none;" parent="1" vertex="1">
          <mxGeometry x="1593.5" y="941" width="23" height="23" as="geometry" />
        </mxCell>
        <mxCell id="8DieQMmsyX2rE4fabxvS-16" value="&lt;span&gt;Lorem ipsum dolor sit amet, consectetur adipiscing elit, sed do eiusmod tempor incididunt ut labore et dolore magna aliqua. Ut enim ad minim veniam, quis nostrud exercitation ullamco laboris nisi ut aliquip ex ea commodo consequat. Duis aute irure dolor in reprehenderit in voluptate velit esse cillum dolore eu fugiat nulla pariatur. Excepteur sint occaecat cupidatat non proident, sunt in culpa qui officia deserunt mollit anim id est laborum.&lt;/span&gt;&lt;br&gt;" style="text;html=1;align=left;verticalAlign=top;spacingTop=-4;fontSize=14;labelBackgroundColor=none;whiteSpace=wrap;" parent="1" vertex="1">
          <mxGeometry x="1644" y="1056.5" width="449" height="113" as="geometry" />
        </mxCell>
        <mxCell id="8DieQMmsyX2rE4fabxvS-17" value="8" style="ellipse;whiteSpace=wrap;html=1;aspect=fixed;fillColor=#4D9900;strokeColor=none;labelBackgroundColor=none;" parent="1" vertex="1">
          <mxGeometry x="1594.5" y="1059.5" width="23" height="23" as="geometry" />
        </mxCell>
        <mxCell id="8DieQMmsyX2rE4fabxvS-18" value="&lt;span&gt;Lorem ipsum dolor sit amet, consectetur adipiscing elit, sed do eiusmod tempor incididunt ut labore et dolore magna aliqua. Ut enim ad minim veniam, quis nostrud exercitation ullamco laboris nisi ut aliquip ex ea commodo consequat. Duis aute irure dolor in reprehenderit in voluptate velit esse cillum dolore eu fugiat nulla pariatur. Excepteur sint occaecat cupidatat non proident, sunt in culpa qui officia deserunt mollit anim id est laborum.&lt;/span&gt;&lt;br&gt;" style="text;html=1;align=left;verticalAlign=top;spacingTop=-4;fontSize=14;labelBackgroundColor=none;whiteSpace=wrap;" parent="1" vertex="1">
          <mxGeometry x="1644" y="1180" width="449" height="113" as="geometry" />
        </mxCell>
        <mxCell id="8DieQMmsyX2rE4fabxvS-19" value="9" style="ellipse;whiteSpace=wrap;html=1;aspect=fixed;fillColor=#4D9900;strokeColor=none;labelBackgroundColor=none;" parent="1" vertex="1">
          <mxGeometry x="1594.5" y="1183" width="23" height="23" as="geometry" />
        </mxCell>
        <mxCell id="8DieQMmsyX2rE4fabxvS-20" value="&lt;span&gt;Lorem ipsum dolor sit amet, consectetur adipiscing elit, sed do eiusmod tempor incididunt ut labore et dolore magna aliqua. Ut enim ad minim veniam, quis nostrud exercitation ullamco laboris nisi ut aliquip ex ea commodo consequat. Duis aute irure dolor in reprehenderit in voluptate velit esse cillum dolore eu fugiat nulla pariatur. Excepteur sint occaecat cupidatat non proident, sunt in culpa qui officia deserunt mollit anim id est laborum.&lt;/span&gt;&lt;br&gt;" style="text;html=1;align=left;verticalAlign=top;spacingTop=-4;fontSize=14;labelBackgroundColor=none;whiteSpace=wrap;" parent="1" vertex="1">
          <mxGeometry x="1643" y="1307.5" width="449" height="113" as="geometry" />
        </mxCell>
        <mxCell id="8DieQMmsyX2rE4fabxvS-21" value="10" style="ellipse;whiteSpace=wrap;html=1;aspect=fixed;fillColor=#4D9900;strokeColor=none;labelBackgroundColor=none;" parent="1" vertex="1">
          <mxGeometry x="1593.5" y="1310.5" width="23" height="23" as="geometry" />
        </mxCell>
        <mxCell id="ZRepJo1LVB1EeVWzaR5q-1" value="Azure SignalR" style="shape=image;verticalLabelPosition=bottom;labelBackgroundColor=none;verticalAlign=top;aspect=fixed;imageAspect=0;image=data:image/svg+xml,PHN2ZyB4bWxuczpjYz0iaHR0cDovL2NyZWF0aXZlY29tbW9ucy5vcmcvbnMjIiB4bWxuczpkYz0iaHR0cDovL3B1cmwub3JnL2RjL2VsZW1lbnRzLzEuMS8iIHhtbG5zOmlua3NjYXBlPSJodHRwOi8vd3d3Lmlua3NjYXBlLm9yZy9uYW1lc3BhY2VzL2lua3NjYXBlIiB4bWxuczpyZGY9Imh0dHA6Ly93d3cudzMub3JnLzE5OTkvMDIvMjItcmRmLXN5bnRheC1ucyMiIHhtbG5zOnNvZGlwb2RpPSJodHRwOi8vc29kaXBvZGkuc291cmNlZm9yZ2UubmV0L0RURC9zb2RpcG9kaS0wLmR0ZCIgeG1sbnM6c3ZnPSJodHRwOi8vd3d3LnczLm9yZy8yMDAwL3N2ZyIgeG1sbnM9Imh0dHA6Ly93d3cudzMub3JnLzIwMDAvc3ZnIiB4bWxuczp4bGluaz0iaHR0cDovL3d3dy53My5vcmcvMTk5OS94bGluayIgdmVyc2lvbj0iMS4xIiBpZD0ic3ZnNjM0MTAiIGlua3NjYXBlOnZlcnNpb249IjAuOTIuMyAoMjQwNTU0NiwgMjAxOC0wMy0xMSkiIHNvZGlwb2RpOmRvY25hbWU9ImF6dXJlX3NpZ25hbGlyLnN2ZyIgeD0iMHB4IiB5PSIwcHgiIHZpZXdCb3g9IjAgMCA0OCA0OCIgc3R5bGU9ImVuYWJsZS1iYWNrZ3JvdW5kOm5ldyAwIDAgNDggNDg7IiB4bWw6c3BhY2U9InByZXNlcnZlIj4mI3hhOzxzb2RpcG9kaTpuYW1lZHZpZXcgYm9yZGVyY29sb3I9IiM2NjY2NjYiIGJvcmRlcm9wYWNpdHk9IjEiIGZpdC1tYXJnaW4tYm90dG9tPSIwIiBmaXQtbWFyZ2luLWxlZnQ9IjAiIGZpdC1tYXJnaW4tcmlnaHQ9IjAiIGZpdC1tYXJnaW4tdG9wPSIwIiBncmlkdG9sZXJhbmNlPSIxMCIgZ3VpZGV0b2xlcmFuY2U9IjEwIiBpZD0ibmFtZWR2aWV3NjM0MTIiIGlua3NjYXBlOmN1cnJlbnQtbGF5ZXI9InN2ZzYzNDEwIiBpbmtzY2FwZTpjeD0iMzguMTgxNDc3IiBpbmtzY2FwZTpjeT0iMjIuMDc4MzM0IiBpbmtzY2FwZTpwYWdlb3BhY2l0eT0iMCIgaW5rc2NhcGU6cGFnZXNoYWRvdz0iMiIgaW5rc2NhcGU6d2luZG93LWhlaWdodD0iMTAxNyIgaW5rc2NhcGU6d2luZG93LW1heGltaXplZD0iMSIgaW5rc2NhcGU6d2luZG93LXdpZHRoPSIxOTIwIiBpbmtzY2FwZTp3aW5kb3cteD0iLTgiIGlua3NjYXBlOndpbmRvdy15PSItOCIgaW5rc2NhcGU6em9vbT0iNy44NDA3MDQ5IiBvYmplY3R0b2xlcmFuY2U9IjEwIiBwYWdlY29sb3I9IiNmZmZmZmYiIHNob3dncmlkPSJmYWxzZSI+JiN4YTsJPC9zb2RpcG9kaTpuYW1lZHZpZXc+JiN4YTs8ZyBpZD0iZzYzNDA4IiB0cmFuc2Zvcm09InRyYW5zbGF0ZSgtNS4zMjE3NCwtNS4zMTgyNikiPiYjeGE7CTx0aXRsZSBpZD0idGl0bGU2MzM5OCI+UGFnZS0xPC90aXRsZT4mI3hhOwk8ZyBpZD0iZ3JvdXA1OTg5LTEiIHRyYW5zZm9ybT0idHJhbnNsYXRlKDUuMzIxNzQsLTUuMzIxNzQpIj4mI3hhOwkJPHRpdGxlIGlkPSJ0aXRsZTYzNDAwIj5BenVyZSBTaWduYWxSPC90aXRsZT4mI3hhOwkJPGcgaWQ9InNoYXBlNTk5MC0yIj4mI3hhOwkJCTx0aXRsZSBpZD0idGl0bGU2MzQwMiI+U2hlZXQuNTk5MDwvdGl0bGU+JiN4YTsJCQk8cGF0aCBpZD0icGF0aDYzNDA0IiBpbmtzY2FwZTpjb25uZWN0b3ItY3VydmF0dXJlPSIwIiBzdHlsZT0iZmlsbDojMDBBQkVDOyIgZD0iTTE5LjU2LDQ1LjU1bDIuNjktNi41NGg2LjA0ICAgICBjMi40LDAsNC4zNi0xLjk3LDQuMzYtNC4zN2MwLTIuNC0xLjk2LTQuMzYtNC4zNi00LjM2SDguNjVsMTAuOTEtMTAuOTF2NC4zNmg4LjczYzYuMDQsMCwxMC45MSw0Ljg4LDEwLjkxLDEwLjkxICAgICBjMCw1Ljg5LTQuNjYsMTAuNjItMTAuNCwxMC44NGw4Ljg3LDguODdDNDMuOTMsNDkuOTksNDgsNDIuNzksNDgsMzQuNjRjMC0xMy4yMy0xMC43Ni0yNC0yNC0yNHMtMjQsMTAuNzctMjQsMjQgICAgIGMwLDEzLjI0LDEwLjc2LDI0LDI0LDI0YzIuNjIsMCw1LjE2LTAuNDMsNy40OS0xLjIzTDE5LjU2LDQ1LjU1eiIvPiYjeGE7CQk8L2c+JiN4YTsJPC9nPiYjeGE7PC9nPiYjeGE7PC9zdmc+;" vertex="1" parent="1">
          <mxGeometry x="571.5000000000001" y="88.00000000000091" width="48" height="48" as="geometry" />
        </mxCell>
        <mxCell id="ZRepJo1LVB1EeVWzaR5q-2" value="Azure Cloud" style="shape=image;verticalLabelPosition=bottom;labelBackgroundColor=none;verticalAlign=top;aspect=fixed;imageAspect=0;image=data:image/svg+xml,PHN2ZyB4bWxuczpkYz0iaHR0cDovL3B1cmwub3JnL2RjL2VsZW1lbnRzLzEuMS8iIHhtbG5zOmNjPSJodHRwOi8vY3JlYXRpdmVjb21tb25zLm9yZy9ucyMiIHhtbG5zOnJkZj0iaHR0cDovL3d3dy53My5vcmcvMTk5OS8wMi8yMi1yZGYtc3ludGF4LW5zIyIgeG1sbnM6c3ZnPSJodHRwOi8vd3d3LnczLm9yZy8yMDAwL3N2ZyIgeG1sbnM9Imh0dHA6Ly93d3cudzMub3JnLzIwMDAvc3ZnIiB4bWxuczpzb2RpcG9kaT0iaHR0cDovL3NvZGlwb2RpLnNvdXJjZWZvcmdlLm5ldC9EVEQvc29kaXBvZGktMC5kdGQiIHhtbG5zOmlua3NjYXBlPSJodHRwOi8vd3d3Lmlua3NjYXBlLm9yZy9uYW1lc3BhY2VzL2lua3NjYXBlIiB2ZXJzaW9uPSIxLjEiIGlkPSJzdmc1MDMyOSIgaW5rc2NhcGU6dmVyc2lvbj0iMC45Mi4zICgyNDA1NTQ2LCAyMDE4LTAzLTExKSIgc29kaXBvZGk6ZG9jbmFtZT0iYXp1cmUuc3ZnIiB4PSIwcHgiIHk9IjBweCIgdmlld0JveD0iMCAwIDYyLjc2IDQ4LjQ4IiBzdHlsZT0iZW5hYmxlLWJhY2tncm91bmQ6bmV3IDAgMCA2Mi43NiA0OC40ODsiIHhtbDpzcGFjZT0icHJlc2VydmUiPjxtZXRhZGF0YSBpZD0ibWV0YWRhdGExNjgwNyI+PHJkZjpSREY+PGNjOldvcmsgcmRmOmFib3V0PSIiPjxkYzpmb3JtYXQ+aW1hZ2Uvc3ZnK3htbDwvZGM6Zm9ybWF0PjxkYzp0eXBlIHJkZjpyZXNvdXJjZT0iaHR0cDovL3B1cmwub3JnL2RjL2RjbWl0eXBlL1N0aWxsSW1hZ2UiLz48ZGM6dGl0bGUvPjwvY2M6V29yaz48L3JkZjpSREY+PC9tZXRhZGF0YT48ZGVmcyBpZD0iZGVmczE2ODA1Ii8+JiN4YTs8c29kaXBvZGk6bmFtZWR2aWV3IGJvcmRlcmNvbG9yPSIjNjY2NjY2IiBib3JkZXJvcGFjaXR5PSIxIiBmaXQtbWFyZ2luLWJvdHRvbT0iMCIgZml0LW1hcmdpbi1sZWZ0PSIwIiBmaXQtbWFyZ2luLXJpZ2h0PSIwIiBmaXQtbWFyZ2luLXRvcD0iMCIgZ3JpZHRvbGVyYW5jZT0iMTAiIGd1aWRldG9sZXJhbmNlPSIxMCIgaWQ9Im5hbWVkdmlldzUwMzMxIiBpbmtzY2FwZTpjdXJyZW50LWxheWVyPSJzdmc1MDMyOSIgaW5rc2NhcGU6Y3g9IjQ5LjM2MTQ4NiIgaW5rc2NhcGU6Y3k9IjEyLjA3MjQ5NyIgaW5rc2NhcGU6cGFnZW9wYWNpdHk9IjAiIGlua3NjYXBlOnBhZ2VzaGFkb3c9IjIiIGlua3NjYXBlOndpbmRvdy1oZWlnaHQ9IjEwMTciIGlua3NjYXBlOndpbmRvdy1tYXhpbWl6ZWQ9IjEiIGlua3NjYXBlOndpbmRvdy13aWR0aD0iMTkyMCIgaW5rc2NhcGU6d2luZG93LXg9Ii04IiBpbmtzY2FwZTp3aW5kb3cteT0iLTgiIGlua3NjYXBlOnpvb209IjUuOTY3MzU3NyIgb2JqZWN0dG9sZXJhbmNlPSIxMCIgcGFnZWNvbG9yPSIjZmZmZmZmIiBzaG93Z3JpZD0iZmFsc2UiPiYjeGE7CTwvc29kaXBvZGk6bmFtZWR2aWV3PiYjeGE7JiN4YTs8cGF0aCBpZD0icGF0aDUwMzI0IiBpbmtzY2FwZTpjb25uZWN0b3ItY3VydmF0dXJlPSIwIiBzdHlsZT0iZmlsbDojMjA3NUI4OyIgZD0iTTE1LjY4LDQ4LjM2YzAuMDctMC4wNyw2LjQtMS4yMywxNC4wNi0yLjU3ICBjNy42NS0xLjM1LDEzLjk3LTIuNSwxNC4wMy0yLjU2YzAuMTItMC4xMS0wLjc1LTEuMTctMTAuMjItMTIuNDZjLTIuNTItMi45OS00LjYzLTUuNTYtNC43LTUuN2MtMC4wOS0wLjE5LDAuODktMy4wNCwzLjczLTEwLjgzICBjMi4xMS01LjgxLDMuODctMTAuNjUsMy45MS0xMC43NWMwLjAzLTAuMDksMC4xMy0wLjE3LDAuMjItMC4xN2MwLjE5LDAsMjYuMTQsNDQuOTEsMjYuMDUsNDUuMDZjLTAuMDQsMC4wNi0xMC42OCwwLjEtMjMuNjQsMC4xICBDMjUuMjEsNDguNDgsMTUuNiw0OC40MywxNS42OCw0OC4zNnogTTAsNDMuMDFjLTAuMDUtMC4xMywwLjU0LTEuMjksMS40NS0yLjg4YzAuODQtMS40Niw0LjQyLTcuNjYsNy45NS0xMy43N2w2LjQxLTExLjFsOS4wOC03LjYzICBDMjkuODgsMy40NCwzNC4wNCwwLDM0LjEzLDBjMC4xLDAsMC4xMywwLjA5LDAuMDgsMC4yNEMzMy43NCwxLjQ4LDE0LjMsNDIuOTIsMTQuMTMsNDMuMDVjLTAuMTksMC4xMy0xLjg0LDAuMTctNy4xNSwwLjE3ICBDMC45MSw0My4yMiwwLjA3LDQzLjE5LDAsNDMuMDF6Ii8+JiN4YTs8L3N2Zz4=;" vertex="1" parent="1">
          <mxGeometry x="1180" y="40" width="63" height="48" as="geometry" />
        </mxCell>
        <mxCell id="ZRepJo1LVB1EeVWzaR5q-6" value="" style="rounded=1;whiteSpace=wrap;html=1;" vertex="1" parent="1">
          <mxGeometry x="815.5" y="80.5" width="120" height="270" as="geometry" />
        </mxCell>
        <mxCell id="ZRepJo1LVB1EeVWzaR5q-3" value="Azure WebApps" style="shape=image;verticalLabelPosition=bottom;labelBackgroundColor=none;verticalAlign=top;aspect=fixed;imageAspect=0;image=data:image/svg+xml,PHN2ZyB4bWxuczpkYz0iaHR0cDovL3B1cmwub3JnL2RjL2VsZW1lbnRzLzEuMS8iIHhtbG5zOmNjPSJodHRwOi8vY3JlYXRpdmVjb21tb25zLm9yZy9ucyMiIHhtbG5zOnJkZj0iaHR0cDovL3d3dy53My5vcmcvMTk5OS8wMi8yMi1yZGYtc3ludGF4LW5zIyIgeG1sbnM6c3ZnPSJodHRwOi8vd3d3LnczLm9yZy8yMDAwL3N2ZyIgeG1sbnM9Imh0dHA6Ly93d3cudzMub3JnLzIwMDAvc3ZnIiB4bWxuczpzb2RpcG9kaT0iaHR0cDovL3NvZGlwb2RpLnNvdXJjZWZvcmdlLm5ldC9EVEQvc29kaXBvZGktMC5kdGQiIHhtbG5zOmlua3NjYXBlPSJodHRwOi8vd3d3Lmlua3NjYXBlLm9yZy9uYW1lc3BhY2VzL2lua3NjYXBlIiB2ZXJzaW9uPSIxLjEiIGlkPSJzdmc2MTMyMyIgaW5rc2NhcGU6dmVyc2lvbj0iMC45Mi4zICgyNDA1NTQ2LCAyMDE4LTAzLTExKSIgc29kaXBvZGk6ZG9jbmFtZT0iYXp1cmVfcG9ydGFsX3dlYl9hcHBzLnN2ZyIgeD0iMHB4IiB5PSIwcHgiIHZpZXdCb3g9IjAgMCA1MS4wMjkzMTcgNTEuMDIiIHhtbDpzcGFjZT0icHJlc2VydmUiIHdpZHRoPSI1MS4wMjkzMTYiIGhlaWdodD0iNTEuMDIiPjxtZXRhZGF0YSBpZD0ibWV0YWRhdGExMTY1NSI+PHJkZjpSREY+PGNjOldvcmsgcmRmOmFib3V0PSIiPjxkYzpmb3JtYXQ+aW1hZ2Uvc3ZnK3htbDwvZGM6Zm9ybWF0PjxkYzp0eXBlIHJkZjpyZXNvdXJjZT0iaHR0cDovL3B1cmwub3JnL2RjL2RjbWl0eXBlL1N0aWxsSW1hZ2UiLz48ZGM6dGl0bGUvPjwvY2M6V29yaz48L3JkZjpSREY+PC9tZXRhZGF0YT48ZGVmcyBpZD0iZGVmczExNjUzIi8+JiN4YTs8ZmlsdGVyIGlkPSJmaWx0ZXJfMiI+JiN4YTsJPGZlR2F1c3NpYW5CbHVyIGlkPSJmZUdhdXNzaWFuQmx1cjYxMjk2IiBzdGREZXZpYXRpb249IjIiLz4mI3hhOzwvZmlsdGVyPiYjeGE7PHNvZGlwb2RpOm5hbWVkdmlldyBib3JkZXJjb2xvcj0iIzY2NjY2NiIgYm9yZGVyb3BhY2l0eT0iMSIgZml0LW1hcmdpbi1ib3R0b209IjAiIGZpdC1tYXJnaW4tbGVmdD0iMCIgZml0LW1hcmdpbi1yaWdodD0iMCIgZml0LW1hcmdpbi10b3A9IjAiIGdyaWR0b2xlcmFuY2U9IjEwIiBndWlkZXRvbGVyYW5jZT0iMTAiIGlkPSJuYW1lZHZpZXc2MTMyNSIgaW5rc2NhcGU6Y3VycmVudC1sYXllcj0ic3ZnNjEzMjMiIGlua3NjYXBlOmN4PSItNDUuMDA0ODE4IiBpbmtzY2FwZTpjeT0iMzkuNDkwNjM4IiBpbmtzY2FwZTpwYWdlb3BhY2l0eT0iMCIgaW5rc2NhcGU6cGFnZXNoYWRvdz0iMiIgaW5rc2NhcGU6d2luZG93LWhlaWdodD0iMTAxNyIgaW5rc2NhcGU6d2luZG93LW1heGltaXplZD0iMSIgaW5rc2NhcGU6d2luZG93LXdpZHRoPSIxOTIwIiBpbmtzY2FwZTp3aW5kb3cteD0iLTgiIGlua3NjYXBlOndpbmRvdy15PSItOCIgaW5rc2NhcGU6em9vbT0iNC4zMDY1ODM0IiBvYmplY3R0b2xlcmFuY2U9IjEwIiBwYWdlY29sb3I9IiNmZmZmZmYiIHNob3dncmlkPSJmYWxzZSI+JiN4YTsJPC9zb2RpcG9kaTpuYW1lZHZpZXc+JiN4YTsmI3hhOzxwYXRoIGlkPSJwYXRoNjEzMDkiIGlua3NjYXBlOmNvbm5lY3Rvci1jdXJ2YXR1cmU9IjAiIHN0eWxlPSJmaWxsOiM1OWI0ZDkiIGQ9Im0gNDEuMDE0NTI2LDQ1Ljc2IGMgLTQuNjIsMy41MyAtMTAuMDcsNS4yNiAtMTUuNDcsNS4yNiAtNy42OCwwIC0xNS4yNywtMy40NSAtMjAuMjc5OTk5OSwtMTAuMDEgLTguNTcsLTExLjE5IC02LjQ2LC0yNy4xOCA0Ljc0OTk5OTksLTM1Ljc2IDQuNjIsLTMuNTUgMTAuMDgsLTUuMjUgMTUuNDgsLTUuMjUgNy42NywwIDE1LjI2LDMuNDUgMjAuMjgsMTAuMDEgOC41NywxMS4xOCA2LjQzLDI3LjE5IC00Ljc2LDM1Ljc1IHoiLz4mI3hhOyYjeGE7PHBhdGggaWQ9InBhdGg2MTMxNyIgaW5rc2NhcGU6Y29ubmVjdG9yLWN1cnZhdHVyZT0iMCIgc3R5bGU9ImZpbGw6I2ZmZmZmZiIgZD0ibSAzNi4zMzQ1MjYsMjkuOTggYyAxLjg1LDIuNDEgNS4yOSwyLjg1IDcuNywxLjAyIDAuMTIsLTAuMDkgMC4yMiwtMC4yMSAwLjMzLC0wLjMxIDIuNDYsMS43MyA0LjE3LDIuODcgNS4xMywzLjUzIDAuMjgsLTAuNzQgMC40OCwtMS40NSAwLjY4LC0yLjE5IC0xLjAxLC0wLjc2IC0yLjM5LC0xLjgxIC00LjM3LC0zLjQyIDAuNjUsLTEuNzIgMC40NCwtMy43MiAtMC43NSwtNS4yOCAtMS43LC0yLjIxIC00LjcyLC0yLjc3IC03LjA4LC0xLjQxIC0yLjYsLTIuMzMgLTUuNDUsLTUgLTguNDYsLTcuOTkgOS4zNSwtNS4wMyAxNiwtNC4yOSAxNiwtNC4yOSAtMS4xMSwtMS40MiAtMi4zNiwtMi42NiAtMy42OCwtMy43OCAtMy45NSwtMC42MSAtMTAuMDcsLTAuNTQgLTE3LjA3LDMuMTkgbCAtMC4wMSwtMC4wMSB2IDAgYyAtMi4zMywtMi40NCAtNC43MSwtNS4wNiAtNy4xMiwtNy44NyAtMS4xNiwwLjM3IC0yLjI5LDAuODMgLTMuMzgsMS4zOCAxLjc4LDIuOTIgNC4xOCw1Ljg3IDYuODksOC43NCAwLDAuMDEgMC4wMSwwLjAxIDAuMDIsMC4wMiAtMi4yNiwxLjU3IC00Ljc3LDMuNjggLTcuMDksNi4xMyAtMC4zLDAuMzIgLTAuNTgsMC42NCAtMC44NiwwLjk1IC0xLjM4LC0wLjI5IC0yLjg0LC0wLjIgLTQuMTk5OTk5OSwwLjI5IC0yLjMxLC00Ljk4IC0yLjEzLC04Ljk5IC0xLjc2LC0xMS4wNSAtMSwxLjA1IC0xLjk0LDIuMTUgLTIuNzUsMy4zMyAtMC42LDIuNDcgLTAuNzcsNi4wMiAxLjAxLDEwLjMgLTIuMDYsMi43IC0yLjE2LDYuNTIgLTAuMDEsOS4zNSAwLjE4LDAuMjMgMC4zNywwLjQ1IDAuNTcsMC42NSAtMC45NCwzLjIgLTEuMzYsNi4yOSAtMS40OSw4Ljk0IDAuMjQsMC4zMyAwLjI0LDAuNiAwLjQ4LDAuOTIgMS4yMywxLjU3IDIuNzYsMi44OSA0LjI1LDQuMDkgLTAuMTgsLTIuODEgMC4wMSwtNi45NSAxLjc0OTk5OTksLTExLjYxIDEuMiwwLjA5IDIuNDEsLTAuMDkgMy41NSwtMC41NyAwLjY2LDAuNTcgMS4zNCwxLjE1IDIuMDcsMS43NCAyLjUsMS45OCA1LDMuNTMgNy40Myw0Ljc0IC0wLjEyLDEuMjQgMC4xOSwyLjUyIDAuOTksMy41OSAxLjcyLDIuMjIgNC45MSwyLjY0IDcuMTMsMC45NCAwLjQ2LC0wLjM2IDAuODMsLTAuNzggMS4xMywtMS4yNCAzLjk3LDAuODggNy40NCwxLjA0IDEwLjAxLDEuMDQgMC4zOSwwIDIuMjIsLTIuNDkgMy4yNiwtNC4wMyAtMS41NiwwLjMzIC02LjIsMC45NyAtMTIuNTUsLTAuODYgLTAuMTUsLTAuNzEgLTAuNDQsLTEuNCAtMC45MSwtMi4wMiAtMS42MiwtMi4xMSAtNC41NiwtMi41NyAtNi43NiwtMS4xNSAtMi4yLC0xLjIgLTQuNTEsLTIuNyAtNi44OSwtNC41OSAtMC40OCwtMC4zOCAtMC45NSwtMC43NiAtMS4zOSwtMS4xNCAxLjQ1LC0yLjI5IDEuNjEsLTUuMjMgMC4zMiwtNy43IDAuMywtMC4yOSAwLjU4LC0wLjU5IDAuODksLTAuODggMi4zNiwtMi4yIDQuNTgsLTMuOTYgNi42NiwtNS4zOCAtMC4wOSwtMC4wOCAtMC4xNiwtMC4xNiAtMC4yNSwtMC4yNCAwLjA5LDAuMDggMC4xNiwwLjE2IDAuMjUsMC4yNCB2IDAgYyAzLjE4LDIuOTQgNi41Niw1LjczIDkuNzYsOC4yMyAtMC44NSwxLjc5IC0wLjcyLDMuOTggMC41Nyw1LjY2IHoiLz4mI3hhOzwvc3ZnPg==;" vertex="1" parent="1">
          <mxGeometry x="850.0000000000001" y="100" width="51" height="51" as="geometry" />
        </mxCell>
        <mxCell id="ZRepJo1LVB1EeVWzaR5q-4" value="Azure WebApps" style="shape=image;verticalLabelPosition=bottom;labelBackgroundColor=none;verticalAlign=top;aspect=fixed;imageAspect=0;image=data:image/svg+xml,PHN2ZyB4bWxuczpkYz0iaHR0cDovL3B1cmwub3JnL2RjL2VsZW1lbnRzLzEuMS8iIHhtbG5zOmNjPSJodHRwOi8vY3JlYXRpdmVjb21tb25zLm9yZy9ucyMiIHhtbG5zOnJkZj0iaHR0cDovL3d3dy53My5vcmcvMTk5OS8wMi8yMi1yZGYtc3ludGF4LW5zIyIgeG1sbnM6c3ZnPSJodHRwOi8vd3d3LnczLm9yZy8yMDAwL3N2ZyIgeG1sbnM9Imh0dHA6Ly93d3cudzMub3JnLzIwMDAvc3ZnIiB4bWxuczpzb2RpcG9kaT0iaHR0cDovL3NvZGlwb2RpLnNvdXJjZWZvcmdlLm5ldC9EVEQvc29kaXBvZGktMC5kdGQiIHhtbG5zOmlua3NjYXBlPSJodHRwOi8vd3d3Lmlua3NjYXBlLm9yZy9uYW1lc3BhY2VzL2lua3NjYXBlIiB2ZXJzaW9uPSIxLjEiIGlkPSJzdmc2MTMyMyIgaW5rc2NhcGU6dmVyc2lvbj0iMC45Mi4zICgyNDA1NTQ2LCAyMDE4LTAzLTExKSIgc29kaXBvZGk6ZG9jbmFtZT0iYXp1cmVfcG9ydGFsX3dlYl9hcHBzLnN2ZyIgeD0iMHB4IiB5PSIwcHgiIHZpZXdCb3g9IjAgMCA1MS4wMjkzMTcgNTEuMDIiIHhtbDpzcGFjZT0icHJlc2VydmUiIHdpZHRoPSI1MS4wMjkzMTYiIGhlaWdodD0iNTEuMDIiPjxtZXRhZGF0YSBpZD0ibWV0YWRhdGExMTY1NSI+PHJkZjpSREY+PGNjOldvcmsgcmRmOmFib3V0PSIiPjxkYzpmb3JtYXQ+aW1hZ2Uvc3ZnK3htbDwvZGM6Zm9ybWF0PjxkYzp0eXBlIHJkZjpyZXNvdXJjZT0iaHR0cDovL3B1cmwub3JnL2RjL2RjbWl0eXBlL1N0aWxsSW1hZ2UiLz48ZGM6dGl0bGUvPjwvY2M6V29yaz48L3JkZjpSREY+PC9tZXRhZGF0YT48ZGVmcyBpZD0iZGVmczExNjUzIi8+JiN4YTs8ZmlsdGVyIGlkPSJmaWx0ZXJfMiI+JiN4YTsJPGZlR2F1c3NpYW5CbHVyIGlkPSJmZUdhdXNzaWFuQmx1cjYxMjk2IiBzdGREZXZpYXRpb249IjIiLz4mI3hhOzwvZmlsdGVyPiYjeGE7PHNvZGlwb2RpOm5hbWVkdmlldyBib3JkZXJjb2xvcj0iIzY2NjY2NiIgYm9yZGVyb3BhY2l0eT0iMSIgZml0LW1hcmdpbi1ib3R0b209IjAiIGZpdC1tYXJnaW4tbGVmdD0iMCIgZml0LW1hcmdpbi1yaWdodD0iMCIgZml0LW1hcmdpbi10b3A9IjAiIGdyaWR0b2xlcmFuY2U9IjEwIiBndWlkZXRvbGVyYW5jZT0iMTAiIGlkPSJuYW1lZHZpZXc2MTMyNSIgaW5rc2NhcGU6Y3VycmVudC1sYXllcj0ic3ZnNjEzMjMiIGlua3NjYXBlOmN4PSItNDUuMDA0ODE4IiBpbmtzY2FwZTpjeT0iMzkuNDkwNjM4IiBpbmtzY2FwZTpwYWdlb3BhY2l0eT0iMCIgaW5rc2NhcGU6cGFnZXNoYWRvdz0iMiIgaW5rc2NhcGU6d2luZG93LWhlaWdodD0iMTAxNyIgaW5rc2NhcGU6d2luZG93LW1heGltaXplZD0iMSIgaW5rc2NhcGU6d2luZG93LXdpZHRoPSIxOTIwIiBpbmtzY2FwZTp3aW5kb3cteD0iLTgiIGlua3NjYXBlOndpbmRvdy15PSItOCIgaW5rc2NhcGU6em9vbT0iNC4zMDY1ODM0IiBvYmplY3R0b2xlcmFuY2U9IjEwIiBwYWdlY29sb3I9IiNmZmZmZmYiIHNob3dncmlkPSJmYWxzZSI+JiN4YTsJPC9zb2RpcG9kaTpuYW1lZHZpZXc+JiN4YTsmI3hhOzxwYXRoIGlkPSJwYXRoNjEzMDkiIGlua3NjYXBlOmNvbm5lY3Rvci1jdXJ2YXR1cmU9IjAiIHN0eWxlPSJmaWxsOiM1OWI0ZDkiIGQ9Im0gNDEuMDE0NTI2LDQ1Ljc2IGMgLTQuNjIsMy41MyAtMTAuMDcsNS4yNiAtMTUuNDcsNS4yNiAtNy42OCwwIC0xNS4yNywtMy40NSAtMjAuMjc5OTk5OSwtMTAuMDEgLTguNTcsLTExLjE5IC02LjQ2LC0yNy4xOCA0Ljc0OTk5OTksLTM1Ljc2IDQuNjIsLTMuNTUgMTAuMDgsLTUuMjUgMTUuNDgsLTUuMjUgNy42NywwIDE1LjI2LDMuNDUgMjAuMjgsMTAuMDEgOC41NywxMS4xOCA2LjQzLDI3LjE5IC00Ljc2LDM1Ljc1IHoiLz4mI3hhOyYjeGE7PHBhdGggaWQ9InBhdGg2MTMxNyIgaW5rc2NhcGU6Y29ubmVjdG9yLWN1cnZhdHVyZT0iMCIgc3R5bGU9ImZpbGw6I2ZmZmZmZiIgZD0ibSAzNi4zMzQ1MjYsMjkuOTggYyAxLjg1LDIuNDEgNS4yOSwyLjg1IDcuNywxLjAyIDAuMTIsLTAuMDkgMC4yMiwtMC4yMSAwLjMzLC0wLjMxIDIuNDYsMS43MyA0LjE3LDIuODcgNS4xMywzLjUzIDAuMjgsLTAuNzQgMC40OCwtMS40NSAwLjY4LC0yLjE5IC0xLjAxLC0wLjc2IC0yLjM5LC0xLjgxIC00LjM3LC0zLjQyIDAuNjUsLTEuNzIgMC40NCwtMy43MiAtMC43NSwtNS4yOCAtMS43LC0yLjIxIC00LjcyLC0yLjc3IC03LjA4LC0xLjQxIC0yLjYsLTIuMzMgLTUuNDUsLTUgLTguNDYsLTcuOTkgOS4zNSwtNS4wMyAxNiwtNC4yOSAxNiwtNC4yOSAtMS4xMSwtMS40MiAtMi4zNiwtMi42NiAtMy42OCwtMy43OCAtMy45NSwtMC42MSAtMTAuMDcsLTAuNTQgLTE3LjA3LDMuMTkgbCAtMC4wMSwtMC4wMSB2IDAgYyAtMi4zMywtMi40NCAtNC43MSwtNS4wNiAtNy4xMiwtNy44NyAtMS4xNiwwLjM3IC0yLjI5LDAuODMgLTMuMzgsMS4zOCAxLjc4LDIuOTIgNC4xOCw1Ljg3IDYuODksOC43NCAwLDAuMDEgMC4wMSwwLjAxIDAuMDIsMC4wMiAtMi4yNiwxLjU3IC00Ljc3LDMuNjggLTcuMDksNi4xMyAtMC4zLDAuMzIgLTAuNTgsMC42NCAtMC44NiwwLjk1IC0xLjM4LC0wLjI5IC0yLjg0LC0wLjIgLTQuMTk5OTk5OSwwLjI5IC0yLjMxLC00Ljk4IC0yLjEzLC04Ljk5IC0xLjc2LC0xMS4wNSAtMSwxLjA1IC0xLjk0LDIuMTUgLTIuNzUsMy4zMyAtMC42LDIuNDcgLTAuNzcsNi4wMiAxLjAxLDEwLjMgLTIuMDYsMi43IC0yLjE2LDYuNTIgLTAuMDEsOS4zNSAwLjE4LDAuMjMgMC4zNywwLjQ1IDAuNTcsMC42NSAtMC45NCwzLjIgLTEuMzYsNi4yOSAtMS40OSw4Ljk0IDAuMjQsMC4zMyAwLjI0LDAuNiAwLjQ4LDAuOTIgMS4yMywxLjU3IDIuNzYsMi44OSA0LjI1LDQuMDkgLTAuMTgsLTIuODEgMC4wMSwtNi45NSAxLjc0OTk5OTksLTExLjYxIDEuMiwwLjA5IDIuNDEsLTAuMDkgMy41NSwtMC41NyAwLjY2LDAuNTcgMS4zNCwxLjE1IDIuMDcsMS43NCAyLjUsMS45OCA1LDMuNTMgNy40Myw0Ljc0IC0wLjEyLDEuMjQgMC4xOSwyLjUyIDAuOTksMy41OSAxLjcyLDIuMjIgNC45MSwyLjY0IDcuMTMsMC45NCAwLjQ2LC0wLjM2IDAuODMsLTAuNzggMS4xMywtMS4yNCAzLjk3LDAuODggNy40NCwxLjA0IDEwLjAxLDEuMDQgMC4zOSwwIDIuMjIsLTIuNDkgMy4yNiwtNC4wMyAtMS41NiwwLjMzIC02LjIsMC45NyAtMTIuNTUsLTAuODYgLTAuMTUsLTAuNzEgLTAuNDQsLTEuNCAtMC45MSwtMi4wMiAtMS42MiwtMi4xMSAtNC41NiwtMi41NyAtNi43NiwtMS4xNSAtMi4yLC0xLjIgLTQuNTEsLTIuNyAtNi44OSwtNC41OSAtMC40OCwtMC4zOCAtMC45NSwtMC43NiAtMS4zOSwtMS4xNCAxLjQ1LC0yLjI5IDEuNjEsLTUuMjMgMC4zMiwtNy43IDAuMywtMC4yOSAwLjU4LC0wLjU5IDAuODksLTAuODggMi4zNiwtMi4yIDQuNTgsLTMuOTYgNi42NiwtNS4zOCAtMC4wOSwtMC4wOCAtMC4xNiwtMC4xNiAtMC4yNSwtMC4yNCAwLjA5LDAuMDggMC4xNiwwLjE2IDAuMjUsMC4yNCB2IDAgYyAzLjE4LDIuOTQgNi41Niw1LjczIDkuNzYsOC4yMyAtMC44NSwxLjc5IC0wLjcyLDMuOTggMC41Nyw1LjY2IHoiLz4mI3hhOzwvc3ZnPg==;" vertex="1" parent="1">
          <mxGeometry x="850.0000000000001" y="262.5" width="51" height="51" as="geometry" />
        </mxCell>
        <mxCell id="ZRepJo1LVB1EeVWzaR5q-5" value="" style="endArrow=none;dashed=1;html=1;dashPattern=1 3;strokeWidth=2;rounded=0;" edge="1" parent="1">
          <mxGeometry width="50" height="50" relative="1" as="geometry">
            <mxPoint x="876" y="240" as="sourcePoint" />
            <mxPoint x="876" y="190" as="targetPoint" />
          </mxGeometry>
        </mxCell>
        <mxCell id="ZRepJo1LVB1EeVWzaR5q-7" value="Azure Table Storage" style="shape=image;verticalLabelPosition=bottom;labelBackgroundColor=none;verticalAlign=top;aspect=fixed;imageAspect=0;image=data:image/svg+xml,PHN2ZyB4bWxuczpkYz0iaHR0cDovL3B1cmwub3JnL2RjL2VsZW1lbnRzLzEuMS8iIHhtbG5zOmNjPSJodHRwOi8vY3JlYXRpdmVjb21tb25zLm9yZy9ucyMiIHhtbG5zOnJkZj0iaHR0cDovL3d3dy53My5vcmcvMTk5OS8wMi8yMi1yZGYtc3ludGF4LW5zIyIgeG1sbnM6c3ZnPSJodHRwOi8vd3d3LnczLm9yZy8yMDAwL3N2ZyIgeG1sbnM9Imh0dHA6Ly93d3cudzMub3JnLzIwMDAvc3ZnIiB4bWxuczpzb2RpcG9kaT0iaHR0cDovL3NvZGlwb2RpLnNvdXJjZWZvcmdlLm5ldC9EVEQvc29kaXBvZGktMC5kdGQiIHhtbG5zOmlua3NjYXBlPSJodHRwOi8vd3d3Lmlua3NjYXBlLm9yZy9uYW1lc3BhY2VzL2lua3NjYXBlIiB2ZXJzaW9uPSIxLjEiIGlkPSJzdmc2NDIwMiIgaW5rc2NhcGU6dmVyc2lvbj0iMC45Mi4zICgyNDA1NTQ2LCAyMDE4LTAzLTExKSIgc29kaXBvZGk6ZG9jbmFtZT0iYXp1cmVfc3RvcmFnZV9henVyZV9maWxlcy5zdmciIHg9IjBweCIgeT0iMHB4IiB2aWV3Qm94PSIwIDAgNzUuNTIgNjQuMzQiIHhtbDpzcGFjZT0icHJlc2VydmUiIHdpZHRoPSI3NS41MTk5OTciIGhlaWdodD0iNjQuMzM5OTk2Ij48bWV0YWRhdGEgaWQ9Im1ldGFkYXRhMTg3OTUiPjxyZGY6UkRGPjxjYzpXb3JrIHJkZjphYm91dD0iIj48ZGM6Zm9ybWF0PmltYWdlL3N2Zyt4bWw8L2RjOmZvcm1hdD48ZGM6dHlwZSByZGY6cmVzb3VyY2U9Imh0dHA6Ly9wdXJsLm9yZy9kYy9kY21pdHlwZS9TdGlsbEltYWdlIi8+PGRjOnRpdGxlLz48L2NjOldvcms+PC9yZGY6UkRGPjwvbWV0YWRhdGE+PGRlZnMgaWQ9ImRlZnMxODc5MyIvPiYjeGE7PGZpbHRlciBpZD0iZmlsdGVyXzIiPiYjeGE7CTxmZUdhdXNzaWFuQmx1ciBpZD0iZmVHYXVzc2lhbkJsdXI2NDA5NSIgc3RkRGV2aWF0aW9uPSIyIi8+JiN4YTs8L2ZpbHRlcj4mI3hhOzxzb2RpcG9kaTpuYW1lZHZpZXcgYm9yZGVyY29sb3I9IiM2NjY2NjYiIGJvcmRlcm9wYWNpdHk9IjEiIGZpdC1tYXJnaW4tYm90dG9tPSIwIiBmaXQtbWFyZ2luLWxlZnQ9IjAiIGZpdC1tYXJnaW4tcmlnaHQ9IjAiIGZpdC1tYXJnaW4tdG9wPSIwIiBncmlkdG9sZXJhbmNlPSIxMCIgZ3VpZGV0b2xlcmFuY2U9IjEwIiBpZD0ibmFtZWR2aWV3NjQyMDQiIGlua3NjYXBlOmN1cnJlbnQtbGF5ZXI9InN2ZzY0MjAyIiBpbmtzY2FwZTpjeD0iLTQwLjc1NzY0MiIgaW5rc2NhcGU6Y3k9IjE0LjI0NTcwNSIgaW5rc2NhcGU6cGFnZW9wYWNpdHk9IjAiIGlua3NjYXBlOnBhZ2VzaGFkb3c9IjIiIGlua3NjYXBlOndpbmRvdy1oZWlnaHQ9IjEwMTciIGlua3NjYXBlOndpbmRvdy1tYXhpbWl6ZWQ9IjEiIGlua3NjYXBlOndpbmRvdy13aWR0aD0iMTkyMCIgaW5rc2NhcGU6d2luZG93LXg9Ii04IiBpbmtzY2FwZTp3aW5kb3cteT0iLTgiIGlua3NjYXBlOnpvb209IjMuNjYwMjg4NyIgb2JqZWN0dG9sZXJhbmNlPSIxMCIgcGFnZWNvbG9yPSIjZmZmZmZmIiBzaG93Z3JpZD0iZmFsc2UiPiYjeGE7CTwvc29kaXBvZGk6bmFtZWR2aWV3PiYjeGE7JiN4YTs8cGF0aCBpZD0icGF0aDY0MTA4IiBpbmtzY2FwZTpjb25uZWN0b3ItY3VydmF0dXJlPSIwIiBzdHlsZT0iZmlsbDojYTBhMWEyIiBkPSJtIDAsNjEuNDggYyAwLDEuNTEgMS4wNiwyLjg2IDIuODcsMi44NiBoIDY5Ljc4IGMgMS41MSwwIDIuODcsLTEuMDUgMi44NywtMi44NiB2IC01MCBIIDAgWiIvPiYjeGE7JiN4YTs8cGF0aCBpZD0icGF0aDY0MTE2IiBpbmtzY2FwZTpjb25uZWN0b3ItY3VydmF0dXJlPSIwIiBzdHlsZT0iZmlsbDojN2E3YTdhIiBkPSJNIDcyLjY1LDAgSCAyLjg3IEMgMS4wNiwwIDAsMS4zNSAwLDIuODcgdiA4LjYgSCA3NS41MiBWIDIuODcgQyA3NS41MiwxLjM1IDc0LjQ2LDAgNzIuNjUsMCBaIi8+JiN4YTsmI3hhOzxyZWN0IGlkPSJyZWN0NjQxMjQiIHg9IjI4LjM5OTk5NCIgeT0iMTYuNDU5OTk5IiBzdHlsZT0iZmlsbDojZmZmZmZmIiB3aWR0aD0iMTkuMDMwMDAxIiBoZWlnaHQ9IjExLjQ4Ii8+JiN4YTsmI3hhOzxyZWN0IGlkPSJyZWN0NjQxMzIiIHg9IjI4LjM5OTk5NCIgeT0iMzIuMDIiIHN0eWxlPSJmaWxsOiNmY2QxMTYiIHdpZHRoPSIxOS4wMzAwMDEiIGhlaWdodD0iMTEuNDgiLz4mI3hhOyYjeGE7PHJlY3QgaWQ9InJlY3Q2NDE0MCIgeD0iNTEuMDUwMDAzIiB5PSIzMi4wMiIgc3R5bGU9ImZpbGw6I2ZjZDExNiIgd2lkdGg9IjE5LjAzMDAwMSIgaGVpZ2h0PSIxMS40OCIvPiYjeGE7JiN4YTs8cmVjdCBpZD0icmVjdDY0MTQ4IiB4PSI1MS4wNTAwMDMiIHk9IjE2LjQ1OTk5OSIgc3R5bGU9ImZpbGw6I2ZmZmZmZiIgd2lkdGg9IjE5LjAzMDAwMSIgaGVpZ2h0PSIxMS40OCIvPiYjeGE7JiN4YTs8cmVjdCBpZD0icmVjdDY0MTU2IiB4PSI1LjczOTk5NzkiIHk9IjE2LjQ1OTk5OSIgc3R5bGU9ImZpbGw6I2ZmZmZmZiIgd2lkdGg9IjE5LjAzMDAwMSIgaGVpZ2h0PSIxMS40OCIvPiYjeGE7JiN4YTs8cmVjdCBpZD0icmVjdDY0MTY0IiB4PSI1LjczOTk5NzkiIHk9IjMyLjAyIiBzdHlsZT0iZmlsbDojZmZmZmZmIiB3aWR0aD0iMTkuMDMwMDAxIiBoZWlnaHQ9IjExLjQ4Ii8+JiN4YTsmI3hhOzxyZWN0IGlkPSJyZWN0NjQxNzIiIHg9IjUuNzM5OTk3OSIgeT0iNDcuNDMiIHN0eWxlPSJmaWxsOiNmY2QxMTYiIHdpZHRoPSIxOS4wMzAwMDEiIGhlaWdodD0iMTEuNDgiLz4mI3hhOyYjeGE7PHJlY3QgaWQ9InJlY3Q2NDE4MCIgeD0iMjguMzk5OTk0IiB5PSI0Ny40MyIgc3R5bGU9ImZpbGw6I2ZjZDExNiIgd2lkdGg9IjE5LjAzMDAwMSIgaGVpZ2h0PSIxMS40OCIvPiYjeGE7JiN4YTs8cmVjdCBpZD0icmVjdDY0MTg4IiB4PSI1MS4wNTAwMDMiIHk9IjQ3LjQzIiBzdHlsZT0iZmlsbDojZmNkMTE2IiB3aWR0aD0iMTkuMDMwMDAxIiBoZWlnaHQ9IjExLjQ4Ii8+JiN4YTsmI3hhOzxwYXRoIGlkPSJwYXRoNjQxOTYiIGlua3NjYXBlOmNvbm5lY3Rvci1jdXJ2YXR1cmU9IjAiIHN0eWxlPSJmaWxsOiNmZmZmZmY7ZmlsbC1vcGFjaXR5OjAuMiIgZD0iTSAyLjg3LDAgQyAxLjUxLDAgMCwxLjM2IDAsMi44NyB2IDExLjE4IDQuOTggNDIuNDUgYyAwLDEuNTEgMS41MSwyLjg2IDIuODcsMi44NiBIIDYuMDQgTCA2NS44NiwwIFoiLz4mI3hhOzwvc3ZnPg==;" vertex="1" parent="1">
          <mxGeometry x="1080" y="183.5000000000009" width="76" height="64" as="geometry" />
        </mxCell>
        <mxCell id="ZRepJo1LVB1EeVWzaR5q-8" value="Azure Load Balancer" style="verticalLabelPosition=bottom;html=1;verticalAlign=top;align=center;strokeColor=none;fillColor=#00BEF2;shape=mxgraph.azure.azure_load_balancer;" vertex="1" parent="1">
          <mxGeometry x="572" y="271" width="50" height="35" as="geometry" />
        </mxCell>
        <mxCell id="ZRepJo1LVB1EeVWzaR5q-9" value="Approximate monthly costs:&lt;br&gt;- Azure Table Storage: $4.5 / 100 GB&lt;br&gt;- Azure SignalR: $49&lt;br&gt;- Azure Application Gateway: $20&lt;br&gt;- Azure WebApps:&amp;nbsp;" style="rounded=1;whiteSpace=wrap;html=1;" vertex="1" parent="1">
          <mxGeometry x="271" y="1108" width="409" height="252" as="geometry" />
        </mxCell>
        <mxCell id="rPbR1BnSdQwootnL7-qr-1" value="" style="shape=image;verticalLabelPosition=bottom;labelBackgroundColor=#ffffff;verticalAlign=top;aspect=fixed;imageAspect=0;image=data:image/svg+xml,PHN2ZyB4bWxuczpjYz0iaHR0cDovL2NyZWF0aXZlY29tbW9ucy5vcmcvbnMjIiB4bWxuczpkYz0iaHR0cDovL3B1cmwub3JnL2RjL2VsZW1lbnRzLzEuMS8iIHhtbG5zOmlua3NjYXBlPSJodHRwOi8vd3d3Lmlua3NjYXBlLm9yZy9uYW1lc3BhY2VzL2lua3NjYXBlIiB4bWxuczpyZGY9Imh0dHA6Ly93d3cudzMub3JnLzE5OTkvMDIvMjItcmRmLXN5bnRheC1ucyMiIHhtbG5zOnNvZGlwb2RpPSJodHRwOi8vc29kaXBvZGkuc291cmNlZm9yZ2UubmV0L0RURC9zb2RpcG9kaS0wLmR0ZCIgeG1sbnM6c3ZnPSJodHRwOi8vd3d3LnczLm9yZy8yMDAwL3N2ZyIgeG1sbnM9Imh0dHA6Ly93d3cudzMub3JnLzIwMDAvc3ZnIiB4bWxuczp4bGluaz0iaHR0cDovL3d3dy53My5vcmcvMTk5OS94bGluayIgdmVyc2lvbj0iMS4xIiBpZD0ic3ZnNjAxNDIiIGlua3NjYXBlOnZlcnNpb249IjAuOTIuMyAoMjQwNTU0NiwgMjAxOC0wMy0xMSkiIHNvZGlwb2RpOmRvY25hbWU9ImF6dXJlX3BvcnRhbF9hcHBfc2VydmljZXMuc3ZnIiB4PSIwcHgiIHk9IjBweCIgdmlld0JveD0iMCAwIDY2LjM3IDY2LjA1IiBzdHlsZT0iZW5hYmxlLWJhY2tncm91bmQ6bmV3IDAgMCA2Ni4zNyA2Ni4wNTsiIHhtbDpzcGFjZT0icHJlc2VydmUiPiYjeGE7PHNvZGlwb2RpOm5hbWVkdmlldyBib3JkZXJjb2xvcj0iIzY2NjY2NiIgYm9yZGVyb3BhY2l0eT0iMSIgZml0LW1hcmdpbi1ib3R0b209IjAiIGZpdC1tYXJnaW4tbGVmdD0iMCIgZml0LW1hcmdpbi1yaWdodD0iMCIgZml0LW1hcmdpbi10b3A9IjAiIGdyaWR0b2xlcmFuY2U9IjEwIiBndWlkZXRvbGVyYW5jZT0iMTAiIGlkPSJuYW1lZHZpZXc2MDE0NCIgaW5rc2NhcGU6Y3VycmVudC1sYXllcj0ic3ZnNjAxNDIiIGlua3NjYXBlOmN4PSI0My44MDk4NDgiIGlua3NjYXBlOmN5PSIzNS40NzE1MTciIGlua3NjYXBlOnBhZ2VvcGFjaXR5PSIwIiBpbmtzY2FwZTpwYWdlc2hhZG93PSIyIiBpbmtzY2FwZTp3aW5kb3ctaGVpZ2h0PSIxMDE3IiBpbmtzY2FwZTp3aW5kb3ctbWF4aW1pemVkPSIxIiBpbmtzY2FwZTp3aW5kb3ctd2lkdGg9IjE5MjAiIGlua3NjYXBlOndpbmRvdy14PSItOCIgaW5rc2NhcGU6d2luZG93LXk9Ii04IiBpbmtzY2FwZTp6b29tPSI2Ljk2MTM3MzgiIG9iamVjdHRvbGVyYW5jZT0iMTAiIHBhZ2Vjb2xvcj0iI2ZmZmZmZiIgc2hvd2dyaWQ9ImZhbHNlIj4mI3hhOwk8L3NvZGlwb2RpOm5hbWVkdmlldz4mI3hhOzxnIGlkPSJnNjAxNDAiIHRyYW5zZm9ybT0idHJhbnNsYXRlKDAsMC4wMDIpIj4mI3hhOwk8dGl0bGUgaWQ9InRpdGxlNjAwOTUiPlBhZ2UtMTwvdGl0bGU+JiN4YTsJPGcgaWQ9Imdyb3VwNDM4MC0xIj4mI3hhOwkJPHRpdGxlIGlkPSJ0aXRsZTYwMDk3Ij5BenVyZSBQb3J0YWwgLSBBcHAgU2VydmljZXM8L3RpdGxlPiYjeGE7CQk8ZyBpZD0ic2hhcGU0MzgxLTIiIHRyYW5zZm9ybT0idHJhbnNsYXRlKDM1LjE3MDgpIj4mI3hhOwkJCTx0aXRsZSBpZD0idGl0bGU2MDA5OSI+U2hlZXQuNDM4MTwvdGl0bGU+JiN4YTsJCQk8cGF0aCBpZD0icGF0aDYwMTAxIiBpbmtzY2FwZTpjb25uZWN0b3ItY3VydmF0dXJlPSIwIiBzdHlsZT0iZmlsbDojNTlCNEQ5OyIgZD0iTTE0LjEyLDQ4LjMzYy0yLjI0LDAtOCwwLTE0LjEyLDAgICAgIGMwLDE0LjYsMCwxNC42LDAsMTQuNmMwLDAuMTIsMCwwLjE3LDAsMC4yM3MwLDAuMDYsMCwwLjA2YzAsMC4wNiwwLDAuMTgsMCwwLjI0YzAuMDcsMCwwLjA3LDAsMC4wNywwICAgICBjMC4yNCwxLjQ1LDEuNTEsMi41OSwzLjAzLDIuNTljMjQuOTYsMCwyNC45NiwwLDI0Ljk2LDBjMS43NiwwLDMuMTQtMS4zOCwzLjE0LTMuMTJjMC0yNC44NCwwLTI0Ljg0LDAtMjQuODQgICAgIGMwLTEuNjgtMS4zOC0zLjA4LTMuMTQtMy4wOGMtMy41OCwwLTMuNTgsMC0zLjU4LDBjMC4zLDAuOTEsMC40MiwxLjk0LDAuNDIsMy4wMkMyNC45LDQzLjk0LDIwLjExLDQ4LjMzLDE0LjEyLDQ4LjMzeiIvPiYjeGE7CQk8L2c+JiN4YTsJCTxnIGlkPSJzaGFwZTQzODItNCI+JiN4YTsJCQk8dGl0bGUgaWQ9InRpdGxlNjAxMDQiPlNoZWV0LjQzODI8L3RpdGxlPiYjeGE7CQkJPHBhdGggaWQ9InBhdGg2MDEwNiIgaW5rc2NhcGU6Y29ubmVjdG9yLWN1cnZhdHVyZT0iMCIgc3R5bGU9ImZpbGw6IzU5QjREOTsiIGQ9Ik02LjM5LDM4LjAzYzAtMS4wOCwwLjE4LTIuMTEsMC40OC0zLjAyICAgICBjLTMuNzQsMC0zLjc0LDAtMy43NCwwYy0xLjU2LDAtMi44MiwxLjA5LTMuMDYsMi41M2MwLDAsMCwwLDAsMC4wN2MwLDAuMDYsMCwwLjEyLTAuMDcsMC4xOGMwLDAuMDYsMCwwLjA2LDAsMC4wNiAgICAgYzAsMC4wNiwwLDAuMTgsMCwwLjI0YzAsMjQuODQsMCwyNC44NCwwLDI0Ljg0YzAsMC4xMiwwLDAuMTcsMCwwLjIzczAsMC4wNiwwLDAuMDZjMC4wNywwLjA2LDAuMDcsMC4xOCwwLjA3LDAuMjRsMCwwICAgICBjMC4yNCwxLjQ1LDEuNSwyLjU5LDMuMDYsMi41OWMyNC44MiwwLDI0LjgyLDAsMjQuODIsMGMxLjY4LDAsMy4wNi0xLjM4LDMuMDYtMy4xMmMwLTE0LjYsMC0xNC42LDAtMTQuNiAgICAgYy01Ljc4LDAtMTEuMzEsMC0xMy45MSwwQzExLjIsNDguMzMsNi4zOSw0My45NCw2LjM5LDM4LjAzeiIvPiYjeGE7CQk8L2c+JiN4YTsJCTxnIGlkPSJzaGFwZTQzODMtNiIgdHJhbnNmb3JtPSJ0cmFuc2xhdGUoMzUuMTcwOCwtMzUuMDEyKSI+JiN4YTsJCQk8dGl0bGUgaWQ9InRpdGxlNjAxMDkiPlNoZWV0LjQzODM8L3RpdGxlPiYjeGE7CQkJPHBhdGggaWQ9InBhdGg2MDExMSIgaW5rc2NhcGU6Y29ubmVjdG9yLWN1cnZhdHVyZT0iMCIgc3R5bGU9ImZpbGw6IzU5QjREOTsiIGQ9Ik0zMS4yLDYyLjk3YzAtMjQuODcsMC0yNC44NywwLTI0Ljg3ICAgICBjMC0xLjY5LTEuMzgtMy4wOS0zLjE0LTMuMDljLTI0Ljk2LDAtMjQuOTYsMC0yNC45NiwwYy0xLjUyLDAtMi43OSwxLjA5LTMuMDMsMi41NWMwLDAsMCwwLTAuMDcsMGMwLDAuMTEsMCwwLjE3LDAsMC4yM3YwLjA2ICAgICBjMCwwLjA3LDAsMC4xOSwwLDAuMjVjMCwxMS4yOCwwLDExLjI4LDAsMTEuMjhjMS4xLTAuMjksMi4xOS0wLjQxLDMuNC0wLjQxYzcuNTcsMCwxMy43NSw2LjA5LDEzLjc1LDEzLjcxICAgICBjMCwwLjEyLTAuMDYsMC4yOS0wLjA2LDAuNDFjMS45NCwwLjYxLDMuNywxLjYzLDUuMDMsMi45NmM1Ljk0LDAsNS45NCwwLDUuOTQsMEMyOS44Miw2Ni4wNSwzMS4yLDY0LjY3LDMxLjIsNjIuOTd6Ii8+JiN4YTsJCTwvZz4mI3hhOwkJPGcgaWQ9InNoYXBlNDM4NC04IiB0cmFuc2Zvcm09InRyYW5zbGF0ZSgwLC0zNS4wMTIpIj4mI3hhOwkJCTx0aXRsZSBpZD0idGl0bGU2MDExNCI+U2hlZXQuNDM4NDwvdGl0bGU+JiN4YTsJCQk8cGF0aCBpZD0icGF0aDYwMTE2IiBpbmtzY2FwZTpjb25uZWN0b3ItY3VydmF0dXJlPSIwIiBzdHlsZT0iZmlsbDojNTlCNEQ5OyIgZD0iTTE0Ljg4LDYyLjkyYy0wLjA2LTAuNDktMC4xMi0wLjk3LTAuMTItMS40NiAgICAgYzAtNC41OSwzLjY4LTguMzMsOC4zMS04LjMzYzEuNjksMCwzLjE5LDAuNDksNC41MSwxLjMzYzAuOTctMS4yNywyLjExLTIuMzYsMy40My0zLjI1YzAtMTMuMTEsMC0xMy4xMSwwLTEzLjExICAgICBjMC0xLjY5LTEuMzgtMy4wOS0zLjA2LTMuMDljLTI0LjgyLDAtMjQuODIsMC0yNC44MiwwYy0xLjU2LDAtMi44MiwxLjA5LTMuMDYsMi41NWwwLDBjMCwwLjExLDAsMC4xNy0wLjA3LDAuMjN2MC4wNiAgICAgYzAsMC4wNywwLDAuMTksMCwwLjI1YzAsMjQuODcsMCwyNC44NywwLDI0Ljg3YzAsMC4wNiwwLDAuMTgsMCwwLjI1djAuMDZjMC4wNywwLjA2LDAuMDcsMC4xMiwwLjA3LDAuMjRsMCwwICAgICBjMC4yNCwxLjQ1LDEuNSwyLjUzLDMuMDYsMi41M2M1Ljk3LDAsNS45NywwLDUuOTcsMEMxMC42LDY0LjQ5LDEyLjU5LDYzLjQsMTQuODgsNjIuOTJ6Ii8+JiN4YTsJCTwvZz4mI3hhOwkJPGcgaWQ9InNoYXBlNDM4NS0xMCIgdHJhbnNmb3JtPSJ0cmFuc2xhdGUoMzUuMTcwOCwtMTcuNzg5OSkiPiYjeGE7CQkJPHRpdGxlIGlkPSJ0aXRsZTYwMTE5Ij5TaGVldC40Mzg1PC90aXRsZT4mI3hhOwkJCTxwYXRoIGlkPSJwYXRoNjAxMjEiIGlua3NjYXBlOmNvbm5lY3Rvci1jdXJ2YXR1cmU9IjAiIHN0eWxlPSJmaWxsOiNGRkZGRkY7IiBkPSJNMC4wNyw1NS4zMmMwLDAsMCwwLTAuMDcsMC4wNiAgICAgYzAsMC4wNiwwLDAuMTMsMCwwLjE5YzAsMC4wNiwwLDAuMDYsMCwwLjA2YzAsMC4wNiwwLDAuMTgsMCwwLjI0YzAsMTAuMTgsMCwxMC4xOCwwLDEwLjE4YzYuMTMsMCwxMS45MSwwLDE0LjE2LDAgICAgIGM2LjAxLDAsMTAuOC00LjM3LDEwLjgtMTAuMjRjMC0xLjA4LTAuMTItMi4xMS0wLjQzLTMuMDFjLTIxLjQyLDAtMjEuNDIsMC0yMS40MiwwQzEuNTgsNTIuOCwwLjMxLDUzLjg5LDAuMDcsNTUuMzJ6Ii8+JiN4YTsJCTwvZz4mI3hhOwkJPGcgaWQ9InNoYXBlNDM4Ni0xMiIgdHJhbnNmb3JtPSJ0cmFuc2xhdGUoNi40MjkwNywtMTcuNzg5OSkiPiYjeGE7CQkJPHRpdGxlIGlkPSJ0aXRsZTYwMTI0Ij5TaGVldC40Mzg2PC90aXRsZT4mI3hhOwkJCTxwYXRoIGlkPSJwYXRoNjAxMjYiIGlua3NjYXBlOmNvbm5lY3Rvci1jdXJ2YXR1cmU9IjAiIHN0eWxlPSJmaWxsOiNGRkZGRkY7IiBkPSJNMjEuNTIsNTIuOGMtMjEuMDQsMC0yMS4wNCwwLTIxLjA0LDAgICAgIEMwLjE5LDUzLjcsMCw1NC43MywwLDU1LjgxYzAsNS44Nyw0LjgxLDEwLjI0LDEwLjcxLDEwLjI0YzIuNTcsMCw4LjEsMCwxMy44NywwYzAtMTAuMTgsMC0xMC4xOCwwLTEwLjE4ICAgICBDMjQuNTgsNTQuMTksMjMuMjEsNTIuOCwyMS41Miw1Mi44eiIvPiYjeGE7CQk8L2c+JiN4YTsJCTxnIGlkPSJzaGFwZTQzODctMTQiIHRyYW5zZm9ybT0idHJhbnNsYXRlKDM1LjE3MDgsLTM1LjAxMikiPiYjeGE7CQkJPHRpdGxlIGlkPSJ0aXRsZTYwMTI5Ij5TaGVldC40Mzg3PC90aXRsZT4mI3hhOwkJCTxwYXRoIGlkPSJwYXRoNjAxMzEiIGlua3NjYXBlOmNvbm5lY3Rvci1jdXJ2YXR1cmU9IjAiIHN0eWxlPSJmaWxsOiNGRkZGRkY7IiBkPSJNMTcuMTYsNjIuNjljMC03LjU5LTYuMTgtMTMuNjctMTMuNzYtMTMuNjcgICAgIGMtMS4yMSwwLTIuMywwLjEzLTMuNCwwLjQyYzAsMTMuNTUsMCwxMy41NSwwLDEzLjU1YzAsMC4wNiwwLDAuMTcsMCwwLjIzdjAuMDZjMCwwLjA2LDAsMC4xMywwLDAuMjVjMC4wNywwLDAuMDcsMCwwLjA3LDAgICAgIGMwLjI0LDEuNDQsMS41MSwyLjUyLDMuMDMsMi41MmMxOS4wMiwwLDE5LjAyLDAsMTkuMDIsMGMtMS4zMi0xLjMxLTMuMDgtMi4zNC01LjAyLTIuOTVDMTcuMSw2Mi45OSwxNy4xNiw2Mi44MSwxNy4xNiw2Mi42OXoiLz4mI3hhOwkJPC9nPiYjeGE7CQk8ZyBpZD0ic2hhcGU0Mzg4LTE2IiB0cmFuc2Zvcm09InRyYW5zbGF0ZSg5LjA3NjM0LC0zNS4wMTIpIj4mI3hhOwkJCTx0aXRsZSBpZD0idGl0bGU2MDEzNCI+U2hlZXQuNDM4ODwvdGl0bGU+JiN4YTsJCQk8cGF0aCBpZD0icGF0aDYwMTM2IiBpbmtzY2FwZTpjb25uZWN0b3ItY3VydmF0dXJlPSIwIiBzdHlsZT0iZmlsbDojRkZGRkZGOyIgZD0iTTIxLjkzLDYyLjk1YzAtMTEuODUsMC0xMS44NSwwLTExLjg1ICAgICBjLTEuMzIsMC45Mi0yLjQ3LDIuMDEtMy40MiwzLjI5Yy0xLjMzLTAuODUtMi44NC0xLjM0LTQuNTMtMS4zNGMtNC42MywwLTguMzEsMy43Ni04LjMxLDguMzljMCwwLjQ4LDAuMDYsMC45NywwLjEyLDEuNDUgICAgIEMzLjUsNjMuMzgsMS41MSw2NC40OCwwLDY2LjA1YzE4Ljg2LDAsMTguODYsMCwxOC44NiwwQzIwLjU1LDY2LjA1LDIxLjkzLDY0LjY1LDIxLjkzLDYyLjk1eiIvPiYjeGE7CQk8L2c+JiN4YTsJPC9nPiYjeGE7PC9nPiYjeGE7PC9zdmc+;" vertex="1" parent="1">
          <mxGeometry x="700.0000000000001" y="230" width="66" height="66" as="geometry" />
        </mxCell>
      </root>
    </mxGraphModel>
  </diagram>
  <diagram id="mTnsqiZaEYIZkqUon8Xs" name="Strona-2">
    <mxGraphModel dx="1194" dy="766" grid="1" gridSize="10" guides="1" tooltips="1" connect="1" arrows="1" fold="1" page="1" pageScale="1" pageWidth="827" pageHeight="1169" math="0" shadow="0">
      <root>
        <mxCell id="0" />
        <mxCell id="1" parent="0" />
        <mxCell id="UAdGFKXaKV5n_ljDEVXI-16" value="" style="rounded=0;whiteSpace=wrap;html=1;" vertex="1" parent="1">
          <mxGeometry x="243" y="341" width="607" height="265" as="geometry" />
        </mxCell>
        <mxCell id="kUSSpaPBGqidjH9PZ3Rn-1" value="" style="rounded=0;whiteSpace=wrap;html=1;labelBackgroundColor=#ffffff;fillColor=#f5f5f5;strokeColor=none;fontColor=#333333;" vertex="1" parent="1">
          <mxGeometry x="670" y="21" width="590" height="299" as="geometry" />
        </mxCell>
        <mxCell id="LB16u9Dc9FI3Ts_pFz4C-1" value="Azure Cloud" style="shape=image;verticalLabelPosition=bottom;labelBackgroundColor=none;verticalAlign=top;aspect=fixed;imageAspect=0;image=data:image/svg+xml,PHN2ZyB4bWxuczpkYz0iaHR0cDovL3B1cmwub3JnL2RjL2VsZW1lbnRzLzEuMS8iIHhtbG5zOmNjPSJodHRwOi8vY3JlYXRpdmVjb21tb25zLm9yZy9ucyMiIHhtbG5zOnJkZj0iaHR0cDovL3d3dy53My5vcmcvMTk5OS8wMi8yMi1yZGYtc3ludGF4LW5zIyIgeG1sbnM6c3ZnPSJodHRwOi8vd3d3LnczLm9yZy8yMDAwL3N2ZyIgeG1sbnM9Imh0dHA6Ly93d3cudzMub3JnLzIwMDAvc3ZnIiB4bWxuczpzb2RpcG9kaT0iaHR0cDovL3NvZGlwb2RpLnNvdXJjZWZvcmdlLm5ldC9EVEQvc29kaXBvZGktMC5kdGQiIHhtbG5zOmlua3NjYXBlPSJodHRwOi8vd3d3Lmlua3NjYXBlLm9yZy9uYW1lc3BhY2VzL2lua3NjYXBlIiB2ZXJzaW9uPSIxLjEiIGlkPSJzdmc1MDMyOSIgaW5rc2NhcGU6dmVyc2lvbj0iMC45Mi4zICgyNDA1NTQ2LCAyMDE4LTAzLTExKSIgc29kaXBvZGk6ZG9jbmFtZT0iYXp1cmUuc3ZnIiB4PSIwcHgiIHk9IjBweCIgdmlld0JveD0iMCAwIDYyLjc2IDQ4LjQ4IiBzdHlsZT0iZW5hYmxlLWJhY2tncm91bmQ6bmV3IDAgMCA2Mi43NiA0OC40ODsiIHhtbDpzcGFjZT0icHJlc2VydmUiPjxtZXRhZGF0YSBpZD0ibWV0YWRhdGExNjgwNyI+PHJkZjpSREY+PGNjOldvcmsgcmRmOmFib3V0PSIiPjxkYzpmb3JtYXQ+aW1hZ2Uvc3ZnK3htbDwvZGM6Zm9ybWF0PjxkYzp0eXBlIHJkZjpyZXNvdXJjZT0iaHR0cDovL3B1cmwub3JnL2RjL2RjbWl0eXBlL1N0aWxsSW1hZ2UiLz48ZGM6dGl0bGUvPjwvY2M6V29yaz48L3JkZjpSREY+PC9tZXRhZGF0YT48ZGVmcyBpZD0iZGVmczE2ODA1Ii8+JiN4YTs8c29kaXBvZGk6bmFtZWR2aWV3IGJvcmRlcmNvbG9yPSIjNjY2NjY2IiBib3JkZXJvcGFjaXR5PSIxIiBmaXQtbWFyZ2luLWJvdHRvbT0iMCIgZml0LW1hcmdpbi1sZWZ0PSIwIiBmaXQtbWFyZ2luLXJpZ2h0PSIwIiBmaXQtbWFyZ2luLXRvcD0iMCIgZ3JpZHRvbGVyYW5jZT0iMTAiIGd1aWRldG9sZXJhbmNlPSIxMCIgaWQ9Im5hbWVkdmlldzUwMzMxIiBpbmtzY2FwZTpjdXJyZW50LWxheWVyPSJzdmc1MDMyOSIgaW5rc2NhcGU6Y3g9IjQ5LjM2MTQ4NiIgaW5rc2NhcGU6Y3k9IjEyLjA3MjQ5NyIgaW5rc2NhcGU6cGFnZW9wYWNpdHk9IjAiIGlua3NjYXBlOnBhZ2VzaGFkb3c9IjIiIGlua3NjYXBlOndpbmRvdy1oZWlnaHQ9IjEwMTciIGlua3NjYXBlOndpbmRvdy1tYXhpbWl6ZWQ9IjEiIGlua3NjYXBlOndpbmRvdy13aWR0aD0iMTkyMCIgaW5rc2NhcGU6d2luZG93LXg9Ii04IiBpbmtzY2FwZTp3aW5kb3cteT0iLTgiIGlua3NjYXBlOnpvb209IjUuOTY3MzU3NyIgb2JqZWN0dG9sZXJhbmNlPSIxMCIgcGFnZWNvbG9yPSIjZmZmZmZmIiBzaG93Z3JpZD0iZmFsc2UiPiYjeGE7CTwvc29kaXBvZGk6bmFtZWR2aWV3PiYjeGE7JiN4YTs8cGF0aCBpZD0icGF0aDUwMzI0IiBpbmtzY2FwZTpjb25uZWN0b3ItY3VydmF0dXJlPSIwIiBzdHlsZT0iZmlsbDojMjA3NUI4OyIgZD0iTTE1LjY4LDQ4LjM2YzAuMDctMC4wNyw2LjQtMS4yMywxNC4wNi0yLjU3ICBjNy42NS0xLjM1LDEzLjk3LTIuNSwxNC4wMy0yLjU2YzAuMTItMC4xMS0wLjc1LTEuMTctMTAuMjItMTIuNDZjLTIuNTItMi45OS00LjYzLTUuNTYtNC43LTUuN2MtMC4wOS0wLjE5LDAuODktMy4wNCwzLjczLTEwLjgzICBjMi4xMS01LjgxLDMuODctMTAuNjUsMy45MS0xMC43NWMwLjAzLTAuMDksMC4xMy0wLjE3LDAuMjItMC4xN2MwLjE5LDAsMjYuMTQsNDQuOTEsMjYuMDUsNDUuMDZjLTAuMDQsMC4wNi0xMC42OCwwLjEtMjMuNjQsMC4xICBDMjUuMjEsNDguNDgsMTUuNiw0OC40MywxNS42OCw0OC4zNnogTTAsNDMuMDFjLTAuMDUtMC4xMywwLjU0LTEuMjksMS40NS0yLjg4YzAuODQtMS40Niw0LjQyLTcuNjYsNy45NS0xMy43N2w2LjQxLTExLjFsOS4wOC03LjYzICBDMjkuODgsMy40NCwzNC4wNCwwLDM0LjEzLDBjMC4xLDAsMC4xMywwLjA5LDAuMDgsMC4yNEMzMy43NCwxLjQ4LDE0LjMsNDIuOTIsMTQuMTMsNDMuMDVjLTAuMTksMC4xMy0xLjg0LDAuMTctNy4xNSwwLjE3ICBDMC45MSw0My4yMiwwLjA3LDQzLjE5LDAsNDMuMDF6Ii8+JiN4YTs8L3N2Zz4=;" vertex="1" parent="1">
          <mxGeometry x="1175" y="40" width="63" height="48" as="geometry" />
        </mxCell>
        <mxCell id="RbqFYqCdp0bgKpf0MLqr-1" value="Azure Table Storage" style="shape=image;verticalLabelPosition=bottom;labelBackgroundColor=none;verticalAlign=top;aspect=fixed;imageAspect=0;image=data:image/svg+xml,PHN2ZyB4bWxuczpkYz0iaHR0cDovL3B1cmwub3JnL2RjL2VsZW1lbnRzLzEuMS8iIHhtbG5zOmNjPSJodHRwOi8vY3JlYXRpdmVjb21tb25zLm9yZy9ucyMiIHhtbG5zOnJkZj0iaHR0cDovL3d3dy53My5vcmcvMTk5OS8wMi8yMi1yZGYtc3ludGF4LW5zIyIgeG1sbnM6c3ZnPSJodHRwOi8vd3d3LnczLm9yZy8yMDAwL3N2ZyIgeG1sbnM9Imh0dHA6Ly93d3cudzMub3JnLzIwMDAvc3ZnIiB4bWxuczpzb2RpcG9kaT0iaHR0cDovL3NvZGlwb2RpLnNvdXJjZWZvcmdlLm5ldC9EVEQvc29kaXBvZGktMC5kdGQiIHhtbG5zOmlua3NjYXBlPSJodHRwOi8vd3d3Lmlua3NjYXBlLm9yZy9uYW1lc3BhY2VzL2lua3NjYXBlIiB2ZXJzaW9uPSIxLjEiIGlkPSJzdmc2NDIwMiIgaW5rc2NhcGU6dmVyc2lvbj0iMC45Mi4zICgyNDA1NTQ2LCAyMDE4LTAzLTExKSIgc29kaXBvZGk6ZG9jbmFtZT0iYXp1cmVfc3RvcmFnZV9henVyZV9maWxlcy5zdmciIHg9IjBweCIgeT0iMHB4IiB2aWV3Qm94PSIwIDAgNzUuNTIgNjQuMzQiIHhtbDpzcGFjZT0icHJlc2VydmUiIHdpZHRoPSI3NS41MTk5OTciIGhlaWdodD0iNjQuMzM5OTk2Ij48bWV0YWRhdGEgaWQ9Im1ldGFkYXRhMTg3OTUiPjxyZGY6UkRGPjxjYzpXb3JrIHJkZjphYm91dD0iIj48ZGM6Zm9ybWF0PmltYWdlL3N2Zyt4bWw8L2RjOmZvcm1hdD48ZGM6dHlwZSByZGY6cmVzb3VyY2U9Imh0dHA6Ly9wdXJsLm9yZy9kYy9kY21pdHlwZS9TdGlsbEltYWdlIi8+PGRjOnRpdGxlLz48L2NjOldvcms+PC9yZGY6UkRGPjwvbWV0YWRhdGE+PGRlZnMgaWQ9ImRlZnMxODc5MyIvPiYjeGE7PGZpbHRlciBpZD0iZmlsdGVyXzIiPiYjeGE7CTxmZUdhdXNzaWFuQmx1ciBpZD0iZmVHYXVzc2lhbkJsdXI2NDA5NSIgc3RkRGV2aWF0aW9uPSIyIi8+JiN4YTs8L2ZpbHRlcj4mI3hhOzxzb2RpcG9kaTpuYW1lZHZpZXcgYm9yZGVyY29sb3I9IiM2NjY2NjYiIGJvcmRlcm9wYWNpdHk9IjEiIGZpdC1tYXJnaW4tYm90dG9tPSIwIiBmaXQtbWFyZ2luLWxlZnQ9IjAiIGZpdC1tYXJnaW4tcmlnaHQ9IjAiIGZpdC1tYXJnaW4tdG9wPSIwIiBncmlkdG9sZXJhbmNlPSIxMCIgZ3VpZGV0b2xlcmFuY2U9IjEwIiBpZD0ibmFtZWR2aWV3NjQyMDQiIGlua3NjYXBlOmN1cnJlbnQtbGF5ZXI9InN2ZzY0MjAyIiBpbmtzY2FwZTpjeD0iLTQwLjc1NzY0MiIgaW5rc2NhcGU6Y3k9IjE0LjI0NTcwNSIgaW5rc2NhcGU6cGFnZW9wYWNpdHk9IjAiIGlua3NjYXBlOnBhZ2VzaGFkb3c9IjIiIGlua3NjYXBlOndpbmRvdy1oZWlnaHQ9IjEwMTciIGlua3NjYXBlOndpbmRvdy1tYXhpbWl6ZWQ9IjEiIGlua3NjYXBlOndpbmRvdy13aWR0aD0iMTkyMCIgaW5rc2NhcGU6d2luZG93LXg9Ii04IiBpbmtzY2FwZTp3aW5kb3cteT0iLTgiIGlua3NjYXBlOnpvb209IjMuNjYwMjg4NyIgb2JqZWN0dG9sZXJhbmNlPSIxMCIgcGFnZWNvbG9yPSIjZmZmZmZmIiBzaG93Z3JpZD0iZmFsc2UiPiYjeGE7CTwvc29kaXBvZGk6bmFtZWR2aWV3PiYjeGE7JiN4YTs8cGF0aCBpZD0icGF0aDY0MTA4IiBpbmtzY2FwZTpjb25uZWN0b3ItY3VydmF0dXJlPSIwIiBzdHlsZT0iZmlsbDojYTBhMWEyIiBkPSJtIDAsNjEuNDggYyAwLDEuNTEgMS4wNiwyLjg2IDIuODcsMi44NiBoIDY5Ljc4IGMgMS41MSwwIDIuODcsLTEuMDUgMi44NywtMi44NiB2IC01MCBIIDAgWiIvPiYjeGE7JiN4YTs8cGF0aCBpZD0icGF0aDY0MTE2IiBpbmtzY2FwZTpjb25uZWN0b3ItY3VydmF0dXJlPSIwIiBzdHlsZT0iZmlsbDojN2E3YTdhIiBkPSJNIDcyLjY1LDAgSCAyLjg3IEMgMS4wNiwwIDAsMS4zNSAwLDIuODcgdiA4LjYgSCA3NS41MiBWIDIuODcgQyA3NS41MiwxLjM1IDc0LjQ2LDAgNzIuNjUsMCBaIi8+JiN4YTsmI3hhOzxyZWN0IGlkPSJyZWN0NjQxMjQiIHg9IjI4LjM5OTk5NCIgeT0iMTYuNDU5OTk5IiBzdHlsZT0iZmlsbDojZmZmZmZmIiB3aWR0aD0iMTkuMDMwMDAxIiBoZWlnaHQ9IjExLjQ4Ii8+JiN4YTsmI3hhOzxyZWN0IGlkPSJyZWN0NjQxMzIiIHg9IjI4LjM5OTk5NCIgeT0iMzIuMDIiIHN0eWxlPSJmaWxsOiNmY2QxMTYiIHdpZHRoPSIxOS4wMzAwMDEiIGhlaWdodD0iMTEuNDgiLz4mI3hhOyYjeGE7PHJlY3QgaWQ9InJlY3Q2NDE0MCIgeD0iNTEuMDUwMDAzIiB5PSIzMi4wMiIgc3R5bGU9ImZpbGw6I2ZjZDExNiIgd2lkdGg9IjE5LjAzMDAwMSIgaGVpZ2h0PSIxMS40OCIvPiYjeGE7JiN4YTs8cmVjdCBpZD0icmVjdDY0MTQ4IiB4PSI1MS4wNTAwMDMiIHk9IjE2LjQ1OTk5OSIgc3R5bGU9ImZpbGw6I2ZmZmZmZiIgd2lkdGg9IjE5LjAzMDAwMSIgaGVpZ2h0PSIxMS40OCIvPiYjeGE7JiN4YTs8cmVjdCBpZD0icmVjdDY0MTU2IiB4PSI1LjczOTk5NzkiIHk9IjE2LjQ1OTk5OSIgc3R5bGU9ImZpbGw6I2ZmZmZmZiIgd2lkdGg9IjE5LjAzMDAwMSIgaGVpZ2h0PSIxMS40OCIvPiYjeGE7JiN4YTs8cmVjdCBpZD0icmVjdDY0MTY0IiB4PSI1LjczOTk5NzkiIHk9IjMyLjAyIiBzdHlsZT0iZmlsbDojZmZmZmZmIiB3aWR0aD0iMTkuMDMwMDAxIiBoZWlnaHQ9IjExLjQ4Ii8+JiN4YTsmI3hhOzxyZWN0IGlkPSJyZWN0NjQxNzIiIHg9IjUuNzM5OTk3OSIgeT0iNDcuNDMiIHN0eWxlPSJmaWxsOiNmY2QxMTYiIHdpZHRoPSIxOS4wMzAwMDEiIGhlaWdodD0iMTEuNDgiLz4mI3hhOyYjeGE7PHJlY3QgaWQ9InJlY3Q2NDE4MCIgeD0iMjguMzk5OTk0IiB5PSI0Ny40MyIgc3R5bGU9ImZpbGw6I2ZjZDExNiIgd2lkdGg9IjE5LjAzMDAwMSIgaGVpZ2h0PSIxMS40OCIvPiYjeGE7JiN4YTs8cmVjdCBpZD0icmVjdDY0MTg4IiB4PSI1MS4wNTAwMDMiIHk9IjQ3LjQzIiBzdHlsZT0iZmlsbDojZmNkMTE2IiB3aWR0aD0iMTkuMDMwMDAxIiBoZWlnaHQ9IjExLjQ4Ii8+JiN4YTsmI3hhOzxwYXRoIGlkPSJwYXRoNjQxOTYiIGlua3NjYXBlOmNvbm5lY3Rvci1jdXJ2YXR1cmU9IjAiIHN0eWxlPSJmaWxsOiNmZmZmZmY7ZmlsbC1vcGFjaXR5OjAuMiIgZD0iTSAyLjg3LDAgQyAxLjUxLDAgMCwxLjM2IDAsMi44NyB2IDExLjE4IDQuOTggNDIuNDUgYyAwLDEuNTEgMS41MSwyLjg2IDIuODcsMi44NiBIIDYuMDQgTCA2NS44NiwwIFoiLz4mI3hhOzwvc3ZnPg==;" vertex="1" parent="1">
          <mxGeometry x="995" y="126.50000000000091" width="77" height="64" as="geometry" />
        </mxCell>
        <mxCell id="EecznokWlXpdmQzGlY_W-2" value="Azure App Service" style="image;aspect=fixed;html=1;points=[];align=center;fontSize=12;image=img/lib/azure2/app_services/App_Services.svg;labelBackgroundColor=none;" vertex="1" parent="1">
          <mxGeometry x="733" y="126.5" width="64" height="64" as="geometry" />
        </mxCell>
        <mxCell id="WQC7tmoXZDf68g6l8asP-2" value="" style="shape=image;verticalLabelPosition=bottom;labelBackgroundColor=default;verticalAlign=top;aspect=fixed;imageAspect=0;image=data:image/png,iVBORw0KGgoAAAANSUhEUgAAA7kAAAEQCAYAAAB1K7PPAAAtRElEQVR42u3dabRdZZ3g4Q3IkIQECMiYkIAgIoMDioySQO7NAAEEDGGUIWJEglA4lFoIoqJ4YwmizOBSHEpr+tDfurvm6q5eVQ5l9+qq0p5Wd3VB+a2/Z7F2v2/Oe+Qm5ib33vPuffbw/Nb6L6haer13n3322c/ZU1FIkiRJkiRJkiRJkiRJkiRJkiRJkiRJkubVu174k3PX/7L85cTPXyvnMmvmMZf9/dzn0hpm9Rxn1R5m8pXy/uKcuw60RkmSJElSy4ALuYArSZIkSZ0B7nyh20XkAq4kSZIkdQC4kAu4kiRJktQZ4PYduYArSZIkSR0Cbl3X5V7aQOgCriRJkiR1DLh9Re46wJUkSZKk7gG3j8gFXEmSJEnqKHD7hlzAlSRJkqQOA7dPyAVcSZIkSRpz57z0p++pErh1IXfcd1he/0p5H+BKkiRJ0piBu+6X5X+rErh9QO5O4K5a9QZrlCRJkiR1HLhdRy7gSpIkSVIDgLu+JuB2GbmAK0mSJEkNAe5kTcDtKnIBV5IkSZIaBFzInT9yAVeSJEmSGgZcyJ3fAK4kSZIkNRC4kAu4kiRJktQZ4EIu4EqSJElSZ4ALuYArSZIkSZ0BLuQCriRJkiR1BriQC7iSJEmS1Pje860/O282wIXcvc+6fy3vBVxJkiRJGjdwf1H+99kAF3IBV5IkSZI6A1zIBVxJkiRJ6gxwIRdwJUmSJKmRwN0wD+B2DbmAK0mSJEkdAe7aeQAXcgFXkiRJkhoJ3LUNBm7TkQu4kiRJktQw4EIu4EqSJElSZ4ALuYArSZIkSb0FbtORW/WdlQFXkiRJkhoKXMidG3IBV5IkSZLG3Lnf/vPzZwIu5M4euetfLe8BXEmSJEkaP3D/x0zA9fig2SEXcCVJkiSpBcCF3H0jF3AlSZIkqSXAdWflvSMXcCVJkiSpw8DtE3IBV5IkSZJaBFzIBVxJkiRJ6gxwIXfPyAVcSZIkSWohcD0+6DeRC7iSJEmSBLiduB4XcCVJkiSpAcC9/JdzBy7k7opcwJUkSZKkhgB33X+eO3Ah9/UBXEmSJElqEHAhd/7IBVxJkiRJGnMXfPs/jAW4XUPuhlfLjwCuJEmSJI0buL8o/+cQuI7iAq4kSZIkdQa4kDt35AKuJEmSJHUIuH1GLuBKkiRJUkOB29WjuFUhF3AlSZIkqWPA7StyAVeSJEmSGgxcpyoDriRJkiR1BrgeHTQ75AKuJEmSJHUUuH07VRlwJUmSJKkFwO3yUdxcyAVcSZIkSeowcPt0qjLgSpIkSVJLgOtU5b0jF3AlSZIkacyd//J/vKCJwG0bcte/Wn4YcNWizgxzZ5i7w2w12WdbmGvCHJX5dTsozJowHx3x94v//cvSz5MkSeoWcDf8ovxfswGuo7gzIxdw1cIuCPOFMF8N8xWTfZ4Ic0+YEzK/boeEuSnMN0b8/eJ//8b08yRJkgDXUVzAFeQayJUkSWotcCF3z3M54ApyDeRKkiQBbieA+yvAFeQayJUkSWodcCEXcAW5BnIlSZIAtyXAnQBcQS6UQq4kSRLg9vEoLuAKcg3kSpIktRS44ziK22TkAq4g10CuJElSD4HbxVOVAVeQayBXkiQJcDtxFBdwBbkGciVJkloMXEdxAVeQayBXkiSpMZ333b+5sG3AbSJyr/hVuRVwBbkGciVJksYN3H8q//c4gLsWcCXINZArza7Dw2wMc2+YrSPMR8Nc2qPldnKYj424zD4cZkuYc6yGkjoPXEdxAVeQayBXqqk3hvlQmK+PuC4/Geb6Hi23s8I8O+Iy2x7mi2HWWA0lAS7gSpBrIFeCXMiVpK4Dt22nKU8ArgS5kAu5glzIhVxJgNuVo7gTgCvlQm7cUXqkGFxTF3dWt5pfz7Yw14Q5CnIlyIVcSQJcwJXagdx4tDLewORYi7O2IFeQC7mQKwlwqwJuF5ALuIJcyIVcCXIhV5I6AFxHcQFXkAu5kAu5glzIlSTAbTFwJwBXglzIhVxBLuRCriTAzQncScCVIFeQK0Eu5ErSe77/44uaANy2H8W9/FflXYArQS7kQq4gF3IhV9L4gft/ABdwJciFXMgV5EIu5EoC3AYAd9zIBVwJciEXcgW5kAu5kjoA3By4bTtwrwRcCXIhF3IFuZALuZIAF3AlyIVcyJUgF3IlCXAbglzAlSAXciFXkAu5kCsJcAFXglzIhVwJciFXkgAXcCXIFeRKkAu5kpQFuLlw2/brcAFXglzIhVxBLuRCriTA7cRRXMCVIBdyIVeQC7mQKwlws+IWcCXIFeRKkAu5kgC3E0dvAVeCXEGuBLmQK6mnXfiDn1wMuKPPxn8ttwCuBLmQC7mCXMiFXEnjB+4/jxu3gCtBLuRCrkUqyIVcSaoduFXgFnAlyIVcyIVcQS7kShLgAq4EuZALuRLkQq4kzRW4VeEWcCVBLuRCriAXciFXUm3AbQNuAVeCXMiFXAlyIVczFvdXjwlzapg37TYnhznSIlLngVslbAFXEuRCLuQKciEXcrMj9uj0elwR5uYw94Z5KC3f2b4WU2EeCXNXmNvCvDfM28McZxE3tv3CLA7z1vTa3xFmW3pPTe3hNX4szO+E+WD6/I6v8bIwB3YWuHXgFnAlQS7kQq4gF3Ihd6QOCHN8mEsSaj43R8zOdabSaxTfI5eFWZl+B42n/dMXD+vCfCrDax9f3y+lLzfeEWZh64FbF2xz4xZwJciFXMiVIBdyewbbeMRtYzE4EvfVojrUzuY1i0d8rwnz5oQu1fOZuzrMAxW+/lNpf2yilcCtE7eAKwlyIbdByI3XoMUjHx8Js3Wec3eYO8Oc1oPXeEWY20dcXnHuC3Nx5t9teabfLeI2nt6X42hY/O8/GGbLiL/TbNbB+L/x9nm+Bz6W4Xe4K+1s/26Gnep4CuVvF4NTKKtcbveEubZo05GqolgUZjLMJzIs6yrBe3VCeFc6KH2Jsy6Bbz4TX7eLwiwY8Xc5OH0J9EhR7RH76Ud1N7UCuHWjtircAq4EuZALuSP2trSjMMq6Fv+7nw/zrh68xqcn/I26c/3NMO/L/Ludlul3a+MMj36unsdyO7sY/ehrW+drxeBa1cUteO+9Mb1nvlADbHLh6LH0OXxSB7Z9h4a5Ie1bjPJZEb+8me+NverEbXuQG4G7/h8BF3AlyBXkQi7kQi7ktgS58Xe7LmFjqoXLuCvYHSdy90vL7hNF/aelNxu5F/zwp+8dF3AnuwXcOwFXglxBLuRCLuRCbsXFu9telICxvQPLeoilW4p2PqJoXMiNpzZvTF8UTI3xdWsechNw/y/gAq4EuYJcyIVcyIXcxiM3Xvv+sfT7dXFdje/TSyB3n8U7Jn+yGO9NxZqJ3HEBt0u4BVwJcgW5kAu5kAu5NW1DJ9M2Zarjy34qLfu2fEbXidz902fT9gasB81D7jiAOwm4kiAXciEXciEXciF3ri0tBnf2fqJn6218z66C3F8Xby4V7+D89aJZp5k3A7l1A3cScCVBriAXciEXciF3Pp2R1t2v9vA1GCIqfnYs6jlymwbcZiG3TuBOAq4kyBXkQi7kQi7kzqd4Wup56feY6ulrMB1T8XnPTX1mcdXIbSJwm4PcOoA72XHcAq4EuYJcyIVcyIXciouYu7JoxnWXTZm4Lf1UmJU9Q240x/kZPju7idyqgTsJuJIgV5ALuZALuZCbA7hx/X8SbFsD3SqR++aiuTcbGy9yqwLuZI9wC7gS5ApyIRdyIRdyARd0a0Ru/PeHiuZejz0+5OYG7uSYBnAlQS7kQi7kQi7kdhi5gNte6FaB3Hijrc1Fs++oPR7k5gLuZI9xC7gS5ApyIRdyIRdyKy7eWGh90YzrLqfSZ+xHisFji7amf8b/+6G0PjXh9Ynv5d8Ks6BjyF2afuZbwjzV8PdI/cg9/0c/vWQU4E7C7c654tXydsCVIFeQC7mQC7mQW1HxLsrnF/XfRfmxYnA0dFP6XD2x2PszWqd3UPrPx8cbXZkQ/PAYALw9IXz/DiH3iGJwFHdrWicgdxfg/kP5L21CLeBKglzIhVzIhVzI7SFyz0ifSXUB9+NhLglzdOa/48AwbwpzeZjfKeq5jjQusy+HeX+HkBu/aDi1qOco7mPptborfVFxT9pWTBVNQ+6+gDvZ4JkAXEmQC7mQC7mQC7n9Qe6JGT7PZgORiJl4ZHBFTduC/cKclOD05YoBH9fvh8O8pwPI/URabluKvEdxh6egXx/mvWGWpS8l9vWlxWnpc/CKMB/dA4DrQW4E7roA3MmGY7bJuAVcCXIFuZDbSeTGm/qsDHNKMTjaNN+JSDgn7fA9PuLf+UTamT12xN9pXxP/5pPDHD7PnffTMvwOy8NMpNd21J31R4vBkbvja1huEQMHVPR+OTIhsKobCw1x+6Eacbun4ut0d4b3y762s58c42d6DuRuT39D3L48men1jyi9pRhc35vDNhG+ZxaDG2I9nH7napHbRuBOAK4kyIVcyIXcepCbszcmOHx9xL8z7she36NtwFnF6EeFh0el17R8WUQsXJYB/Xvb7nwmgaQJxS8K3l5U+zicuG7c1WLk5vxy49H0OXl0hX9zvC77vDD3pb8dcCcAVxLkQi7kQi7kQm5/kfuWaX9PFTcCikfaFjbw714S5uaKMLg9ba8v6TFyH0v7Nm+s+QuMw7P/1DYBdwJw593EL8otl/3stS+u+dlrD1/awlk1hnnvtLn4Z689tuZfyquOmZxcxBmQC7mQC7mQC7mQO8aqOk15eG3qxQ3/++NR7IvStjH3tbrxZ8Ybax3RM+ROpc+qCzuxpWgDcCdaME0H7uQvymcv+/vXdoQpLx3zrJ7HrBphLpnnBNjuMhOvlD87Zs1VZzEG5EIu5EIu5EIu5I4ZeFWcphy3M58tBtdztqED0vY19+nLw7stb6r57xkncuPffH+YowAXblsJ3MtaCNzVYwDu7sgFXMiFXMiFXMiFXMhtSFXcTTm+3+JdeZe3cHmsTNuMnMsj/qxPp5/dZeQOQf+BovrHXPUbuBMtG8BtLnBXAa4gF3IhF3IhF3K7hdyFab3OcefcLgC3KugOT4G+tcPIHQL35s5sHZoG3ImWDuB28zTl6cgFXMiFXMiFXMiFXMhtUGekz55c16G27RTlvRUf2fRYke9GXHUfza0TuYALtoDb16O4gAu5kAu5kAu5kAu5DSreffa2DOvM9OUQtyuXdmTd2D9tI38305cAdR/NrQu5Q+De1JmtwkW//19WjRO4Ex2Zja+WtwEu4Apyi9cfNXBv2lnd2rPZlhBR540qIBdyIRdy+4rcnEdxh9C5tmPrx4IwG4t8p3PXeTS3TuTG/ZZuPC0kAfcVqAVcpynvHbmAC7lmTkey7wlzPORCLuRCLuRWWrwp0OaMePtags7BHVxH4hevD6S/MQcIHw1zVUeQuz2h/fhOvNJ1AHeiBwO43T+KC7iQayAXciEXciG3gZ2UwJXjetO4PfntMKd0eD05NczjRZ6j3nFbFB+vs1/LkTuVtq0XAG5PMQu4/QNuHMCFXAO5kAu5kAu5DSwebd2QYbs3/TTlqzq+nsQj3zdnAmNcXx4O856WIzfOlk68uuf94c/fufYfy3+e6DFO+whc1+HOC7g/BVzINZALuZALuZDbwE4I82CG98TwNOX7wizpwbqS627Ldd2AqkrkDo/eH9mZVzcg90cBajtgtZvAXftP5fNNA27bkLv21fKnR6y6/Ezmg1wDuZALuZALuQ0svu+fLvIdkTy/J+tKvLHSdUWeu1HH7VG8zndBC5E7VXTrLtqgC7iAC7iCXMiFXMiFXMhtMXJz3nAqHsW9u2ef9bmuza3jlOWqkBs/Pz5eDB6x1L1AF3C7CtxVgCvIhVzIhVzIhdxuIjfXDaf6dhR3WHy28JYE3RzXMm9qGXK7exQXdAG36cBdDbiCXMiFXMiFXMiF3N2LR94uCvNU4SjuKMvw3EzLsOq7LFeB3G4fxd0FSP9Q/hB0AbfPpykDriAXciEXciEXcluA3FynKse/Nz7rdV1PP+/jjbty3IAqbofjM2ZXtgS5U2k939CbVxp0AbevpykDriAXciEXciEXcluC3BWZPqfieykezVve08/7eMryncXopyxvT9vyS1qC3O0J5cf36tUG3XYD91LABVxBLuRCLuRCLuR2Gblx2/FMkeeU1VuL/hb37y9O24QmX5dbBXI/3MtXHHQHc8Wr5a2A2+3rcAFXkAu5kAu5kAu5LUJu3DZdnmFb19cbTu3eiZm+MIjbpW0tQG4/bjgFuoDbJeCuAlxBLuRCLuRCLuR2G7lHhtmaATzD57u+seef+UcXg1N3R92uDG/kdETDkdvPU5VBF3ABV4JcyIVcyIVcyG1sua7HfTxhue8dVuS7LvczYU5rOHK/mr7cUJ+guwZwe3EdLuAKciEXciEXciG3pcg9LdPf2ee7Kk9vcfrseCLDMv1s2q43Gblx7vCy9wS6awC3N9fhAq4gF3IhF3IhF3JbitwD0+826o2S4nYjHnU8w0d+1ptPxS8Ormowcoe/4zVe9o5Dd02LgDv5T+ULgDsaciNwl67eaIOuOpA7fJzAvWlndWvPZltCxFGQC7mQC7mQm61FCSijbufiduMTaZmtDPOmns7JYd4c5uoM77c2IDeu3w+FeaddvY5Cdw3gAq5ULXLjB1G8Pf+xFifkQi7kQi7kZio+1/W2DOuGqWaqusNyTuTGU6rfapehY9Bd03LgXgq4gCvIFeRCLuRCbl+RuyzMgxneA6afyI2fF79dDO7QrbZDd81eBnABV4JcyIVcyIVcyIVckwm594fZD3Jb3OQ/lj9oMnTXAG5ngbsKcAW5glzIhVzI7R9yc9xZ2VQ3VT0rF3L7Dt01s5y2APfSDgJ3NeAKcgW5kAu5kAu5kAu5kAu6o8MWcAFXglzIhVzIhVzIbTFy3x3maZiEXMjtKHTXzHM2vFLeAriAK0Eu5EIu5EIu5LYMubmekWsgF3KbBN01I07TgXvyX5cvnP4Xr+1470+695iguq7DBVxBLuRCLuRCLuRCroFcyG0sdNdknDYA96R//9qOlf/utfItf/FaeXHDoAu4glzIhVzIhVzIhVzINZALumNEbRuBG6aM0zTotgG4k6+WPwFcQS7kQi7kQi7kQq6BXMgdG3TX1DSNB+5flS9NB27ToNsa4F68/q3edYJcyIVcyIVcyIVcA7mQWzl0AzR3rKkRtV0AblOgC7iCXMiFXMiFXMiFXMg1kKuGQLftwB03dAFXkAu5kAu5kAu5kAu5Zk4Tt00PhFkAuaALuHOB7s/7AdxVgCvIFeRCLuRCLuRCbvuQu62C1x5yGwzd79UB3a4Bt27oAq4EuZALuZALuZDbaeRuT++jLWG2mmwTP/M/GOZCyAVdwG0QdAFXglzIhVzIhVzI7TxyH08YU3uC3L5Ct+vArRq6gCtBLuRCLuRCLuT2ArlfC3NfmCU+NiBXDYbuFa+UN/UBuDuRG2ZFgO5pGaELuBLkQi7kQi7kQm7jkbt/mIvDPAW5kAu5HYdu34C7MiN0VwOuBLmQC7mQC7mQ2xbkxk7L8DfG9098zM1yHxuQqwZCty/AXTnDjAJdwJUgF3IhF3IhF3J7idy4zfhMmDN8bECuGgDd+JzY4azvOXBHgS7gSpALuZALuZALua1E7ooMn0/b0zZjtY8NyNUYoDsdtX0D7so5zFyg2yLg/hhwBbmCXMiFXMiF3F1aFubBEd8DU2G+HOYqHxuQqxqgGwC7YybYtga4f11+q07gzha6q1sG3CPPu/x07wpBriAXcnfr3AS/KciF3J4iN+JkawbseIwQ5Ko26P7XvUO368BdOeLMBF3AlSAXciG3Q+/NZ0Z8fSEXctuM3MUJO08W7rAMuZDbfugC7vygC7gS5EJu55Ebd8rjqYfnd/z1jY9PuaIY/fEpkAu5bUZurmfluvkU5Grc0O0ycFdWMEPoXhSge+nPAVeCXMjtOHK/kuC3oeOv76IwmzO8vpALuW1G7nC78UyGv/PRMOt8dECuamziH8rvR+BueKW8pYvAXVnhrAhzYoDumzNAF3AFuZALuZDbkI5N76lRd/IgF3LbjtyTi8F16duL0a/L3eqjA3JVY+f8mx8vvOJX5duOOfvsRYA7N+CuyADdVYAryIVcyIXcZpXrzsqQC7ltR+7RYe5NSB3lb43vpQfS+ibIleYH3LpwOyp0AVeCXMhtHXIj2q7twfsyx02nIBdy247ceADommL0m095Xi7kSvMH7soxAXc+0AVcCXIht1bknhBmW4Ydl7ize0uYBR19bXNejwu5kNt25MbeHebpDO8FpyxDrjQ34K5sAHDnAl3AlSAXcluL3K8nFHV1x2VlmI8Xg8eeQC7kQm6+63LdZRlyBbizA26TcDsb6K4CXAlyIbftyI1HY+IzL0/s6Gt7UVpGU5ALuZC7syPTOjLqtmMqTZ/WE8iFXM0FuCsbDNyZoAu4EuRC7liRe3QmzMR1NV5b964Ovq6Hhbm1GP36Q8iF3C4hd//05U+O50bHG1DFMyWW9/wz5OAwx0CuALdFuP0N6P75a+WFAbqrf14bcP8OcAW5gtw9/s45rjWdSuvcmg6+ru9M78VRT8uEXMjtEnJjJxV5TlkeniFxY88/Q85O24a707KFXHW3k/6i/PZMwG0bbqfP8n/7Wnnqn+WD7r6Ae9SF606zNglyBbm/UTwac23ascoBt67dYTkeWbkm0/KBXMjtGnJznbLs2tzBWTWfLgZHtSP6H2sYdiFX1QN3ZYuBG4/iDmcndEc8onsJ4ApyIRdyR+2yIs+jceI695GOrXNvLfI9G7evyL0JcjuL3Fi8ROHpTO+LeGO3benLpT61KH1BuPv7LWL3y8XgmcTnhNkPctU54K5sOW53B24O6AKuIBdyITdL5xd5TseNEPxsMXj2bheq4lrcviE3bofuSjvxkNtN5Mab1z2Y6YugIequ6tlnxxkJ+Pu6sV28bvmdY8Iu5CovcLuK21GhC7iCXMiF3GxFlD4y4vo2HW9d2UE9P4Ej57W4kAu5XUPuwrQu5/oyaHja8pk9WWfiZ/Tn5rj9HQd2IVejAzfAcMfKngB3PtAFXEEu5EJu1uKRmHuKPNfVdeWU5XiX1/hIpMcrAC7kQu5sHqlzTZt2X4s8N6Caftry/cXgbIoud3iYLSNsZyJ231XTZwXkqn3AXTFm4O4C3X3cjApwBbmQC7mV7LzcXOQ5ErM9rbeXtPh1jNcD5roZV9+R+7W0I34K5M55+/2BFv3duY/mDjF0e4fXlQVhNmZYZnGbG48Ex3srHAS5AtwG4XY20L0EcAW5kAu5Vba2yHfzmK8nILV1J+bi9P6ZKiB3VOTG6zTj9ZrvgNw5zeNp+31Qi/723Edzh9fnXtvB9STe1f5dxet3Us6xrOI/b4Vc9Rq4KxoK3JmgC7iCXMiF3MqLd+78UpHnutzhdaxtfGZuVXdT7itytyeorOnJNiAXcuMR8N8Kc3yL/vYqjuZ2Ebq5gTuEY3z80ErIVS+B23Tc7gm6FwTorvo54ApyIRdyK25l2qnOdQ1q/DnxmtYT2/SRXAxOrf1axcDtE3L79hihXMiN2/6Hwpzbsr//xAyfXV2GbhXAHS6fTRX/7pCr5gG3TbidPssCdE/ZB3QBV5ALuZCbbQcm13W50/+OzWEOANzWITcelbsuw7o8/MLj3p5si+KXRZ8tRj8TYCr9jM0t+/sPLAbXhua+nr0L0K0CuEM0xm3XEZCr3gB3RUuBu3za7A26gCvIhVzIzdpFxeDIXc4jDBE46wG3dciN14JemQkrw0fiXNKDbUAu5A5PWf5oCzFwbEXvp7g9+VKC/8KWLZN4k6nLi9fvnJ1rmcT31sNh3lPTF6GQq/ECd0WLj94u38PsCboTr5Z/C7iCXMiF3KzFO+B+MvPO6fa0Y9pU4IwDuG1AbuzCMM9k+nvj9iie/tz1RwktDXNnkec077Y9L3d6ZxTV3bwt/sx4ZkBbLoVYXAzOknmiguUQ/3lbTX8H5Gofn6Z/WX6nKuCu6CBw9wTdtRG45172ZmuTIBdyITdr8dE51xd5TlFtA3TfXgyOglR9k6m2IvftRb4j+305mhsh8P6M76F4JsQ9CUptKv6+8YjrkxW9f+L69PmGfwGwX5hTw3yqom1MXacpQ6723bFP/qePBeT+P7idPW53ge6flOUpf1qWC848/wJrkyAXciG3ks5L612ux4DsftQhngJ7YANepw1hHqvg7+wSck/N/CXA8I7BJ3Z4GxCvu1wV5qmM75upBOfW7fYW1Z8lEZfN/WldbVJL0jb8saKao9lxuxVPi39bzV/gQK5mLteR3BUdwO1cgHvin5XlcT/4Vbnkw39QLr7jD/+2OOEtjuQKciEXcvMXjwrcUeQ53XKm9TIemTpuTK/Rm4rBdY6PF+PBbZuQm/MOy3XdhOoNxeCMhHH2liL/te1fTl8QVdFBCWVVVOVpy9OXT8Tk1jArxvzax2uF16fP7+0V/r113E0ZcjUP6I5wTW7fcLs7cBdtfr5cdNNL5eIP/vHfFsef7ZpcQS7kQm7+ct+AaqZTVzcW9V2jGcF2W/rfrnKHu0vIzXnzqaqP6EbYTqbXeMmYl9uyIv+17cObLsU7Xi/I+Lsem77I+HBFy6Kquy3vDX/bwryjg7idvv380BjWa8hVfuiuqHmaDtzhLN7yx38HuoJcyIXc7J1QDI625r5Ryp52dh4Oc0VR3XVlK8PcHubRDDuf8ff9dJi7wzwy4s9rA3JjOa/L3X1H/ZGE6MNGfM9dHOYz6X3z4bQzPs5yX5e7+yn/8fTcs0b8HeOZFLeknxdf3zsqXB5VX5870/r1ufQei6cy71/Rl0AR0x9MuK7jy7OptP1ZOKb1GnKVB7p9xu2+gAu6glzIhdxKq+ra3Jl23CJC49GJ80dETzxyFE9ZXBvmE0W+60nj7xiPzMVreeNnzkMj/uy2IHd5mAeK6k7vHmLkuvS67TdLXJyZYDb9yNnjDUFu7Jwi352pZ5oH0mfFbP7euFyXpvfX3bu9nk9UjNxYPJPi3mI8lwnE9+7nE+ovSMB/wzz+hni2QDz9ejItwy8V9Z4VErfHn0pf3I3ryxvI1fyhu6KDuK0KuHEWxn+CriAXciG3ih2a+NiLOo++TN8JejAtg4jKd6cduzftNieHOb0YPOrm6mJw9PnzFcF8eC3p0vS//bmeILeqU5b3Bt5t6X20OsxEMbiD7oa0Pu7ti4smIbeKU5ZnmscSfuIZC1cVg9ODJ9I/42t3XzE4Y2L7Xj4r7qhhmdRxI6q5LLNPpy/Wbpu2rk1MW+fic23vTNuVh4rx3aSuCcCFXM2vlQm6cDt74C7cbUBXkAu5kJu9s4vBKaVfLca/UzrO+Wp6P56flsvpPUJu7KyivqP6o34R0RTkHlLjlwM5bgZ3R03L5RTblFYCF3LVDujWgds6gQu6glzIhdzKWpvw0ISbNY1jphLu1k9bJn1D7vBxKE8WkDuXTk3rTtO/HKgTuaDbTuBCrpoN3SbjdlTggq4gF3Iht5KqfqRQ04EbIXt9ses1fH1DbqwNR3Obhty2HM2tG7mg2z7gQq6aB926YDsKbmcD3IVzGNAV5EIu5GbfIa3r+sImTTxyGa8DPWC35dFH5NZ5bW5XkBuLN9P6bJHvBmhdQW4s3oxqWzH+Z1Y39Qu2eBftkxq0LkOumgHdOnGbA7jHR+Bu/YNy4YjABV1BLuRCbiXFu8V+qejHkZfhKcrxpjNH72FZ9BG5seMSSp4oIHcunVs0+5T/cSE3Fm/k9qEGr1Pj2v6M6zFBkKvmQrdNuP01cL//q/Kwrb9fHnr9c+WiG0fDLegKciEXcisrPlbo0Y5Dd3iK8qZi5seM9BW5sbeF+WJD14GmIreq5+Z2AblFwtyV6Yulvl77P/1Ralc39L0PuRoPdNuG212A+6EA3E3PlYfe+OLOidBdeFOeAV1BLuRCLujOYSfzKwmfB+5lGfQZufHU7cuKZh6ZbCpyY/HU3LuLZh6xHDdyh+tVPFvk4aKf1+lG4D+YvkRqapCr+qBbN2wrAe5dPxoA94YXB7MTuS+WC0FXkAu5kHtIQ//OLkI3/i3xGbsXzeLv7zNymwzdJiO3SNvi+4rmXYPaBOQOOz7MXUV/Tl+O75/4zN54acTChr/vIVcVQPevy28NoTsu2ObC7a5HcANw3/9seejmF3YCd9FwMkN3QfxZEbrHnXm6tUmQK8jNUnyG7u8Uzb6hzlxw9FvF7O9i2nfkDqF7acOg23TkNhW6TUJuLN7k7OJicA+A7UX3j96e3ZL3POSqmk78y/JbAZo72ozb14H7r+VhH/xRufi6Z8vFEbhhFsXJDN2I2+mzcMsf/Rh0BbmC3GzFoy73FO096hJ3MuMR6Q1px3q2QW4zodsG5Maadupy05A77LBicHfzrxTdulY3bnfiWSPx2dsHtuj9DrnqDnSXVwbcHwbgPlMuvj4A9/ppyM0I3d2BC7qCXEFuJS0Is7EYnHLXlqMuw7snx7u6njCPvxlyd+2MMA8V4z+q3xbkDsFwTdGMmy01Fbmx/cK8KcxHivY/aii+zvGmbfGmdke18H0OuWo/dJdXCNzDtwTgXhuAu+n5ANznB8jNDN2ZgAu6glxBbmWdkNA4VTT7qEt81u8nEszmG+T+ZkekdX+caGsTcoeAO6sY/2n/TUZuF7Ab3xMPh1kTZkmL3+OQq/ZCd3nlwP29csk1AbjvD7jdlCYjdPeFW9AV5ApyK23/YnB92ccTJpt21+QHwry7GJxmO0qQO/PrH5fN/WOCSNuQOx0P8RE6jxbjORuiDcidvo6tDHN7MTh7pKlfqMXf68sJ5WcWgzNe2h7kqn3QXV4LcH9YLr7m6QDc53YiNzd05wJc0FULWl4MrnWbDDMxz1mfdugPtThr3QE7JsypxeCow3zn1PRz9m/xsjgp7TiPa8d9+o7m7cXsbyo1mxamv++UEV7jNxeDazO72IL0RV3dX3a0Fbnjxu7vpi/V2ri84l2+P9qQL9WGpyPHM1pWFYNrirtUvG9BPPNg3Qj7JRNpv+aijsBfTYXu8jqA+70A3DsDcN8XgHvdcwm5eaE7H+CCriTV0uFphy/i4ws17LwPdzS3JWgd4iUY65c+p6fXoqqjbsOfGU9BvzDMGzqw3JYkDNxfId6G75Nb0xc2bf5CLZ7KfFTazsQv1j5X05cEw2W4tRjcl+B0cJPGDN3ldQL3jt8rl1wdgHvtcwPkZoTuKLgFXUmqvbgD+NZicJZB3Bn9bDH6s3aHz5n8WJirisGpgYss6sYVj36/K8wtxeCxKaO87sO708Zni64uun1JxhvT37glzCMj4i2+T+Jpotem98nBHV1mB6R14pwwV6cvWT45wjoXl9uni8ER2tsSps8tXAokNQO6y2ucCNzjInBv/0G55KqnyiXXPhvmuXzQDbPwhhfKBTe8CLqS1O4iSFeEeVsxOPUw3pzl8rQzGR+zsjVN/Pd42nE8YhKPcl1SDE6dO7po91GoPr/uEVrx6Gs8/XFzMbh+cetur/kHitdPj4y4iNd8H1eMfl11G4tHqY9J75W1Ya4I88FicJbE9OUWMRbv4Htp+s/FU0NPLAY3B+t78Yu204q9X0oQL0M4waKSGg7d5eMA7ndfLQ+/LQH3mmcHkwm6C8M/d84NL2SF7iHx59wJupIkSZLUSOguH8ck4B5x2/fLw678Zrnkfc++jtwM0F0Y/n+/Rm4m6EbcTh/QlSRJkqSGQTeAc0eduF02HbgfCMDd+M3ysPc9s3NyQHdR+PdFEbjD2Q26uYALupIkSZLUwFb8ZflSHdBdtjtwb/3eALhXPzOYDNBdtOm5AXKnQ3fz6KcpzwTcXaB77Dveam2SJEmSpI5Dd9n0iXdRDsBdeuv3y8Ou+EZ52FVPv47cEaB7aPjnouFE6A5xe2O1uN0Fulv+6CegK0mSJEkdhe6ymYB7y/fKwy//Rnl4BO5w5gvdMIde92yYAXAXbnq+XLA5382l5jqgK0mSJEkdg+6yvQL3uwG4T5aHX/n0YEaA7qHh3w+9dnB6co6jtqMCF3QlSZIkqUPQXTbT/HkA7ssBuDcH4G4IwN34VADuU/OG7uJrB0duF25+PitsR8Ut6EqSJElSB6C7bBbAPTIA94j1CbjDmSN046nJizble9ZtVcAFXUmSJElqIXSXzRa4N0Xgfr084opvhnlqTtCNpyfHRwNVgdoqgRvn4DigK0mSJEnNhu6yWQP3lQFw1wXgXv7NhNx9QDfMkmue2fk4oIU3vFQuvOmlduJ2+oCuJEmSJDULugGuO5bNCbivlkfe+J3yiLUJuMPZE3TDv8ejtvFxQAsDCiNsq8ZtbcAFXUmSJElqXstnC90I3O8E4G5+uVy69oly6YZvlEds+OaeoRuP2sa7I29+HbZtxe1egQu6kiRJktRC6O4E7ivlkTd8p1w6GYC7/hs7kftr6MbZ+NTOOyQv2vzCLrCtA7e1H70FXUmSJElqKXQTcI/a/O1y6cTjA+CmOeLyb+y8qdSh1/8mbNuM2zkDF3QlSZIkqYHQ/avyhV2gOwTu9d8ujwzAPXLdkzuP3kbYLo43kNoDbOvCbeOAOx26J77tDGuTJEmSJDUJutOAu3TNEztvKLX4/QG2N74Et/uaO//4p6ArSZIkSU2B7t+ULwTg7lh6y3fLJVc/VS668cUZYdsF3GYFLuhKkiRJUvNa+IGXXwiA3dEE3LYNuAdtfmHnHHzHH/60OBZ0JUmSJKnR0IXbfQMXdCVJkiSp4dDtCm7rAi7oSpIkSVJDoRvgucPR27kDF3QlSZIkqafQ7dLRW9CVJEmSpJ5Ct424nStwQVeSJEmSOg7dqnHbNOCCriRJkiR1FLp9xC3oSpIkSVJDO+TWl5+fD3T7evR2RuguP/tMa5MkSZIktQy6bcZtFcA98PrBHHQ76EqSJElSa6BbB27bdPR2OnBBV5IkSZJaAt2247Yu4IKuJEmSJDUYul3Abd3ABV1JkiRJaih0A0B3OHo7N9yCriRJkiT1ELoHdxy4oCtJkiRJPYBuG3E7X+CCriRJkiR1FLoH9xS4oCtJkiRJHYNun3G7y4CuJEmSJLUXugcD7q/nDdc/P5jb/wB0JUmSJKlN0IXbGYALupIkSZLUQOje8vKze4Jum3FbG3CnQ3fZOWdZmyRJkiSpYdA9GHDnBtzXofsz0JUkSZKkBkE34HMH3M4Rt6ArSZIkSc3s4Iqh22nggq4kSZIk9QO6bcPtvIELupIkSZLUXehWidvGAhd0JUmSJKlb0O01bqfPbaArSZIkSa2GLuAO5oBNg9kfdCVJkiSpfdBtK26rBC7oSpIkSVLLoFs1blt1evIegAu6kiRJktTADrn55S2HbH7xi4fc+OLDwzlo8/OtnTdUMZv2Ns89dsDtv39VcczZi6xNkiRJkiRJkiRJkiRJkiRJkiRJkiRJkiRJkqRx9/8BEGGlFCjLIoEAAAAASUVORK5CYII=;" vertex="1" parent="1">
          <mxGeometry x="250" y="42.6" width="150" height="42.81" as="geometry" />
        </mxCell>
        <mxCell id="WQC7tmoXZDf68g6l8asP-3" value="" style="shape=image;verticalLabelPosition=bottom;labelBackgroundColor=default;verticalAlign=top;aspect=fixed;imageAspect=0;image=data:image/png,iVBORw0KGgoAAAANSUhEUgAAA7kAAAEQCAYAAAB1K7PPAAAtRElEQVR42u3dabRdZZ3g4Q3IkIQECMiYkIAgIoMDioySQO7NAAEEDGGUIWJEglA4lFoIoqJ4YwmizOBSHEpr+tDfurvm6q5eVQ5l9+qq0p5Wd3VB+a2/Z7F2v2/Oe+Qm5ib33vPuffbw/Nb6L6haer13n3322c/ZU1FIkiRJkiRJkiRJkiRJkiRJkiRJkiRJkubVu174k3PX/7L85cTPXyvnMmvmMZf9/dzn0hpm9Rxn1R5m8pXy/uKcuw60RkmSJElSy4ALuYArSZIkSZ0B7nyh20XkAq4kSZIkdQC4kAu4kiRJktQZ4PYduYArSZIkSR0Cbl3X5V7aQOgCriRJkiR1DLh9Re46wJUkSZKk7gG3j8gFXEmSJEnqKHD7hlzAlSRJkqQOA7dPyAVcSZIkSRpz57z0p++pErh1IXfcd1he/0p5H+BKkiRJ0piBu+6X5X+rErh9QO5O4K5a9QZrlCRJkiR1HLhdRy7gSpIkSVIDgLu+JuB2GbmAK0mSJEkNAe5kTcDtKnIBV5IkSZIaBFzInT9yAVeSJEmSGgZcyJ3fAK4kSZIkNRC4kAu4kiRJktQZ4EIu4EqSJElSZ4ALuYArSZIkSZ0BLuQCriRJkiR1BriQC7iSJEmS1Pje860/O282wIXcvc+6fy3vBVxJkiRJGjdwf1H+99kAF3IBV5IkSZI6A1zIBVxJkiRJ6gxwIRdwJUmSJKmRwN0wD+B2DbmAK0mSJEkdAe7aeQAXcgFXkiRJkhoJ3LUNBm7TkQu4kiRJktQw4EIu4EqSJElSZ4ALuYArSZIkSb0FbtORW/WdlQFXkiRJkhoKXMidG3IBV5IkSZLG3Lnf/vPzZwIu5M4euetfLe8BXEmSJEkaP3D/x0zA9fig2SEXcCVJkiSpBcCF3H0jF3AlSZIkqSXAdWflvSMXcCVJkiSpw8DtE3IBV5IkSZJaBFzIBVxJkiRJ6gxwIXfPyAVcSZIkSWohcD0+6DeRC7iSJEmSBLiduB4XcCVJkiSpAcC9/JdzBy7k7opcwJUkSZKkhgB33X+eO3Ah9/UBXEmSJElqEHAhd/7IBVxJkiRJGnMXfPs/jAW4XUPuhlfLjwCuJEmSJI0buL8o/+cQuI7iAq4kSZIkdQa4kDt35AKuJEmSJHUIuH1GLuBKkiRJUkOB29WjuFUhF3AlSZIkqWPA7StyAVeSJEmSGgxcpyoDriRJkiR1BrgeHTQ75AKuJEmSJHUUuH07VRlwJUmSJKkFwO3yUdxcyAVcSZIkSeowcPt0qjLgSpIkSVJLgOtU5b0jF3AlSZIkacyd//J/vKCJwG0bcte/Wn4YcNWizgxzZ5i7w2w12WdbmGvCHJX5dTsozJowHx3x94v//cvSz5MkSeoWcDf8ovxfswGuo7gzIxdw1cIuCPOFMF8N8xWTfZ4Ic0+YEzK/boeEuSnMN0b8/eJ//8b08yRJkgDXUVzAFeQayJUkSWotcCF3z3M54ApyDeRKkiQBbieA+yvAFeQayJUkSWodcCEXcAW5BnIlSZIAtyXAnQBcQS6UQq4kSRLg9vEoLuAKcg3kSpIktRS44ziK22TkAq4g10CuJElSD4HbxVOVAVeQayBXkiQJcDtxFBdwBbkGciVJkloMXEdxAVeQayBXkiSpMZ333b+5sG3AbSJyr/hVuRVwBbkGciVJksYN3H8q//c4gLsWcCXINZArza7Dw2wMc2+YrSPMR8Nc2qPldnKYj424zD4cZkuYc6yGkjoPXEdxAVeQayBXqqk3hvlQmK+PuC4/Geb6Hi23s8I8O+Iy2x7mi2HWWA0lAS7gSpBrIFeCXMiVpK4Dt22nKU8ArgS5kAu5glzIhVxJgNuVo7gTgCvlQm7cUXqkGFxTF3dWt5pfz7Yw14Q5CnIlyIVcSQJcwJXagdx4tDLewORYi7O2IFeQC7mQKwlwqwJuF5ALuIJcyIVcCXIhV5I6AFxHcQFXkAu5kAu5glzIlSTAbTFwJwBXglzIhVxBLuRCriTAzQncScCVIFeQK0Eu5ErSe77/44uaANy2H8W9/FflXYArQS7kQq4gF3IhV9L4gft/ABdwJciFXMgV5EIu5EoC3AYAd9zIBVwJciEXcgW5kAu5kjoA3By4bTtwrwRcCXIhF3IFuZALuZIAF3AlyIVcyJUgF3IlCXAbglzAlSAXciFXkAu5kCsJcAFXglzIhVwJciFXkgAXcCXIFeRKkAu5kpQFuLlw2/brcAFXglzIhVxBLuRCriTA7cRRXMCVIBdyIVeQC7mQKwlws+IWcCXIFeRKkAu5kgC3E0dvAVeCXEGuBLmQK6mnXfiDn1wMuKPPxn8ttwCuBLmQC7mCXMiFXEnjB+4/jxu3gCtBLuRCrkUqyIVcSaoduFXgFnAlyIVcyIVcQS7kShLgAq4EuZALuRLkQq4kzRW4VeEWcCVBLuRCriAXciFXUm3AbQNuAVeCXMiFXAlyIVczFvdXjwlzapg37TYnhznSIlLngVslbAFXEuRCLuQKciEXcrMj9uj0elwR5uYw94Z5KC3f2b4WU2EeCXNXmNvCvDfM28McZxE3tv3CLA7z1vTa3xFmW3pPTe3hNX4szO+E+WD6/I6v8bIwB3YWuHXgFnAlQS7kQq4gF3Ihd6QOCHN8mEsSaj43R8zOdabSaxTfI5eFWZl+B42n/dMXD+vCfCrDax9f3y+lLzfeEWZh64FbF2xz4xZwJciFXMiVIBdyewbbeMRtYzE4EvfVojrUzuY1i0d8rwnz5oQu1fOZuzrMAxW+/lNpf2yilcCtE7eAKwlyIbdByI3XoMUjHx8Js3Wec3eYO8Oc1oPXeEWY20dcXnHuC3Nx5t9teabfLeI2nt6X42hY/O8/GGbLiL/TbNbB+L/x9nm+Bz6W4Xe4K+1s/26Gnep4CuVvF4NTKKtcbveEubZo05GqolgUZjLMJzIs6yrBe3VCeFc6KH2Jsy6Bbz4TX7eLwiwY8Xc5OH0J9EhR7RH76Ud1N7UCuHWjtircAq4EuZALuSP2trSjMMq6Fv+7nw/zrh68xqcn/I26c/3NMO/L/Ludlul3a+MMj36unsdyO7sY/ehrW+drxeBa1cUteO+9Mb1nvlADbHLh6LH0OXxSB7Z9h4a5Ie1bjPJZEb+8me+NverEbXuQG4G7/h8BF3AlyBXkQi7kQi7ktgS58Xe7LmFjqoXLuCvYHSdy90vL7hNF/aelNxu5F/zwp+8dF3AnuwXcOwFXglxBLuRCLuRCbsXFu9telICxvQPLeoilW4p2PqJoXMiNpzZvTF8UTI3xdWsechNw/y/gAq4EuYJcyIVcyIXcxiM3Xvv+sfT7dXFdje/TSyB3n8U7Jn+yGO9NxZqJ3HEBt0u4BVwJcgW5kAu5kAu5NW1DJ9M2Zarjy34qLfu2fEbXidz902fT9gasB81D7jiAOwm4kiAXciEXciEXciF3ri0tBnf2fqJn6218z66C3F8Xby4V7+D89aJZp5k3A7l1A3cScCVBriAXciEXciF3Pp2R1t2v9vA1GCIqfnYs6jlymwbcZiG3TuBOAq4kyBXkQi7kQi7kzqd4Wup56feY6ulrMB1T8XnPTX1mcdXIbSJwm4PcOoA72XHcAq4EuYJcyIVcyIXciouYu7JoxnWXTZm4Lf1UmJU9Q240x/kZPju7idyqgTsJuJIgV5ALuZALuZCbA7hx/X8SbFsD3SqR++aiuTcbGy9yqwLuZI9wC7gS5ApyIRdyIRdyARd0a0Ru/PeHiuZejz0+5OYG7uSYBnAlQS7kQi7kQi7kdhi5gNte6FaB3Hijrc1Fs++oPR7k5gLuZI9xC7gS5ApyIRdyIRdyKy7eWGh90YzrLqfSZ+xHisFji7amf8b/+6G0PjXh9Ynv5d8Ks6BjyF2afuZbwjzV8PdI/cg9/0c/vWQU4E7C7c654tXydsCVIFeQC7mQC7mQW1HxLsrnF/XfRfmxYnA0dFP6XD2x2PszWqd3UPrPx8cbXZkQ/PAYALw9IXz/DiH3iGJwFHdrWicgdxfg/kP5L21CLeBKglzIhVzIhVzI7SFyz0ifSXUB9+NhLglzdOa/48AwbwpzeZjfKeq5jjQusy+HeX+HkBu/aDi1qOco7mPptborfVFxT9pWTBVNQ+6+gDvZ4JkAXEmQC7mQC7mQC7n9Qe6JGT7PZgORiJl4ZHBFTduC/cKclOD05YoBH9fvh8O8pwPI/URabluKvEdxh6egXx/mvWGWpS8l9vWlxWnpc/CKMB/dA4DrQW4E7roA3MmGY7bJuAVcCXIFuZDbSeTGm/qsDHNKMTjaNN+JSDgn7fA9PuLf+UTamT12xN9pXxP/5pPDHD7PnffTMvwOy8NMpNd21J31R4vBkbvja1huEQMHVPR+OTIhsKobCw1x+6Eacbun4ut0d4b3y762s58c42d6DuRuT39D3L48men1jyi9pRhc35vDNhG+ZxaDG2I9nH7napHbRuBOAK4kyIVcyIXcepCbszcmOHx9xL8z7she36NtwFnF6EeFh0el17R8WUQsXJYB/Xvb7nwmgaQJxS8K3l5U+zicuG7c1WLk5vxy49H0OXl0hX9zvC77vDD3pb8dcCcAVxLkQi7kQi7kQm5/kfuWaX9PFTcCikfaFjbw714S5uaKMLg9ba8v6TFyH0v7Nm+s+QuMw7P/1DYBdwJw593EL8otl/3stS+u+dlrD1/awlk1hnnvtLn4Z689tuZfyquOmZxcxBmQC7mQC7mQC7mQO8aqOk15eG3qxQ3/++NR7IvStjH3tbrxZ8Ybax3RM+ROpc+qCzuxpWgDcCdaME0H7uQvymcv+/vXdoQpLx3zrJ7HrBphLpnnBNjuMhOvlD87Zs1VZzEG5EIu5EIu5EIu5I4ZeFWcphy3M58tBtdztqED0vY19+nLw7stb6r57xkncuPffH+YowAXblsJ3MtaCNzVYwDu7sgFXMiFXMiFXMiFXMhtSFXcTTm+3+JdeZe3cHmsTNuMnMsj/qxPp5/dZeQOQf+BovrHXPUbuBMtG8BtLnBXAa4gF3IhF3IhF3K7hdyFab3OcefcLgC3KugOT4G+tcPIHQL35s5sHZoG3ImWDuB28zTl6cgFXMiFXMiFXMiFXMhtUGekz55c16G27RTlvRUf2fRYke9GXHUfza0TuYALtoDb16O4gAu5kAu5kAu5kAu5DSreffa2DOvM9OUQtyuXdmTd2D9tI38305cAdR/NrQu5Q+De1JmtwkW//19WjRO4Ex2Zja+WtwEu4Apyi9cfNXBv2lnd2rPZlhBR540qIBdyIRdy+4rcnEdxh9C5tmPrx4IwG4t8p3PXeTS3TuTG/ZZuPC0kAfcVqAVcpynvHbmAC7lmTkey7wlzPORCLuRCLuRWWrwp0OaMePtags7BHVxH4hevD6S/MQcIHw1zVUeQuz2h/fhOvNJ1AHeiBwO43T+KC7iQayAXciEXciG3gZ2UwJXjetO4PfntMKd0eD05NczjRZ6j3nFbFB+vs1/LkTuVtq0XAG5PMQu4/QNuHMCFXAO5kAu5kAu5DSwebd2QYbs3/TTlqzq+nsQj3zdnAmNcXx4O856WIzfOlk68uuf94c/fufYfy3+e6DFO+whc1+HOC7g/BVzINZALuZALuZDbwE4I82CG98TwNOX7wizpwbqS627Ldd2AqkrkDo/eH9mZVzcg90cBajtgtZvAXftP5fNNA27bkLv21fKnR6y6/Ezmg1wDuZALuZALuQ0svu+fLvIdkTy/J+tKvLHSdUWeu1HH7VG8zndBC5E7VXTrLtqgC7iAC7iCXMiFXMiFXMhtMXJz3nAqHsW9u2ef9bmuza3jlOWqkBs/Pz5eDB6x1L1AF3C7CtxVgCvIhVzIhVzIhdxuIjfXDaf6dhR3WHy28JYE3RzXMm9qGXK7exQXdAG36cBdDbiCXMiFXMiFXMiF3N2LR94uCvNU4SjuKMvw3EzLsOq7LFeB3G4fxd0FSP9Q/hB0AbfPpykDriAXciEXciEXcluA3FynKse/Nz7rdV1PP+/jjbty3IAqbofjM2ZXtgS5U2k939CbVxp0AbevpykDriAXciEXciEXcluC3BWZPqfieykezVve08/7eMryncXopyxvT9vyS1qC3O0J5cf36tUG3XYD91LABVxBLuRCLuRCLuR2Gblx2/FMkeeU1VuL/hb37y9O24QmX5dbBXI/3MtXHHQHc8Wr5a2A2+3rcAFXkAu5kAu5kAu5LUJu3DZdnmFb19cbTu3eiZm+MIjbpW0tQG4/bjgFuoDbJeCuAlxBLuRCLuRCLuR2G7lHhtmaATzD57u+seef+UcXg1N3R92uDG/kdETDkdvPU5VBF3ABV4JcyIVcyIVcyG1sua7HfTxhue8dVuS7LvczYU5rOHK/mr7cUJ+guwZwe3EdLuAKciEXciEXciG3pcg9LdPf2ee7Kk9vcfrseCLDMv1s2q43Gblx7vCy9wS6awC3N9fhAq4gF3IhF3IhF3JbitwD0+826o2S4nYjHnU8w0d+1ptPxS8Ormowcoe/4zVe9o5Dd02LgDv5T+ULgDsaciNwl67eaIOuOpA7fJzAvWlndWvPZltCxFGQC7mQC7mQm61FCSijbufiduMTaZmtDPOmns7JYd4c5uoM77c2IDeu3w+FeaddvY5Cdw3gAq5ULXLjB1G8Pf+xFifkQi7kQi7kZio+1/W2DOuGqWaqusNyTuTGU6rfapehY9Bd03LgXgq4gCvIFeRCLuRCbl+RuyzMgxneA6afyI2fF79dDO7QrbZDd81eBnABV4JcyIVcyIVcyIVckwm594fZD3Jb3OQ/lj9oMnTXAG5ngbsKcAW5glzIhVzI7R9yc9xZ2VQ3VT0rF3L7Dt01s5y2APfSDgJ3NeAKcgW5kAu5kAu5kAu5kAu6o8MWcAFXglzIhVzIhVzIbTFy3x3maZiEXMjtKHTXzHM2vFLeAriAK0Eu5EIu5EIu5LYMubmekWsgF3KbBN01I07TgXvyX5cvnP4Xr+1470+695iguq7DBVxBLuRCLuRCLuRCroFcyG0sdNdknDYA96R//9qOlf/utfItf/FaeXHDoAu4glzIhVzIhVzIhVzINZALumNEbRuBG6aM0zTotgG4k6+WPwFcQS7kQi7kQi7kQq6BXMgdG3TX1DSNB+5flS9NB27ToNsa4F68/q3edYJcyIVcyIVcyIVcA7mQWzl0AzR3rKkRtV0AblOgC7iCXMiFXMiFXMiFXMg1kKuGQLftwB03dAFXkAu5kAu5kAu5kAu5Zk4Tt00PhFkAuaALuHOB7s/7AdxVgCvIFeRCLuRCLuRCbvuQu62C1x5yGwzd79UB3a4Bt27oAq4EuZALuZALuZDbaeRuT++jLWG2mmwTP/M/GOZCyAVdwG0QdAFXglzIhVzIhVzI7TxyH08YU3uC3L5Ct+vArRq6gCtBLuRCLuRCLuT2ArlfC3NfmCU+NiBXDYbuFa+UN/UBuDuRG2ZFgO5pGaELuBLkQi7kQi7kQm7jkbt/mIvDPAW5kAu5HYdu34C7MiN0VwOuBLmQC7mQC7mQ2xbkxk7L8DfG9098zM1yHxuQqwZCty/AXTnDjAJdwJUgF3IhF3IhF3J7idy4zfhMmDN8bECuGgDd+JzY4azvOXBHgS7gSpALuZALuZALua1E7ooMn0/b0zZjtY8NyNUYoDsdtX0D7so5zFyg2yLg/hhwBbmCXMiFXMiF3F1aFubBEd8DU2G+HOYqHxuQqxqgGwC7YybYtga4f11+q07gzha6q1sG3CPPu/x07wpBriAXcnfr3AS/KciF3J4iN+JkawbseIwQ5Ko26P7XvUO368BdOeLMBF3AlSAXciG3Q+/NZ0Z8fSEXctuM3MUJO08W7rAMuZDbfugC7vygC7gS5EJu55Ebd8rjqYfnd/z1jY9PuaIY/fEpkAu5bUZurmfluvkU5Grc0O0ycFdWMEPoXhSge+nPAVeCXMjtOHK/kuC3oeOv76IwmzO8vpALuW1G7nC78UyGv/PRMOt8dECuamziH8rvR+BueKW8pYvAXVnhrAhzYoDumzNAF3AFuZALuZDbkI5N76lRd/IgF3LbjtyTi8F16duL0a/L3eqjA3JVY+f8mx8vvOJX5duOOfvsRYA7N+CuyADdVYAryIVcyIXcZpXrzsqQC7ltR+7RYe5NSB3lb43vpQfS+ibIleYH3LpwOyp0AVeCXMhtHXIj2q7twfsyx02nIBdy247ceADommL0m095Xi7kSvMH7soxAXc+0AVcCXIht1bknhBmW4Ydl7ize0uYBR19bXNejwu5kNt25MbeHebpDO8FpyxDrjQ34K5sAHDnAl3AlSAXcluL3K8nFHV1x2VlmI8Xg8eeQC7kQm6+63LdZRlyBbizA26TcDsb6K4CXAlyIbftyI1HY+IzL0/s6Gt7UVpGU5ALuZC7syPTOjLqtmMqTZ/WE8iFXM0FuCsbDNyZoAu4EuRC7liRe3QmzMR1NV5b964Ovq6Hhbm1GP36Q8iF3C4hd//05U+O50bHG1DFMyWW9/wz5OAwx0CuALdFuP0N6P75a+WFAbqrf14bcP8OcAW5gtw9/s45rjWdSuvcmg6+ru9M78VRT8uEXMjtEnJjJxV5TlkeniFxY88/Q85O24a707KFXHW3k/6i/PZMwG0bbqfP8n/7Wnnqn+WD7r6Ae9SF606zNglyBbm/UTwac23ascoBt67dYTkeWbkm0/KBXMjtGnJznbLs2tzBWTWfLgZHtSP6H2sYdiFX1QN3ZYuBG4/iDmcndEc8onsJ4ApyIRdyR+2yIs+jceI695GOrXNvLfI9G7evyL0JcjuL3Fi8ROHpTO+LeGO3benLpT61KH1BuPv7LWL3y8XgmcTnhNkPctU54K5sOW53B24O6AKuIBdyITdL5xd5TseNEPxsMXj2bheq4lrcviE3bofuSjvxkNtN5Mab1z2Y6YugIequ6tlnxxkJ+Pu6sV28bvmdY8Iu5CovcLuK21GhC7iCXMiF3GxFlD4y4vo2HW9d2UE9P4Ej57W4kAu5XUPuwrQu5/oyaHja8pk9WWfiZ/Tn5rj9HQd2IVejAzfAcMfKngB3PtAFXEEu5EJu1uKRmHuKPNfVdeWU5XiX1/hIpMcrAC7kQu5sHqlzTZt2X4s8N6Caftry/cXgbIoud3iYLSNsZyJ231XTZwXkqn3AXTFm4O4C3X3cjApwBbmQC7mV7LzcXOQ5ErM9rbeXtPh1jNcD5roZV9+R+7W0I34K5M55+/2BFv3duY/mDjF0e4fXlQVhNmZYZnGbG48Ex3srHAS5AtwG4XY20L0EcAW5kAu5Vba2yHfzmK8nILV1J+bi9P6ZKiB3VOTG6zTj9ZrvgNw5zeNp+31Qi/723Edzh9fnXtvB9STe1f5dxet3Us6xrOI/b4Vc9Rq4KxoK3JmgC7iCXMiF3MqLd+78UpHnutzhdaxtfGZuVXdT7itytyeorOnJNiAXcuMR8N8Kc3yL/vYqjuZ2Ebq5gTuEY3z80ErIVS+B23Tc7gm6FwTorvo54ApyIRdyK25l2qnOdQ1q/DnxmtYT2/SRXAxOrf1axcDtE3L79hihXMiN2/6Hwpzbsr//xAyfXV2GbhXAHS6fTRX/7pCr5gG3TbidPssCdE/ZB3QBV5ALuZCbbQcm13W50/+OzWEOANzWITcelbsuw7o8/MLj3p5si+KXRZ8tRj8TYCr9jM0t+/sPLAbXhua+nr0L0K0CuEM0xm3XEZCr3gB3RUuBu3za7A26gCvIhVzIzdpFxeDIXc4jDBE46wG3dciN14JemQkrw0fiXNKDbUAu5A5PWf5oCzFwbEXvp7g9+VKC/8KWLZN4k6nLi9fvnJ1rmcT31sNh3lPTF6GQq/ECd0WLj94u38PsCboTr5Z/C7iCXMiF3KzFO+B+MvPO6fa0Y9pU4IwDuG1AbuzCMM9k+nvj9iie/tz1RwktDXNnkec077Y9L3d6ZxTV3bwt/sx4ZkBbLoVYXAzOknmiguUQ/3lbTX8H5Gofn6Z/WX6nKuCu6CBw9wTdtRG45172ZmuTIBdyITdr8dE51xd5TlFtA3TfXgyOglR9k6m2IvftRb4j+305mhsh8P6M76F4JsQ9CUptKv6+8YjrkxW9f+L69PmGfwGwX5hTw3yqom1MXacpQ6723bFP/qePBeT+P7idPW53ge6flOUpf1qWC848/wJrkyAXciG3ks5L612ux4DsftQhngJ7YANepw1hHqvg7+wSck/N/CXA8I7BJ3Z4GxCvu1wV5qmM75upBOfW7fYW1Z8lEZfN/WldbVJL0jb8saKao9lxuxVPi39bzV/gQK5mLteR3BUdwO1cgHvin5XlcT/4Vbnkw39QLr7jD/+2OOEtjuQKciEXcvMXjwrcUeQ53XKm9TIemTpuTK/Rm4rBdY6PF+PBbZuQm/MOy3XdhOoNxeCMhHH2liL/te1fTl8QVdFBCWVVVOVpy9OXT8Tk1jArxvzax2uF16fP7+0V/r113E0ZcjUP6I5wTW7fcLs7cBdtfr5cdNNL5eIP/vHfFsef7ZpcQS7kQm7+ct+AaqZTVzcW9V2jGcF2W/rfrnKHu0vIzXnzqaqP6EbYTqbXeMmYl9uyIv+17cObLsU7Xi/I+Lsem77I+HBFy6Kquy3vDX/bwryjg7idvv380BjWa8hVfuiuqHmaDtzhLN7yx38HuoJcyIXc7J1QDI625r5Ryp52dh4Oc0VR3XVlK8PcHubRDDuf8ff9dJi7wzwy4s9rA3JjOa/L3X1H/ZGE6MNGfM9dHOYz6X3z4bQzPs5yX5e7+yn/8fTcs0b8HeOZFLeknxdf3zsqXB5VX5870/r1ufQei6cy71/Rl0AR0x9MuK7jy7OptP1ZOKb1GnKVB7p9xu2+gAu6glzIhdxKq+ra3Jl23CJC49GJ80dETzxyFE9ZXBvmE0W+60nj7xiPzMVreeNnzkMj/uy2IHd5mAeK6k7vHmLkuvS67TdLXJyZYDb9yNnjDUFu7Jwi352pZ5oH0mfFbP7euFyXpvfX3bu9nk9UjNxYPJPi3mI8lwnE9+7nE+ovSMB/wzz+hni2QDz9ejItwy8V9Z4VErfHn0pf3I3ryxvI1fyhu6KDuK0KuHEWxn+CriAXciG3ih2a+NiLOo++TN8JejAtg4jKd6cduzftNieHOb0YPOrm6mJw9PnzFcF8eC3p0vS//bmeILeqU5b3Bt5t6X20OsxEMbiD7oa0Pu7ti4smIbeKU5ZnmscSfuIZC1cVg9ODJ9I/42t3XzE4Y2L7Xj4r7qhhmdRxI6q5LLNPpy/Wbpu2rk1MW+fic23vTNuVh4rx3aSuCcCFXM2vlQm6cDt74C7cbUBXkAu5kJu9s4vBKaVfLca/UzrO+Wp6P56flsvpPUJu7KyivqP6o34R0RTkHlLjlwM5bgZ3R03L5RTblFYCF3LVDujWgds6gQu6glzIhdzKWpvw0ISbNY1jphLu1k9bJn1D7vBxKE8WkDuXTk3rTtO/HKgTuaDbTuBCrpoN3SbjdlTggq4gF3Iht5KqfqRQ04EbIXt9ses1fH1DbqwNR3Obhty2HM2tG7mg2z7gQq6aB926YDsKbmcD3IVzGNAV5EIu5GbfIa3r+sImTTxyGa8DPWC35dFH5NZ5bW5XkBuLN9P6bJHvBmhdQW4s3oxqWzH+Z1Y39Qu2eBftkxq0LkOumgHdOnGbA7jHR+Bu/YNy4YjABV1BLuRCbiXFu8V+qejHkZfhKcrxpjNH72FZ9BG5seMSSp4oIHcunVs0+5T/cSE3Fm/k9qEGr1Pj2v6M6zFBkKvmQrdNuP01cL//q/Kwrb9fHnr9c+WiG0fDLegKciEXcisrPlbo0Y5Dd3iK8qZi5seM9BW5sbeF+WJD14GmIreq5+Z2AblFwtyV6Yulvl77P/1Ralc39L0PuRoPdNuG212A+6EA3E3PlYfe+OLOidBdeFOeAV1BLuRCLujOYSfzKwmfB+5lGfQZufHU7cuKZh6ZbCpyY/HU3LuLZh6xHDdyh+tVPFvk4aKf1+lG4D+YvkRqapCr+qBbN2wrAe5dPxoA94YXB7MTuS+WC0FXkAu5kHtIQ//OLkI3/i3xGbsXzeLv7zNymwzdJiO3SNvi+4rmXYPaBOQOOz7MXUV/Tl+O75/4zN54acTChr/vIVcVQPevy28NoTsu2ObC7a5HcANw3/9seejmF3YCd9FwMkN3QfxZEbrHnXm6tUmQK8jNUnyG7u8Uzb6hzlxw9FvF7O9i2nfkDqF7acOg23TkNhW6TUJuLN7k7OJicA+A7UX3j96e3ZL3POSqmk78y/JbAZo72ozb14H7r+VhH/xRufi6Z8vFEbhhFsXJDN2I2+mzcMsf/Rh0BbmC3GzFoy73FO096hJ3MuMR6Q1px3q2QW4zodsG5Maadupy05A77LBicHfzrxTdulY3bnfiWSPx2dsHtuj9DrnqDnSXVwbcHwbgPlMuvj4A9/ppyM0I3d2BC7qCXEFuJS0Is7EYnHLXlqMuw7snx7u6njCPvxlyd+2MMA8V4z+q3xbkDsFwTdGMmy01Fbmx/cK8KcxHivY/aii+zvGmbfGmdke18H0OuWo/dJdXCNzDtwTgXhuAu+n5ANznB8jNDN2ZgAu6glxBbmWdkNA4VTT7qEt81u8nEszmG+T+ZkekdX+caGsTcoeAO6sY/2n/TUZuF7Ab3xMPh1kTZkmL3+OQq/ZCd3nlwP29csk1AbjvD7jdlCYjdPeFW9AV5ApyK23/YnB92ccTJpt21+QHwry7GJxmO0qQO/PrH5fN/WOCSNuQOx0P8RE6jxbjORuiDcidvo6tDHN7MTh7pKlfqMXf68sJ5WcWgzNe2h7kqn3QXV4LcH9YLr7m6QDc53YiNzd05wJc0FULWl4MrnWbDDMxz1mfdugPtThr3QE7JsypxeCow3zn1PRz9m/xsjgp7TiPa8d9+o7m7cXsbyo1mxamv++UEV7jNxeDazO72IL0RV3dX3a0Fbnjxu7vpi/V2ri84l2+P9qQL9WGpyPHM1pWFYNrirtUvG9BPPNg3Qj7JRNpv+aijsBfTYXu8jqA+70A3DsDcN8XgHvdcwm5eaE7H+CCriTV0uFphy/i4ws17LwPdzS3JWgd4iUY65c+p6fXoqqjbsOfGU9BvzDMGzqw3JYkDNxfId6G75Nb0xc2bf5CLZ7KfFTazsQv1j5X05cEw2W4tRjcl+B0cJPGDN3ldQL3jt8rl1wdgHvtcwPkZoTuKLgFXUmqvbgD+NZicJZB3Bn9bDH6s3aHz5n8WJirisGpgYss6sYVj36/K8wtxeCxKaO87sO708Zni64uun1JxhvT37glzCMj4i2+T+Jpotem98nBHV1mB6R14pwwV6cvWT45wjoXl9uni8ER2tsSps8tXAokNQO6y2ucCNzjInBv/0G55KqnyiXXPhvmuXzQDbPwhhfKBTe8CLqS1O4iSFeEeVsxOPUw3pzl8rQzGR+zsjVN/Pd42nE8YhKPcl1SDE6dO7po91GoPr/uEVrx6Gs8/XFzMbh+cetur/kHitdPj4y4iNd8H1eMfl11G4tHqY9J75W1Ya4I88FicJbE9OUWMRbv4Htp+s/FU0NPLAY3B+t78Yu204q9X0oQL0M4waKSGg7d5eMA7ndfLQ+/LQH3mmcHkwm6C8M/d84NL2SF7iHx59wJupIkSZLUSOguH8ck4B5x2/fLw678Zrnkfc++jtwM0F0Y/n+/Rm4m6EbcTh/QlSRJkqSGQTeAc0eduF02HbgfCMDd+M3ysPc9s3NyQHdR+PdFEbjD2Q26uYALupIkSZLUwFb8ZflSHdBdtjtwb/3eALhXPzOYDNBdtOm5AXKnQ3fz6KcpzwTcXaB77Dveam2SJEmSpI5Dd9n0iXdRDsBdeuv3y8Ou+EZ52FVPv47cEaB7aPjnouFE6A5xe2O1uN0Fulv+6CegK0mSJEkdhe6ymYB7y/fKwy//Rnl4BO5w5gvdMIde92yYAXAXbnq+XLA5382l5jqgK0mSJEkdg+6yvQL3uwG4T5aHX/n0YEaA7qHh3w+9dnB6co6jtqMCF3QlSZIkqUPQXTbT/HkA7ssBuDcH4G4IwN34VADuU/OG7uJrB0duF25+PitsR8Ut6EqSJElSB6C7bBbAPTIA94j1CbjDmSN046nJizble9ZtVcAFXUmSJElqIXSXzRa4N0Xgfr084opvhnlqTtCNpyfHRwNVgdoqgRvn4DigK0mSJEnNhu6yWQP3lQFw1wXgXv7NhNx9QDfMkmue2fk4oIU3vFQuvOmlduJ2+oCuJEmSJDULugGuO5bNCbivlkfe+J3yiLUJuMPZE3TDv8ejtvFxQAsDCiNsq8ZtbcAFXUmSJElqXstnC90I3O8E4G5+uVy69oly6YZvlEds+OaeoRuP2sa7I29+HbZtxe1egQu6kiRJktRC6O4E7ivlkTd8p1w6GYC7/hs7kftr6MbZ+NTOOyQv2vzCLrCtA7e1H70FXUmSJElqKXQTcI/a/O1y6cTjA+CmOeLyb+y8qdSh1/8mbNuM2zkDF3QlSZIkqYHQ/avyhV2gOwTu9d8ujwzAPXLdkzuP3kbYLo43kNoDbOvCbeOAOx26J77tDGuTJEmSJDUJutOAu3TNEztvKLX4/QG2N74Et/uaO//4p6ArSZIkSU2B7t+ULwTg7lh6y3fLJVc/VS668cUZYdsF3GYFLuhKkiRJUvNa+IGXXwiA3dEE3LYNuAdtfmHnHHzHH/60OBZ0JUmSJKnR0IXbfQMXdCVJkiSp4dDtCm7rAi7oSpIkSVJDoRvgucPR27kDF3QlSZIkqafQ7dLRW9CVJEmSpJ5Ct424nStwQVeSJEmSOg7dqnHbNOCCriRJkiR1FLp9xC3oSpIkSVJDO+TWl5+fD3T7evR2RuguP/tMa5MkSZIktQy6bcZtFcA98PrBHHQ76EqSJElSa6BbB27bdPR2OnBBV5IkSZJaAt2247Yu4IKuJEmSJDUYul3Abd3ABV1JkiRJaih0A0B3OHo7N9yCriRJkiT1ELoHdxy4oCtJkiRJPYBuG3E7X+CCriRJkiR1FLoH9xS4oCtJkiRJHYNun3G7y4CuJEmSJLUXugcD7q/nDdc/P5jb/wB0JUmSJKlN0IXbGYALupIkSZLUQOje8vKze4Jum3FbG3CnQ3fZOWdZmyRJkiSpYdA9GHDnBtzXofsz0JUkSZKkBkE34HMH3M4Rt6ArSZIkSc3s4Iqh22nggq4kSZIk9QO6bcPtvIELupIkSZLUXehWidvGAhd0JUmSJKlb0O01bqfPbaArSZIkSa2GLuAO5oBNg9kfdCVJkiSpfdBtK26rBC7oSpIkSVLLoFs1blt1evIegAu6kiRJktTADrn55S2HbH7xi4fc+OLDwzlo8/OtnTdUMZv2Ns89dsDtv39VcczZi6xNkiRJkiRJkiRJkiRJkiRJkiRJkiRJkiRJkqRx9/8BEGGlFCjLIoEAAAAASUVORK5CYII=;" vertex="1" parent="1">
          <mxGeometry x="250" y="120.5" width="150" height="42.81" as="geometry" />
        </mxCell>
        <mxCell id="WQC7tmoXZDf68g6l8asP-4" value="" style="shape=image;verticalLabelPosition=bottom;labelBackgroundColor=default;verticalAlign=top;aspect=fixed;imageAspect=0;image=data:image/png,iVBORw0KGgoAAAANSUhEUgAAA7kAAAEQCAYAAAB1K7PPAAAtRElEQVR42u3dabRdZZ3g4Q3IkIQECMiYkIAgIoMDioySQO7NAAEEDGGUIWJEglA4lFoIoqJ4YwmizOBSHEpr+tDfurvm6q5eVQ5l9+qq0p5Wd3VB+a2/Z7F2v2/Oe+Qm5ib33vPuffbw/Nb6L6haer13n3322c/ZU1FIkiRJkiRJkiRJkiRJkiRJkiRJkiRJkubVu174k3PX/7L85cTPXyvnMmvmMZf9/dzn0hpm9Rxn1R5m8pXy/uKcuw60RkmSJElSy4ALuYArSZIkSZ0B7nyh20XkAq4kSZIkdQC4kAu4kiRJktQZ4PYduYArSZIkSR0Cbl3X5V7aQOgCriRJkiR1DLh9Re46wJUkSZKk7gG3j8gFXEmSJEnqKHD7hlzAlSRJkqQOA7dPyAVcSZIkSRpz57z0p++pErh1IXfcd1he/0p5H+BKkiRJ0piBu+6X5X+rErh9QO5O4K5a9QZrlCRJkiR1HLhdRy7gSpIkSVIDgLu+JuB2GbmAK0mSJEkNAe5kTcDtKnIBV5IkSZIaBFzInT9yAVeSJEmSGgZcyJ3fAK4kSZIkNRC4kAu4kiRJktQZ4EIu4EqSJElSZ4ALuYArSZIkSZ0BLuQCriRJkiR1BriQC7iSJEmS1Pje860/O282wIXcvc+6fy3vBVxJkiRJGjdwf1H+99kAF3IBV5IkSZI6A1zIBVxJkiRJ6gxwIRdwJUmSJKmRwN0wD+B2DbmAK0mSJEkdAe7aeQAXcgFXkiRJkhoJ3LUNBm7TkQu4kiRJktQw4EIu4EqSJElSZ4ALuYArSZIkSb0FbtORW/WdlQFXkiRJkhoKXMidG3IBV5IkSZLG3Lnf/vPzZwIu5M4euetfLe8BXEmSJEkaP3D/x0zA9fig2SEXcCVJkiSpBcCF3H0jF3AlSZIkqSXAdWflvSMXcCVJkiSpw8DtE3IBV5IkSZJaBFzIBVxJkiRJ6gxwIXfPyAVcSZIkSWohcD0+6DeRC7iSJEmSBLiduB4XcCVJkiSpAcC9/JdzBy7k7opcwJUkSZKkhgB33X+eO3Ah9/UBXEmSJElqEHAhd/7IBVxJkiRJGnMXfPs/jAW4XUPuhlfLjwCuJEmSJI0buL8o/+cQuI7iAq4kSZIkdQa4kDt35AKuJEmSJHUIuH1GLuBKkiRJUkOB29WjuFUhF3AlSZIkqWPA7StyAVeSJEmSGgxcpyoDriRJkiR1BrgeHTQ75AKuJEmSJHUUuH07VRlwJUmSJKkFwO3yUdxcyAVcSZIkSeowcPt0qjLgSpIkSVJLgOtU5b0jF3AlSZIkacyd//J/vKCJwG0bcte/Wn4YcNWizgxzZ5i7w2w12WdbmGvCHJX5dTsozJowHx3x94v//cvSz5MkSeoWcDf8ovxfswGuo7gzIxdw1cIuCPOFMF8N8xWTfZ4Ic0+YEzK/boeEuSnMN0b8/eJ//8b08yRJkgDXUVzAFeQayJUkSWotcCF3z3M54ApyDeRKkiQBbieA+yvAFeQayJUkSWodcCEXcAW5BnIlSZIAtyXAnQBcQS6UQq4kSRLg9vEoLuAKcg3kSpIktRS44ziK22TkAq4g10CuJElSD4HbxVOVAVeQayBXkiQJcDtxFBdwBbkGciVJkloMXEdxAVeQayBXkiSpMZ333b+5sG3AbSJyr/hVuRVwBbkGciVJksYN3H8q//c4gLsWcCXINZArza7Dw2wMc2+YrSPMR8Nc2qPldnKYj424zD4cZkuYc6yGkjoPXEdxAVeQayBXqqk3hvlQmK+PuC4/Geb6Hi23s8I8O+Iy2x7mi2HWWA0lAS7gSpBrIFeCXMiVpK4Dt22nKU8ArgS5kAu5glzIhVxJgNuVo7gTgCvlQm7cUXqkGFxTF3dWt5pfz7Yw14Q5CnIlyIVcSQJcwJXagdx4tDLewORYi7O2IFeQC7mQKwlwqwJuF5ALuIJcyIVcCXIhV5I6AFxHcQFXkAu5kAu5glzIlSTAbTFwJwBXglzIhVxBLuRCriTAzQncScCVIFeQK0Eu5ErSe77/44uaANy2H8W9/FflXYArQS7kQq4gF3IhV9L4gft/ABdwJciFXMgV5EIu5EoC3AYAd9zIBVwJciEXcgW5kAu5kjoA3By4bTtwrwRcCXIhF3IFuZALuZIAF3AlyIVcyJUgF3IlCXAbglzAlSAXciFXkAu5kCsJcAFXglzIhVwJciFXkgAXcCXIFeRKkAu5kpQFuLlw2/brcAFXglzIhVxBLuRCriTA7cRRXMCVIBdyIVeQC7mQKwlws+IWcCXIFeRKkAu5kgC3E0dvAVeCXEGuBLmQK6mnXfiDn1wMuKPPxn8ttwCuBLmQC7mCXMiFXEnjB+4/jxu3gCtBLuRCrkUqyIVcSaoduFXgFnAlyIVcyIVcQS7kShLgAq4EuZALuRLkQq4kzRW4VeEWcCVBLuRCriAXciFXUm3AbQNuAVeCXMiFXAlyIVczFvdXjwlzapg37TYnhznSIlLngVslbAFXEuRCLuQKciEXcrMj9uj0elwR5uYw94Z5KC3f2b4WU2EeCXNXmNvCvDfM28McZxE3tv3CLA7z1vTa3xFmW3pPTe3hNX4szO+E+WD6/I6v8bIwB3YWuHXgFnAlQS7kQq4gF3Ihd6QOCHN8mEsSaj43R8zOdabSaxTfI5eFWZl+B42n/dMXD+vCfCrDax9f3y+lLzfeEWZh64FbF2xz4xZwJciFXMiVIBdyewbbeMRtYzE4EvfVojrUzuY1i0d8rwnz5oQu1fOZuzrMAxW+/lNpf2yilcCtE7eAKwlyIbdByI3XoMUjHx8Js3Wec3eYO8Oc1oPXeEWY20dcXnHuC3Nx5t9teabfLeI2nt6X42hY/O8/GGbLiL/TbNbB+L/x9nm+Bz6W4Xe4K+1s/26Gnep4CuVvF4NTKKtcbveEubZo05GqolgUZjLMJzIs6yrBe3VCeFc6KH2Jsy6Bbz4TX7eLwiwY8Xc5OH0J9EhR7RH76Ud1N7UCuHWjtircAq4EuZALuSP2trSjMMq6Fv+7nw/zrh68xqcn/I26c/3NMO/L/Ludlul3a+MMj36unsdyO7sY/ehrW+drxeBa1cUteO+9Mb1nvlADbHLh6LH0OXxSB7Z9h4a5Ie1bjPJZEb+8me+NverEbXuQG4G7/h8BF3AlyBXkQi7kQi7ktgS58Xe7LmFjqoXLuCvYHSdy90vL7hNF/aelNxu5F/zwp+8dF3AnuwXcOwFXglxBLuRCLuRCbsXFu9telICxvQPLeoilW4p2PqJoXMiNpzZvTF8UTI3xdWsechNw/y/gAq4EuYJcyIVcyIXcxiM3Xvv+sfT7dXFdje/TSyB3n8U7Jn+yGO9NxZqJ3HEBt0u4BVwJcgW5kAu5kAu5NW1DJ9M2Zarjy34qLfu2fEbXidz902fT9gasB81D7jiAOwm4kiAXciEXciEXciF3ri0tBnf2fqJn6218z66C3F8Xby4V7+D89aJZp5k3A7l1A3cScCVBriAXciEXciF3Pp2R1t2v9vA1GCIqfnYs6jlymwbcZiG3TuBOAq4kyBXkQi7kQi7kzqd4Wup56feY6ulrMB1T8XnPTX1mcdXIbSJwm4PcOoA72XHcAq4EuYJcyIVcyIXciouYu7JoxnWXTZm4Lf1UmJU9Q240x/kZPju7idyqgTsJuJIgV5ALuZALuZCbA7hx/X8SbFsD3SqR++aiuTcbGy9yqwLuZI9wC7gS5ApyIRdyIRdyARd0a0Ru/PeHiuZejz0+5OYG7uSYBnAlQS7kQi7kQi7kdhi5gNte6FaB3Hijrc1Fs++oPR7k5gLuZI9xC7gS5ApyIRdyIRdyKy7eWGh90YzrLqfSZ+xHisFji7amf8b/+6G0PjXh9Ynv5d8Ks6BjyF2afuZbwjzV8PdI/cg9/0c/vWQU4E7C7c654tXydsCVIFeQC7mQC7mQW1HxLsrnF/XfRfmxYnA0dFP6XD2x2PszWqd3UPrPx8cbXZkQ/PAYALw9IXz/DiH3iGJwFHdrWicgdxfg/kP5L21CLeBKglzIhVzIhVzI7SFyz0ifSXUB9+NhLglzdOa/48AwbwpzeZjfKeq5jjQusy+HeX+HkBu/aDi1qOco7mPptborfVFxT9pWTBVNQ+6+gDvZ4JkAXEmQC7mQC7mQC7n9Qe6JGT7PZgORiJl4ZHBFTduC/cKclOD05YoBH9fvh8O8pwPI/URabluKvEdxh6egXx/mvWGWpS8l9vWlxWnpc/CKMB/dA4DrQW4E7roA3MmGY7bJuAVcCXIFuZDbSeTGm/qsDHNKMTjaNN+JSDgn7fA9PuLf+UTamT12xN9pXxP/5pPDHD7PnffTMvwOy8NMpNd21J31R4vBkbvja1huEQMHVPR+OTIhsKobCw1x+6Eacbun4ut0d4b3y762s58c42d6DuRuT39D3L48men1jyi9pRhc35vDNhG+ZxaDG2I9nH7napHbRuBOAK4kyIVcyIXcepCbszcmOHx9xL8z7she36NtwFnF6EeFh0el17R8WUQsXJYB/Xvb7nwmgaQJxS8K3l5U+zicuG7c1WLk5vxy49H0OXl0hX9zvC77vDD3pb8dcCcAVxLkQi7kQi7kQm5/kfuWaX9PFTcCikfaFjbw714S5uaKMLg9ba8v6TFyH0v7Nm+s+QuMw7P/1DYBdwJw593EL8otl/3stS+u+dlrD1/awlk1hnnvtLn4Z689tuZfyquOmZxcxBmQC7mQC7mQC7mQO8aqOk15eG3qxQ3/++NR7IvStjH3tbrxZ8Ybax3RM+ROpc+qCzuxpWgDcCdaME0H7uQvymcv+/vXdoQpLx3zrJ7HrBphLpnnBNjuMhOvlD87Zs1VZzEG5EIu5EIu5EIu5I4ZeFWcphy3M58tBtdztqED0vY19+nLw7stb6r57xkncuPffH+YowAXblsJ3MtaCNzVYwDu7sgFXMiFXMiFXMiFXMhtSFXcTTm+3+JdeZe3cHmsTNuMnMsj/qxPp5/dZeQOQf+BovrHXPUbuBMtG8BtLnBXAa4gF3IhF3IhF3K7hdyFab3OcefcLgC3KugOT4G+tcPIHQL35s5sHZoG3ImWDuB28zTl6cgFXMiFXMiFXMiFXMhtUGekz55c16G27RTlvRUf2fRYke9GXHUfza0TuYALtoDb16O4gAu5kAu5kAu5kAu5DSreffa2DOvM9OUQtyuXdmTd2D9tI38305cAdR/NrQu5Q+De1JmtwkW//19WjRO4Ex2Zja+WtwEu4Apyi9cfNXBv2lnd2rPZlhBR540qIBdyIRdy+4rcnEdxh9C5tmPrx4IwG4t8p3PXeTS3TuTG/ZZuPC0kAfcVqAVcpynvHbmAC7lmTkey7wlzPORCLuRCLuRWWrwp0OaMePtags7BHVxH4hevD6S/MQcIHw1zVUeQuz2h/fhOvNJ1AHeiBwO43T+KC7iQayAXciEXciG3gZ2UwJXjetO4PfntMKd0eD05NczjRZ6j3nFbFB+vs1/LkTuVtq0XAG5PMQu4/QNuHMCFXAO5kAu5kAu5DSwebd2QYbs3/TTlqzq+nsQj3zdnAmNcXx4O856WIzfOlk68uuf94c/fufYfy3+e6DFO+whc1+HOC7g/BVzINZALuZALuZDbwE4I82CG98TwNOX7wizpwbqS627Ldd2AqkrkDo/eH9mZVzcg90cBajtgtZvAXftP5fNNA27bkLv21fKnR6y6/Ezmg1wDuZALuZALuQ0svu+fLvIdkTy/J+tKvLHSdUWeu1HH7VG8zndBC5E7VXTrLtqgC7iAC7iCXMiFXMiFXMhtMXJz3nAqHsW9u2ef9bmuza3jlOWqkBs/Pz5eDB6x1L1AF3C7CtxVgCvIhVzIhVzIhdxuIjfXDaf6dhR3WHy28JYE3RzXMm9qGXK7exQXdAG36cBdDbiCXMiFXMiFXMiF3N2LR94uCvNU4SjuKMvw3EzLsOq7LFeB3G4fxd0FSP9Q/hB0AbfPpykDriAXciEXciEXcluA3FynKse/Nz7rdV1PP+/jjbty3IAqbofjM2ZXtgS5U2k939CbVxp0AbevpykDriAXciEXciEXcluC3BWZPqfieykezVve08/7eMryncXopyxvT9vyS1qC3O0J5cf36tUG3XYD91LABVxBLuRCLuRCLuR2Gblx2/FMkeeU1VuL/hb37y9O24QmX5dbBXI/3MtXHHQHc8Wr5a2A2+3rcAFXkAu5kAu5kAu5LUJu3DZdnmFb19cbTu3eiZm+MIjbpW0tQG4/bjgFuoDbJeCuAlxBLuRCLuRCLuR2G7lHhtmaATzD57u+seef+UcXg1N3R92uDG/kdETDkdvPU5VBF3ABV4JcyIVcyIVcyG1sua7HfTxhue8dVuS7LvczYU5rOHK/mr7cUJ+guwZwe3EdLuAKciEXciEXciG3pcg9LdPf2ee7Kk9vcfrseCLDMv1s2q43Gblx7vCy9wS6awC3N9fhAq4gF3IhF3IhF3JbitwD0+826o2S4nYjHnU8w0d+1ptPxS8Ormowcoe/4zVe9o5Dd02LgDv5T+ULgDsaciNwl67eaIOuOpA7fJzAvWlndWvPZltCxFGQC7mQC7mQm61FCSijbufiduMTaZmtDPOmns7JYd4c5uoM77c2IDeu3w+FeaddvY5Cdw3gAq5ULXLjB1G8Pf+xFifkQi7kQi7kZio+1/W2DOuGqWaqusNyTuTGU6rfapehY9Bd03LgXgq4gCvIFeRCLuRCbl+RuyzMgxneA6afyI2fF79dDO7QrbZDd81eBnABV4JcyIVcyIVcyIVckwm594fZD3Jb3OQ/lj9oMnTXAG5ngbsKcAW5glzIhVzI7R9yc9xZ2VQ3VT0rF3L7Dt01s5y2APfSDgJ3NeAKcgW5kAu5kAu5kAu5kAu6o8MWcAFXglzIhVzIhVzIbTFy3x3maZiEXMjtKHTXzHM2vFLeAriAK0Eu5EIu5EIu5LYMubmekWsgF3KbBN01I07TgXvyX5cvnP4Xr+1470+695iguq7DBVxBLuRCLuRCLuRCroFcyG0sdNdknDYA96R//9qOlf/utfItf/FaeXHDoAu4glzIhVzIhVzIhVzINZALumNEbRuBG6aM0zTotgG4k6+WPwFcQS7kQi7kQi7kQq6BXMgdG3TX1DSNB+5flS9NB27ToNsa4F68/q3edYJcyIVcyIVcyIVcA7mQWzl0AzR3rKkRtV0AblOgC7iCXMiFXMiFXMiFXMg1kKuGQLftwB03dAFXkAu5kAu5kAu5kAu5Zk4Tt00PhFkAuaALuHOB7s/7AdxVgCvIFeRCLuRCLuRCbvuQu62C1x5yGwzd79UB3a4Bt27oAq4EuZALuZALuZDbaeRuT++jLWG2mmwTP/M/GOZCyAVdwG0QdAFXglzIhVzIhVzI7TxyH08YU3uC3L5Ct+vArRq6gCtBLuRCLuRCLuT2ArlfC3NfmCU+NiBXDYbuFa+UN/UBuDuRG2ZFgO5pGaELuBLkQi7kQi7kQm7jkbt/mIvDPAW5kAu5HYdu34C7MiN0VwOuBLmQC7mQC7mQ2xbkxk7L8DfG9098zM1yHxuQqwZCty/AXTnDjAJdwJUgF3IhF3IhF3J7idy4zfhMmDN8bECuGgDd+JzY4azvOXBHgS7gSpALuZALuZALua1E7ooMn0/b0zZjtY8NyNUYoDsdtX0D7so5zFyg2yLg/hhwBbmCXMiFXMiF3F1aFubBEd8DU2G+HOYqHxuQqxqgGwC7YybYtga4f11+q07gzha6q1sG3CPPu/x07wpBriAXcnfr3AS/KciF3J4iN+JkawbseIwQ5Ko26P7XvUO368BdOeLMBF3AlSAXciG3Q+/NZ0Z8fSEXctuM3MUJO08W7rAMuZDbfugC7vygC7gS5EJu55Ebd8rjqYfnd/z1jY9PuaIY/fEpkAu5bUZurmfluvkU5Grc0O0ycFdWMEPoXhSge+nPAVeCXMjtOHK/kuC3oeOv76IwmzO8vpALuW1G7nC78UyGv/PRMOt8dECuamziH8rvR+BueKW8pYvAXVnhrAhzYoDumzNAF3AFuZALuZDbkI5N76lRd/IgF3LbjtyTi8F16duL0a/L3eqjA3JVY+f8mx8vvOJX5duOOfvsRYA7N+CuyADdVYAryIVcyIXcZpXrzsqQC7ltR+7RYe5NSB3lb43vpQfS+ibIleYH3LpwOyp0AVeCXMhtHXIj2q7twfsyx02nIBdy247ceADommL0m095Xi7kSvMH7soxAXc+0AVcCXIht1bknhBmW4Ydl7ize0uYBR19bXNejwu5kNt25MbeHebpDO8FpyxDrjQ34K5sAHDnAl3AlSAXcluL3K8nFHV1x2VlmI8Xg8eeQC7kQm6+63LdZRlyBbizA26TcDsb6K4CXAlyIbftyI1HY+IzL0/s6Gt7UVpGU5ALuZC7syPTOjLqtmMqTZ/WE8iFXM0FuCsbDNyZoAu4EuRC7liRe3QmzMR1NV5b964Ovq6Hhbm1GP36Q8iF3C4hd//05U+O50bHG1DFMyWW9/wz5OAwx0CuALdFuP0N6P75a+WFAbqrf14bcP8OcAW5gtw9/s45rjWdSuvcmg6+ru9M78VRT8uEXMjtEnJjJxV5TlkeniFxY88/Q85O24a707KFXHW3k/6i/PZMwG0bbqfP8n/7Wnnqn+WD7r6Ae9SF606zNglyBbm/UTwac23ascoBt67dYTkeWbkm0/KBXMjtGnJznbLs2tzBWTWfLgZHtSP6H2sYdiFX1QN3ZYuBG4/iDmcndEc8onsJ4ApyIRdyR+2yIs+jceI695GOrXNvLfI9G7evyL0JcjuL3Fi8ROHpTO+LeGO3benLpT61KH1BuPv7LWL3y8XgmcTnhNkPctU54K5sOW53B24O6AKuIBdyITdL5xd5TseNEPxsMXj2bheq4lrcviE3bofuSjvxkNtN5Mab1z2Y6YugIequ6tlnxxkJ+Pu6sV28bvmdY8Iu5CovcLuK21GhC7iCXMiF3GxFlD4y4vo2HW9d2UE9P4Ej57W4kAu5XUPuwrQu5/oyaHja8pk9WWfiZ/Tn5rj9HQd2IVejAzfAcMfKngB3PtAFXEEu5EJu1uKRmHuKPNfVdeWU5XiX1/hIpMcrAC7kQu5sHqlzTZt2X4s8N6Caftry/cXgbIoud3iYLSNsZyJ231XTZwXkqn3AXTFm4O4C3X3cjApwBbmQC7mV7LzcXOQ5ErM9rbeXtPh1jNcD5roZV9+R+7W0I34K5M55+/2BFv3duY/mDjF0e4fXlQVhNmZYZnGbG48Ex3srHAS5AtwG4XY20L0EcAW5kAu5Vba2yHfzmK8nILV1J+bi9P6ZKiB3VOTG6zTj9ZrvgNw5zeNp+31Qi/723Edzh9fnXtvB9STe1f5dxet3Us6xrOI/b4Vc9Rq4KxoK3JmgC7iCXMiF3MqLd+78UpHnutzhdaxtfGZuVXdT7itytyeorOnJNiAXcuMR8N8Kc3yL/vYqjuZ2Ebq5gTuEY3z80ErIVS+B23Tc7gm6FwTorvo54ApyIRdyK25l2qnOdQ1q/DnxmtYT2/SRXAxOrf1axcDtE3L79hihXMiN2/6Hwpzbsr//xAyfXV2GbhXAHS6fTRX/7pCr5gG3TbidPssCdE/ZB3QBV5ALuZCbbQcm13W50/+OzWEOANzWITcelbsuw7o8/MLj3p5si+KXRZ8tRj8TYCr9jM0t+/sPLAbXhua+nr0L0K0CuEM0xm3XEZCr3gB3RUuBu3za7A26gCvIhVzIzdpFxeDIXc4jDBE46wG3dciN14JemQkrw0fiXNKDbUAu5A5PWf5oCzFwbEXvp7g9+VKC/8KWLZN4k6nLi9fvnJ1rmcT31sNh3lPTF6GQq/ECd0WLj94u38PsCboTr5Z/C7iCXMiF3KzFO+B+MvPO6fa0Y9pU4IwDuG1AbuzCMM9k+nvj9iie/tz1RwktDXNnkec077Y9L3d6ZxTV3bwt/sx4ZkBbLoVYXAzOknmiguUQ/3lbTX8H5Gofn6Z/WX6nKuCu6CBw9wTdtRG45172ZmuTIBdyITdr8dE51xd5TlFtA3TfXgyOglR9k6m2IvftRb4j+305mhsh8P6M76F4JsQ9CUptKv6+8YjrkxW9f+L69PmGfwGwX5hTw3yqom1MXacpQ6723bFP/qePBeT+P7idPW53ge6flOUpf1qWC848/wJrkyAXciG3ks5L612ux4DsftQhngJ7YANepw1hHqvg7+wSck/N/CXA8I7BJ3Z4GxCvu1wV5qmM75upBOfW7fYW1Z8lEZfN/WldbVJL0jb8saKao9lxuxVPi39bzV/gQK5mLteR3BUdwO1cgHvin5XlcT/4Vbnkw39QLr7jD/+2OOEtjuQKciEXcvMXjwrcUeQ53XKm9TIemTpuTK/Rm4rBdY6PF+PBbZuQm/MOy3XdhOoNxeCMhHH2liL/te1fTl8QVdFBCWVVVOVpy9OXT8Tk1jArxvzax2uF16fP7+0V/r113E0ZcjUP6I5wTW7fcLs7cBdtfr5cdNNL5eIP/vHfFsef7ZpcQS7kQm7+ct+AaqZTVzcW9V2jGcF2W/rfrnKHu0vIzXnzqaqP6EbYTqbXeMmYl9uyIv+17cObLsU7Xi/I+Lsem77I+HBFy6Kquy3vDX/bwryjg7idvv380BjWa8hVfuiuqHmaDtzhLN7yx38HuoJcyIXc7J1QDI625r5Ryp52dh4Oc0VR3XVlK8PcHubRDDuf8ff9dJi7wzwy4s9rA3JjOa/L3X1H/ZGE6MNGfM9dHOYz6X3z4bQzPs5yX5e7+yn/8fTcs0b8HeOZFLeknxdf3zsqXB5VX5870/r1ufQei6cy71/Rl0AR0x9MuK7jy7OptP1ZOKb1GnKVB7p9xu2+gAu6glzIhdxKq+ra3Jl23CJC49GJ80dETzxyFE9ZXBvmE0W+60nj7xiPzMVreeNnzkMj/uy2IHd5mAeK6k7vHmLkuvS67TdLXJyZYDb9yNnjDUFu7Jwi352pZ5oH0mfFbP7euFyXpvfX3bu9nk9UjNxYPJPi3mI8lwnE9+7nE+ovSMB/wzz+hni2QDz9ejItwy8V9Z4VErfHn0pf3I3ryxvI1fyhu6KDuK0KuHEWxn+CriAXciG3ih2a+NiLOo++TN8JejAtg4jKd6cduzftNieHOb0YPOrm6mJw9PnzFcF8eC3p0vS//bmeILeqU5b3Bt5t6X20OsxEMbiD7oa0Pu7ti4smIbeKU5ZnmscSfuIZC1cVg9ODJ9I/42t3XzE4Y2L7Xj4r7qhhmdRxI6q5LLNPpy/Wbpu2rk1MW+fic23vTNuVh4rx3aSuCcCFXM2vlQm6cDt74C7cbUBXkAu5kJu9s4vBKaVfLca/UzrO+Wp6P56flsvpPUJu7KyivqP6o34R0RTkHlLjlwM5bgZ3R03L5RTblFYCF3LVDujWgds6gQu6glzIhdzKWpvw0ISbNY1jphLu1k9bJn1D7vBxKE8WkDuXTk3rTtO/HKgTuaDbTuBCrpoN3SbjdlTggq4gF3Iht5KqfqRQ04EbIXt9ses1fH1DbqwNR3Obhty2HM2tG7mg2z7gQq6aB926YDsKbmcD3IVzGNAV5EIu5GbfIa3r+sImTTxyGa8DPWC35dFH5NZ5bW5XkBuLN9P6bJHvBmhdQW4s3oxqWzH+Z1Y39Qu2eBftkxq0LkOumgHdOnGbA7jHR+Bu/YNy4YjABV1BLuRCbiXFu8V+qejHkZfhKcrxpjNH72FZ9BG5seMSSp4oIHcunVs0+5T/cSE3Fm/k9qEGr1Pj2v6M6zFBkKvmQrdNuP01cL//q/Kwrb9fHnr9c+WiG0fDLegKciEXcisrPlbo0Y5Dd3iK8qZi5seM9BW5sbeF+WJD14GmIreq5+Z2AblFwtyV6Yulvl77P/1Ralc39L0PuRoPdNuG212A+6EA3E3PlYfe+OLOidBdeFOeAV1BLuRCLujOYSfzKwmfB+5lGfQZufHU7cuKZh6ZbCpyY/HU3LuLZh6xHDdyh+tVPFvk4aKf1+lG4D+YvkRqapCr+qBbN2wrAe5dPxoA94YXB7MTuS+WC0FXkAu5kHtIQ//OLkI3/i3xGbsXzeLv7zNymwzdJiO3SNvi+4rmXYPaBOQOOz7MXUV/Tl+O75/4zN54acTChr/vIVcVQPevy28NoTsu2ObC7a5HcANw3/9seejmF3YCd9FwMkN3QfxZEbrHnXm6tUmQK8jNUnyG7u8Uzb6hzlxw9FvF7O9i2nfkDqF7acOg23TkNhW6TUJuLN7k7OJicA+A7UX3j96e3ZL3POSqmk78y/JbAZo72ozb14H7r+VhH/xRufi6Z8vFEbhhFsXJDN2I2+mzcMsf/Rh0BbmC3GzFoy73FO096hJ3MuMR6Q1px3q2QW4zodsG5Maadupy05A77LBicHfzrxTdulY3bnfiWSPx2dsHtuj9DrnqDnSXVwbcHwbgPlMuvj4A9/ppyM0I3d2BC7qCXEFuJS0Is7EYnHLXlqMuw7snx7u6njCPvxlyd+2MMA8V4z+q3xbkDsFwTdGMmy01Fbmx/cK8KcxHivY/aii+zvGmbfGmdke18H0OuWo/dJdXCNzDtwTgXhuAu+n5ANznB8jNDN2ZgAu6glxBbmWdkNA4VTT7qEt81u8nEszmG+T+ZkekdX+caGsTcoeAO6sY/2n/TUZuF7Ab3xMPh1kTZkmL3+OQq/ZCd3nlwP29csk1AbjvD7jdlCYjdPeFW9AV5ApyK23/YnB92ccTJpt21+QHwry7GJxmO0qQO/PrH5fN/WOCSNuQOx0P8RE6jxbjORuiDcidvo6tDHN7MTh7pKlfqMXf68sJ5WcWgzNe2h7kqn3QXV4LcH9YLr7m6QDc53YiNzd05wJc0FULWl4MrnWbDDMxz1mfdugPtThr3QE7JsypxeCow3zn1PRz9m/xsjgp7TiPa8d9+o7m7cXsbyo1mxamv++UEV7jNxeDazO72IL0RV3dX3a0Fbnjxu7vpi/V2ri84l2+P9qQL9WGpyPHM1pWFYNrirtUvG9BPPNg3Qj7JRNpv+aijsBfTYXu8jqA+70A3DsDcN8XgHvdcwm5eaE7H+CCriTV0uFphy/i4ws17LwPdzS3JWgd4iUY65c+p6fXoqqjbsOfGU9BvzDMGzqw3JYkDNxfId6G75Nb0xc2bf5CLZ7KfFTazsQv1j5X05cEw2W4tRjcl+B0cJPGDN3ldQL3jt8rl1wdgHvtcwPkZoTuKLgFXUmqvbgD+NZicJZB3Bn9bDH6s3aHz5n8WJirisGpgYss6sYVj36/K8wtxeCxKaO87sO708Zni64uun1JxhvT37glzCMj4i2+T+Jpotem98nBHV1mB6R14pwwV6cvWT45wjoXl9uni8ER2tsSps8tXAokNQO6y2ucCNzjInBv/0G55KqnyiXXPhvmuXzQDbPwhhfKBTe8CLqS1O4iSFeEeVsxOPUw3pzl8rQzGR+zsjVN/Pd42nE8YhKPcl1SDE6dO7po91GoPr/uEVrx6Gs8/XFzMbh+cetur/kHitdPj4y4iNd8H1eMfl11G4tHqY9J75W1Ya4I88FicJbE9OUWMRbv4Htp+s/FU0NPLAY3B+t78Yu204q9X0oQL0M4waKSGg7d5eMA7ndfLQ+/LQH3mmcHkwm6C8M/d84NL2SF7iHx59wJupIkSZLUSOguH8ck4B5x2/fLw678Zrnkfc++jtwM0F0Y/n+/Rm4m6EbcTh/QlSRJkqSGQTeAc0eduF02HbgfCMDd+M3ysPc9s3NyQHdR+PdFEbjD2Q26uYALupIkSZLUwFb8ZflSHdBdtjtwb/3eALhXPzOYDNBdtOm5AXKnQ3fz6KcpzwTcXaB77Dveam2SJEmSpI5Dd9n0iXdRDsBdeuv3y8Ou+EZ52FVPv47cEaB7aPjnouFE6A5xe2O1uN0Fulv+6CegK0mSJEkdhe6ymYB7y/fKwy//Rnl4BO5w5gvdMIde92yYAXAXbnq+XLA5382l5jqgK0mSJEkdg+6yvQL3uwG4T5aHX/n0YEaA7qHh3w+9dnB6co6jtqMCF3QlSZIkqUPQXTbT/HkA7ssBuDcH4G4IwN34VADuU/OG7uJrB0duF25+PitsR8Ut6EqSJElSB6C7bBbAPTIA94j1CbjDmSN046nJizble9ZtVcAFXUmSJElqIXSXzRa4N0Xgfr084opvhnlqTtCNpyfHRwNVgdoqgRvn4DigK0mSJEnNhu6yWQP3lQFw1wXgXv7NhNx9QDfMkmue2fk4oIU3vFQuvOmlduJ2+oCuJEmSJDULugGuO5bNCbivlkfe+J3yiLUJuMPZE3TDv8ejtvFxQAsDCiNsq8ZtbcAFXUmSJElqXstnC90I3O8E4G5+uVy69oly6YZvlEds+OaeoRuP2sa7I29+HbZtxe1egQu6kiRJktRC6O4E7ivlkTd8p1w6GYC7/hs7kftr6MbZ+NTOOyQv2vzCLrCtA7e1H70FXUmSJElqKXQTcI/a/O1y6cTjA+CmOeLyb+y8qdSh1/8mbNuM2zkDF3QlSZIkqYHQ/avyhV2gOwTu9d8ujwzAPXLdkzuP3kbYLo43kNoDbOvCbeOAOx26J77tDGuTJEmSJDUJutOAu3TNEztvKLX4/QG2N74Et/uaO//4p6ArSZIkSU2B7t+ULwTg7lh6y3fLJVc/VS668cUZYdsF3GYFLuhKkiRJUvNa+IGXXwiA3dEE3LYNuAdtfmHnHHzHH/60OBZ0JUmSJKnR0IXbfQMXdCVJkiSp4dDtCm7rAi7oSpIkSVJDoRvgucPR27kDF3QlSZIkqafQ7dLRW9CVJEmSpJ5Ct424nStwQVeSJEmSOg7dqnHbNOCCriRJkiR1FLp9xC3oSpIkSVJDO+TWl5+fD3T7evR2RuguP/tMa5MkSZIktQy6bcZtFcA98PrBHHQ76EqSJElSa6BbB27bdPR2OnBBV5IkSZJaAt2247Yu4IKuJEmSJDUYul3Abd3ABV1JkiRJaih0A0B3OHo7N9yCriRJkiT1ELoHdxy4oCtJkiRJPYBuG3E7X+CCriRJkiR1FLoH9xS4oCtJkiRJHYNun3G7y4CuJEmSJLUXugcD7q/nDdc/P5jb/wB0JUmSJKlN0IXbGYALupIkSZLUQOje8vKze4Jum3FbG3CnQ3fZOWdZmyRJkiSpYdA9GHDnBtzXofsz0JUkSZKkBkE34HMH3M4Rt6ArSZIkSc3s4Iqh22nggq4kSZIk9QO6bcPtvIELupIkSZLUXehWidvGAhd0JUmSJKlb0O01bqfPbaArSZIkSa2GLuAO5oBNg9kfdCVJkiSpfdBtK26rBC7oSpIkSVLLoFs1blt1evIegAu6kiRJktTADrn55S2HbH7xi4fc+OLDwzlo8/OtnTdUMZv2Ns89dsDtv39VcczZi6xNkiRJkiRJkiRJkiRJkiRJkiRJkiRJkiRJkqRx9/8BEGGlFCjLIoEAAAAASUVORK5CYII=;" vertex="1" parent="1">
          <mxGeometry x="250" y="250" width="150" height="42.81" as="geometry" />
        </mxCell>
        <mxCell id="UAdGFKXaKV5n_ljDEVXI-1" value="" style="endArrow=none;dashed=1;html=1;dashPattern=1 3;strokeWidth=2;rounded=0;" edge="1" parent="1">
          <mxGeometry width="50" height="50" relative="1" as="geometry">
            <mxPoint x="340" y="230" as="sourcePoint" />
            <mxPoint x="340" y="180" as="targetPoint" />
          </mxGeometry>
        </mxCell>
        <mxCell id="UAdGFKXaKV5n_ljDEVXI-2" value="" style="endArrow=classic;startArrow=classic;html=1;rounded=0;entryX=-0.078;entryY=0.586;entryDx=0;entryDy=0;entryPerimeter=0;" edge="1" parent="1">
          <mxGeometry width="50" height="50" relative="1" as="geometry">
            <mxPoint x="433" y="151.31" as="sourcePoint" />
            <mxPoint x="711.008" y="152.00400000000002" as="targetPoint" />
          </mxGeometry>
        </mxCell>
        <mxCell id="UAdGFKXaKV5n_ljDEVXI-3" value="HTTP for management" style="edgeLabel;html=1;align=center;verticalAlign=middle;resizable=0;points=[];fontColor=#004C99;" vertex="1" connectable="0" parent="UAdGFKXaKV5n_ljDEVXI-2">
          <mxGeometry x="0.0863" y="-1" relative="1" as="geometry">
            <mxPoint y="-10" as="offset" />
          </mxGeometry>
        </mxCell>
        <mxCell id="UAdGFKXaKV5n_ljDEVXI-4" value="" style="endArrow=classic;startArrow=classic;html=1;rounded=0;entryX=-0.078;entryY=0.586;entryDx=0;entryDy=0;entryPerimeter=0;" edge="1" parent="1">
          <mxGeometry width="50" height="50" relative="1" as="geometry">
            <mxPoint x="433" y="165.31" as="sourcePoint" />
            <mxPoint x="711" y="166" as="targetPoint" />
          </mxGeometry>
        </mxCell>
        <mxCell id="UAdGFKXaKV5n_ljDEVXI-5" value="WebSockets for the game itself" style="edgeLabel;html=1;align=center;verticalAlign=middle;resizable=0;points=[];fontColor=#004C99;" vertex="1" connectable="0" parent="UAdGFKXaKV5n_ljDEVXI-4">
          <mxGeometry x="0.0863" y="-1" relative="1" as="geometry">
            <mxPoint y="7" as="offset" />
          </mxGeometry>
        </mxCell>
        <mxCell id="UAdGFKXaKV5n_ljDEVXI-7" value="" style="endArrow=classic;startArrow=classic;html=1;rounded=0;" edge="1" parent="1">
          <mxGeometry width="50" height="50" relative="1" as="geometry">
            <mxPoint x="811" y="159" as="sourcePoint" />
            <mxPoint x="981" y="159" as="targetPoint" />
          </mxGeometry>
        </mxCell>
        <mxCell id="UAdGFKXaKV5n_ljDEVXI-8" value="Approximate monthly costs" style="text;html=1;align=center;verticalAlign=middle;resizable=0;points=[];autosize=1;strokeColor=none;fillColor=none;fontStyle=1;fontFamily=Verdana;" vertex="1" parent="1">
          <mxGeometry x="243" y="343" width="210" height="30" as="geometry" />
        </mxCell>
        <mxCell id="UAdGFKXaKV5n_ljDEVXI-9" value="- Azure Table Storage: $4.5 / 100 GB&lt;br style=&quot;border-color: var(--border-color);&quot;&gt;&lt;div style=&quot;&quot;&gt;&lt;span style=&quot;background-color: initial;&quot;&gt;- Azure App Service: $73 for production per instance (up to 10 load-balanced instances)&lt;/span&gt;&lt;/div&gt;" style="text;html=1;align=left;verticalAlign=middle;resizable=0;points=[];autosize=1;strokeColor=none;fillColor=none;fontFamily=Verdana;" vertex="1" parent="1">
          <mxGeometry x="265" y="365" width="560" height="40" as="geometry" />
        </mxCell>
        <mxCell id="UAdGFKXaKV5n_ljDEVXI-10" value="Pros" style="text;html=1;align=left;verticalAlign=middle;resizable=0;points=[];autosize=1;strokeColor=none;fillColor=none;fontStyle=1;fontFamily=Verdana;" vertex="1" parent="1">
          <mxGeometry x="254" y="407" width="50" height="30" as="geometry" />
        </mxCell>
        <mxCell id="UAdGFKXaKV5n_ljDEVXI-11" value="- easy to set up&lt;br style=&quot;border-color: var(--border-color);&quot;&gt;- has a free tier for deployment&lt;br style=&quot;border-color: var(--border-color);&quot;&gt;- automatically scales out&lt;br style=&quot;border-color: var(--border-color);&quot;&gt;- load balancer is already in place&lt;br style=&quot;border-color: var(--border-color);&quot;&gt;- easy to deploy&lt;br style=&quot;border-color: var(--border-color);&quot;&gt;- can run multiple websites without additional costs" style="text;html=1;align=left;verticalAlign=middle;resizable=0;points=[];autosize=1;strokeColor=none;fillColor=none;fontFamily=Verdana;" vertex="1" parent="1">
          <mxGeometry x="265" y="427" width="340" height="100" as="geometry" />
        </mxCell>
        <mxCell id="UAdGFKXaKV5n_ljDEVXI-14" value="Cons" style="text;html=1;align=left;verticalAlign=middle;resizable=0;points=[];autosize=1;strokeColor=none;fillColor=none;fontStyle=1;fontFamily=Verdana;" vertex="1" parent="1">
          <mxGeometry x="254" y="522" width="60" height="30" as="geometry" />
        </mxCell>
        <mxCell id="UAdGFKXaKV5n_ljDEVXI-15" value="- every $73 instance has only 1.75GB RAM and 1 core, so scaling out may be expensive&lt;br style=&quot;border-color: var(--border-color); font-family: Helvetica;&quot;&gt;&lt;span style=&quot;font-family: Helvetica;&quot;&gt;- you pay for Azure App Service even when the website is down&lt;/span&gt;" style="text;html=1;align=left;verticalAlign=middle;resizable=0;points=[];autosize=1;strokeColor=none;fillColor=none;fontFamily=Verdana;" vertex="1" parent="1">
          <mxGeometry x="265" y="550" width="560" height="40" as="geometry" />
        </mxCell>
      </root>
    </mxGraphModel>
  </diagram>
</mxfile>
